<?xml version="1.0" encoding="utf-8"?>
<!-- Generator: Adobe Illustrator 16.0.0, SVG Export Plug-In . SVG Version: 6.00 Build 0)  -->
<!DOCTYPE svg PUBLIC "-//W3C//DTD SVG 1.1//EN" "http://www.w3.org/Graphics/SVG/1.1/DTD/svg11.dtd">
<svg version="1.1" id="Layer_1" xmlns="http://www.w3.org/2000/svg" xmlns:xlink="http://www.w3.org/1999/xlink" x="0px" y="0px"
	 width="300px" height="100px" viewBox="0 0 300 100" enable-background="new 0 0 300 100" xml:space="preserve">
<g>
	<path fill-rule="evenodd" clip-rule="evenodd" fill="none" d="M35.539,57.313c-0.282-0.061-0.566-0.127-0.85-0.189
		c1.83-10.456,3.64-20.916,5.537-31.363c0.103-0.565,0.912-1.381,1.41-1.395c0.5-0.012,1.358,0.753,1.486,1.313
		c1.657,7.079,3.094,14.211,4.817,21.274c2.766,11.342,5.432,22.718,8.7,33.915c1.31,4.49,6.243,8.786,5.794,12.749
		c-1.037,9.186,4.065,5.438,7.938,5.033c0.408-0.044,0.818-0.112,1.225-0.185c9.457-1.652,19.167-2.796,24.482-12.56
		c0.288-0.529,1.117-0.736,1.511-1.236c4.328-5.496,9.833-10.487,12.567-16.695c2.445-5.557,1.976-12.448,2.452-18.776
		c0.112-1.496-0.71-3.901-1.843-4.512c-5.431-2.932-10.774-6.523-17.537-5.191c-0.725,0.141-1.814-0.254-2.308-0.789
		c-0.279-0.306,0.073-1.636,0.544-2.116c5.881-6.013,7.225-13.836,7.636-21.561c0.492-9.23-4.509-15.17-13.6-15.026
		C76.909,0.135,68.23,2.117,59.821,4.223c-3.869,0.971-7.259,4.063-10.667,6.476c-0.697,0.495-0.499,2.253-0.711,3.43
		c0.902-0.338,1.835-0.609,2.699-1.025c3.787-1.821,7.381-4.567,11.363-5.342c7.914-1.535,16.021-2.362,24.081-2.682
		c2.536-0.104,6.585,1.709,7.499,3.741c2.782,6.181,3.751,12.734-1.32,18.772c-5.674,6.752-10.016,15.06-20.536,15.467
		c-0.762,0.028-1.437,2.302-2.15,3.529c0.995,0.386,2.061,1.202,2.97,1.059c1.703-0.274,3.332-1.067,4.963-1.716
		c2.22-0.883,4.395-2.551,6.616-2.595c4.368-0.093,8.751,0.769,13.14,1.106c4.57,0.353,9.648,0.924,10.774,5.947
		c0.942,4.205,1.198,9.732-0.809,13.185c-3.956,6.799-9.672,12.582-14.691,18.757c-5.437,6.687-12.682,10.305-21.021,11.546
		c-1.969,0.29-5.1-0.597-6.116-2.046c-1.708-2.439-1.833-5.925-3.198-8.681c-2.28-4.592-5.547-8.746-7.406-13.473
		c-1.805-4.594-2.547-9.646-3.429-14.558c-1.855-10.329-3.404-20.716-5.323-31.035c-0.305-1.628-1.636-3.336-2.986-4.361
		c-0.543-0.415-3.304,0.666-3.531,1.488c-1.903,6.89-3.634,13.845-5.056,20.853c-1.429,7.034-2.38,14.165-3.713,21.219
		c-0.172,0.919-1.253,2.012-2.153,2.317c-0.545,0.186-1.828-0.82-2.301-1.584c-1.841-2.981-3.233-6.265-5.271-9.093
		c-3.183-4.415-6.758-8.543-10.144-12.816c-0.296-0.372-0.428-0.882-0.592-1.345C8.5,34.289,6.241,27.794,3.86,21.347
		c-0.249-0.673-1.204-1.086-1.832-1.617c-0.535,0.65-1.501,1.276-1.539,1.954C0.242,26.096-0.3,30.576,0.215,34.92
		c0.616,5.208,3.003,10.276,3.189,15.453c0.452,12.662-0.03,25.347,0.106,38.021c0.039,3.638,0.856,7.273,1.434,10.89
		c0.074,0.456,0.862,0.797,1.321,1.191c0.34-0.508,0.954-1,0.976-1.521c0.278-6.391,0.634-12.78,0.64-19.174
		c0.009-7.312-0.162-14.63-0.561-21.932C7.14,54.5,6.27,51.188,5.627,47.876c-0.508-2.629-1.252-5.222-1.644-7.865
		c-0.09-0.623,0.819-1.393,1.271-2.099c0.55,0.524,1.253,0.952,1.631,1.577c4.383,7.234,8.617,14.558,13.1,21.729
		c2.286,3.66,4.942,7.089,7.541,10.54c0.575,0.769,1.563,1.54,2.446,1.652c0.603,0.078,1.779-0.871,1.966-1.562
		C33.247,67.033,34.363,62.165,35.539,57.313z"/>
	<path fill-rule="evenodd" clip-rule="evenodd" d="M35.539,57.313c-1.176,4.853-2.292,9.721-3.601,14.536
		c-0.187,0.69-1.363,1.64-1.966,1.562c-0.883-0.112-1.871-0.884-2.446-1.652c-2.599-3.451-5.255-6.88-7.541-10.54
		c-4.482-7.171-8.717-14.494-13.1-21.729c-0.378-0.625-1.081-1.053-1.631-1.577c-0.452,0.706-1.361,1.476-1.271,2.099
		c0.392,2.644,1.136,5.236,1.644,7.865C6.27,51.188,7.14,54.5,7.32,57.848c0.398,7.302,0.569,14.62,0.561,21.932
		c-0.006,6.394-0.361,12.783-0.64,19.174c-0.021,0.521-0.636,1.014-0.976,1.521c-0.459-0.395-1.247-0.735-1.321-1.191
		c-0.577-3.616-1.395-7.252-1.434-10.89C3.374,75.72,3.856,63.035,3.404,50.373C3.218,45.196,0.831,40.128,0.215,34.92
		c-0.515-4.344,0.027-8.824,0.274-13.236c0.038-0.678,1.004-1.304,1.539-1.954c0.628,0.531,1.583,0.944,1.832,1.617
		c2.381,6.447,4.64,12.942,6.942,19.417c0.164,0.463,0.296,0.973,0.592,1.345c3.386,4.273,6.961,8.401,10.144,12.816
		c2.037,2.828,3.43,6.111,5.271,9.093c0.473,0.764,1.756,1.77,2.301,1.584c0.9-0.306,1.981-1.398,2.153-2.317
		c1.333-7.054,2.284-14.185,3.713-21.219c1.422-7.008,3.152-13.963,5.056-20.853c0.228-0.822,2.988-1.903,3.531-1.488
		c1.351,1.025,2.682,2.733,2.986,4.361c1.919,10.319,3.468,20.706,5.323,31.035c0.882,4.911,1.624,9.964,3.429,14.558
		c1.859,4.727,5.126,8.881,7.406,13.473c1.365,2.756,1.49,6.241,3.198,8.681c1.017,1.449,4.147,2.336,6.116,2.046
		c8.339-1.241,15.584-4.859,21.021-11.546c5.02-6.175,10.735-11.958,14.691-18.757c2.007-3.452,1.751-8.979,0.809-13.185
		c-1.126-5.023-6.204-5.595-10.774-5.947c-4.389-0.338-8.771-1.199-13.14-1.106c-2.222,0.044-4.396,1.712-6.616,2.595
		c-1.631,0.648-3.26,1.441-4.963,1.716c-0.909,0.144-1.975-0.673-2.97-1.059c0.714-1.228,1.389-3.501,2.15-3.529
		c10.521-0.407,14.862-8.715,20.536-15.467c5.071-6.038,4.103-12.592,1.32-18.772c-0.914-2.032-4.963-3.845-7.499-3.741
		C78.526,5.398,70.42,6.226,62.506,7.761c-3.982,0.774-7.576,3.521-11.363,5.342c-0.864,0.416-1.797,0.688-2.699,1.025
		c0.212-1.177,0.014-2.935,0.711-3.43c3.408-2.412,6.798-5.505,10.667-6.476c8.409-2.105,17.088-4.088,25.682-4.221
		c9.091-0.144,14.092,5.796,13.6,15.026c-0.411,7.725-1.755,15.548-7.636,21.561c-0.471,0.48-0.823,1.811-0.544,2.116
		c0.493,0.535,1.583,0.93,2.308,0.789c6.763-1.332,12.106,2.26,17.537,5.191c1.133,0.61,1.955,3.016,1.843,4.512
		c-0.477,6.328-0.007,13.22-2.452,18.776c-2.734,6.208-8.239,11.199-12.567,16.695c-0.394,0.5-1.223,0.707-1.511,1.236
		c-5.315,9.764-15.025,10.907-24.482,12.56c-0.406,0.072-0.816,0.141-1.225,0.185c-3.873,0.405-8.976,4.152-7.938-5.033
		c0.449-3.963-4.484-8.259-5.794-12.749c-3.269-11.197-5.935-22.573-8.7-33.915c-1.724-7.063-3.16-14.195-4.817-21.274
		c-0.128-0.56-0.986-1.324-1.486-1.313c-0.498,0.014-1.308,0.829-1.41,1.395c-1.897,10.447-3.707,20.907-5.537,31.363
		C34.973,57.186,35.257,57.252,35.539,57.313z M5.431,34.428c-0.774-0.68-1.268-1.117-1.763-1.554
		c-0.389,0.521-1.112,1.063-1.077,1.552c0.035,0.541,0.769,1.032,1.195,1.545C4.251,35.534,4.719,35.097,5.431,34.428z"/>
	<path fill-rule="evenodd" clip-rule="evenodd" fill="none" d="M5.431,34.428c-0.712,0.669-1.18,1.106-1.645,1.543
		c-0.427-0.513-1.16-1.004-1.195-1.545c-0.035-0.488,0.688-1.03,1.077-1.552C4.163,33.311,4.656,33.748,5.431,34.428z"/>
</g>
</svg>
