<?xml version="1.0" encoding="utf-8"?>
<!-- Generator: Adobe Illustrator 16.0.0, SVG Export Plug-In . SVG Version: 6.00 Build 0)  -->
<!DOCTYPE svg PUBLIC "-//W3C//DTD SVG 1.1//EN" "http://www.w3.org/Graphics/SVG/1.1/DTD/svg11.dtd">
<svg version="1.1" id="Layer_1" xmlns="http://www.w3.org/2000/svg" xmlns:xlink="http://www.w3.org/1999/xlink" x="0px" y="0px"
	 width="300px" height="100px" viewBox="0 0 300 100" enable-background="new 0 0 300 100" xml:space="preserve">
<g>
	<path fill-rule="evenodd" clip-rule="evenodd" fill="none" d="M16.176,38.327c0.367-0.163,0.734-0.329,1.101-0.49
		c1.847,3.265,3.864,6.447,5.493,9.817c1.495,3.097,3.909,5.084,6.747,6.716c1.771,1.02,3.192,0.628,4.239-1.192
		c1.29-2.244,1.948-4.504,1.653-7.211c-0.515-4.738-0.693-9.521-0.818-14.289c-0.034-1.264,0.644-2.548,0.993-3.821
		c1.118,0.961,2.26,1.899,3.339,2.901c0.289,0.267,0.395,0.737,0.566,1.122c2.07,4.613,4.117,9.237,6.211,13.837
		c0.463,1.017,0.963,2.063,1.663,2.916c1.595,1.941,3.743,1.63,4.469-0.774c0.372-1.232,0.266-2.818-0.168-4.051
		c-2.475-7.01-5.09-13.968-7.707-20.929c-1.335-3.55-2.63-7.126-4.209-10.569c-1.274-2.78-4.483-4.041-7.063-2.743
		c-1.949,0.98-3.824,2.276-4.217,4.86c-0.423,2.774-0.972,5.544-1.709,8.25c-0.743,2.717-2.186,3.099-4.257,1.327
		c-0.532-0.451-0.983-1.004-1.445-1.532c-2.95-3.389-5.898-6.775-8.836-10.174C9.572,9.237,5.491,9.183,2.219,11.5
		c-2.507,1.774-2.437,3.813-1.953,6.239c2.226,11.194,5.603,22.06,9.676,32.699c0.833,2.175,2.371,4.123,3.797,6.018
		c1.111,1.475,2.806,1.917,4.548,1.131c1.877-0.849,2.721-2.494,2.437-4.477c-0.258-1.797-0.79-3.568-1.344-5.306
		C18.368,44.63,17.25,41.483,16.176,38.327z M98.326,37.379c-0.367,4.691,1.205,8.91,3.145,12.992
		c2.709,5.695,7.914,7.375,13.564,4.539c0.251-0.127,0.479-0.299,0.728-0.424c1.943-1.001,3.46-0.653,4.62,1.303
		c0.855,1.445,1.854,2.809,2.829,4.179c1.257,1.771,4.51,2.609,6.366,1.563c2.145-1.208,0.942-2.996,0.486-4.471
		c-1.113-3.615-2.635-7.11-3.605-10.759c-2.199-8.265-4.157-16.594-6.231-24.891c-0.237-0.95-0.54-1.891-0.891-2.807
		c-0.906-2.366-2.601-3.531-5.191-3.439c-3.75,0.133-6.815,1.459-8.866,4.743c-1.112,1.782-2.331,3.502-3.375,5.322
		c-1.017,1.777-2.169,3.558-2.721,5.491C98.577,32.851,98.585,35.153,98.326,37.379z M72.408,0
		c-3.681,0.842-7.469,1.381-10.993,2.649c-1.8,0.65-3.406,2.417-4.558,4.059c-0.628,0.899-0.565,2.853,0.017,3.839
		c0.433,0.734,2.256,1.048,3.364,0.888c1.471-0.214,2.911-0.959,4.255-1.678c3.263-1.746,6.74-2.012,10.259-1.439
		c3.603,0.586,5.789,3.359,5.447,6.872c-0.173,1.783-0.527,3.759-1.499,5.17c-0.559,0.81-2.512,0.661-3.84,0.94
		c-0.137,0.029-0.281,0.029-0.416,0.063c-2.106,0.525-3.524,1.828-3.912,3.958c-0.389,2.145,0.925,3.574,2.708,4.269
		c1.353,0.525,2.943,0.458,4.432,0.641c1.199,0.145,2.871-0.189,3.519,0.479c2.874,2.967,5.196,6.379,4.996,10.782
		c-0.219,4.83-3.59,6.695-7.85,4.375c-1.966-1.073-3.839-2.329-5.701-3.578c-2.453-1.647-4.888-1.416-6.723,0.727
		c-2.888,3.378-0.404,11.032,3.989,11.797c3.31,0.576,6.709,0.923,10.063,0.884c8.291-0.096,13.305-5.629,12.809-13.905
		c-0.102-1.671-0.337-3.407-0.923-4.958c-1.583-4.193-3.236-8.376-5.171-12.415c-0.919-1.917-1.375-3.546-0.495-5.568
		C89.437,11.372,83.408-0.013,72.408,0z M145.783,45.792c0.382-0.207,0.763-0.412,1.146-0.62c3.188,3.362,6.377,6.722,9.563,10.085
		c2.349,2.477,5.408,3.56,8.639,3.97c1,0.128,2.664-0.654,3.084-1.491c0.409-0.812-0.092-2.45-0.736-3.323
		c-0.802-1.089-2.208-1.704-3.268-2.624c-3.824-3.313-7.713-6.561-11.374-10.049c-2.258-2.151-2.022-2.815-0.197-5.385
		c1.039-1.461,2.09-3.053,2.567-4.747c1.396-4.939-1.032-8.484-4.302-12.012c-4.337-4.685-13.808-3.704-17.476,0.798
		c-1.781,2.188-2.389,4.306-1.239,6.984c1.163,2.71,2.288,5.469,3.064,8.305c1.711,6.239,3.174,12.546,4.771,18.816
		c0.968,3.802,2.226,5.129,4.305,4.671c2.086-0.458,2.924-2.325,2.519-5.943C146.572,50.741,146.146,48.27,145.783,45.792z
		 M164.635,26.134c-0.454,7.258,1.015,13.384,3.793,19.155c0.944,1.963,2.358,3.893,4.024,5.281
		c6.895,5.749,16.571,2.687,19.138-5.854c2.074-6.907,0.582-13.389-2.511-19.548c-0.956-1.903-2.701-3.788-4.563-4.789
		c-5.102-2.749-10.8-2.926-16.428-2.407c-2.692,0.247-3.746,2.02-3.642,4.739C164.501,24.111,164.599,25.512,164.635,26.134z
		 M195.257,25.117c2.005,5.086,3.812,10.077,5.943,14.93c1.397,3.184,3.28,6.151,4.907,9.235c0.978,1.859,1.67,3.905,2.868,5.601
		c1.643,2.331,3.64,2.034,4.761-0.483c1.94-4.351,3.925-8.683,5.743-13.084c0.573-1.385,0.988-2.982,0.917-4.455
		c-0.105-2.221-2.288-3.011-3.95-1.516c-0.813,0.729-1.389,1.751-1.971,2.703c-0.657,1.075-1.132,2.267-1.814,3.325
		c-1.185,1.838-1.921,1.853-3.072,0.151c-0.313-0.463-0.567-0.974-0.787-1.488c-1.97-4.651-3.915-9.31-5.896-13.953
		c-0.437-1.022-0.763-2.271-1.548-2.917c-0.973-0.802-2.539-1.69-3.541-1.419C196.845,22.014,196.26,23.702,195.257,25.117z"/>
	<path fill-rule="evenodd" clip-rule="evenodd" d="M18.425,38.327c1.074,3.156,2.192,6.303,3.204,9.478
		c0.554,1.737,1.088,3.509,1.344,5.306c0.285,1.982-0.559,3.628-2.437,4.477c-1.741,0.786-3.435,0.344-4.548-1.131
		c-1.426-1.895-2.963-3.843-3.797-6.018c-4.073-10.64-7.45-21.505-9.675-32.699c-0.483-2.427-0.554-4.465,1.954-6.239
		c3.271-2.317,7.353-2.263,10,0.798c2.938,3.398,5.888,6.785,8.838,10.174c0.461,0.528,0.912,1.081,1.443,1.532
		c2.071,1.771,3.516,1.39,4.257-1.327c0.739-2.706,1.288-5.476,1.71-8.25c0.395-2.584,2.269-3.88,4.216-4.86
		c2.58-1.298,5.791-0.037,7.065,2.743c1.578,3.443,2.874,7.02,4.207,10.569c2.619,6.961,5.233,13.919,7.708,20.929
		c0.435,1.232,0.539,2.818,0.167,4.051c-0.724,2.404-2.873,2.716-4.467,0.774c-0.7-0.854-1.201-1.899-1.664-2.916
		c-2.096-4.6-4.144-9.224-6.211-13.837c-0.172-0.385-0.279-0.855-0.568-1.122c-1.077-1.002-2.219-1.94-3.337-2.901
		c-0.351,1.273-1.027,2.558-0.995,3.821c0.126,4.769,0.305,9.551,0.82,14.289c0.295,2.707-0.363,4.967-1.655,7.211
		c-1.045,1.82-2.467,2.212-4.239,1.192c-2.837-1.632-5.25-3.619-6.745-6.716c-1.628-3.37-3.645-6.553-5.494-9.817
		C19.16,37.998,18.792,38.164,18.425,38.327z"/>
	<path fill-rule="evenodd" clip-rule="evenodd" d="M98.326,37.379c0.259-2.226,0.251-4.528,0.858-6.657
		c0.552-1.934,1.704-3.714,2.721-5.491c1.043-1.82,2.263-3.54,3.375-5.322c2.05-3.284,5.116-4.61,8.866-4.743
		c2.59-0.092,4.286,1.073,5.191,3.439c0.351,0.916,0.653,1.856,0.891,2.807c2.075,8.297,4.033,16.626,6.231,24.891
		c0.97,3.648,2.492,7.144,3.605,10.759c0.456,1.475,1.658,3.263-0.486,4.471c-1.856,1.046-5.109,0.207-6.366-1.563
		c-0.975-1.37-1.974-2.733-2.829-4.179c-1.16-1.956-2.677-2.304-4.62-1.303c-0.249,0.125-0.477,0.297-0.728,0.424
		c-5.65,2.836-10.855,1.156-13.564-4.539C99.531,46.289,97.958,42.07,98.326,37.379z M109.686,40.003
		c0.172,1.15,0.229,2.421,0.569,3.606c0.497,1.74,1.846,2.387,3.568,2.094c1.813-0.307,2.708-1.488,2.334-3.286
		c-0.451-2.173-0.963-4.36-1.783-6.41c-0.33-0.82-1.495-1.599-2.399-1.771c-0.446-0.081-1.413,1.165-1.695,1.967
		C109.871,37.359,109.874,38.655,109.686,40.003z"/>
	<path fill-rule="evenodd" clip-rule="evenodd" d="M72.408,0c11-0.013,17.029,11.372,13.776,18.85
		c-0.88,2.022-0.425,3.651,0.495,5.568c1.935,4.039,3.588,8.222,5.171,12.415c0.586,1.551,0.822,3.287,0.923,4.958
		c0.497,8.276-4.518,13.81-12.809,13.905c-3.354,0.039-6.754-0.308-10.063-0.884c-4.393-0.765-6.876-8.419-3.989-11.797
		c1.835-2.143,4.27-2.374,6.723-0.727c1.862,1.249,3.734,2.505,5.701,3.578c4.26,2.32,7.631,0.455,7.85-4.375
		c0.2-4.403-2.122-7.815-4.996-10.782c-0.648-0.669-2.32-0.335-3.519-0.479c-1.489-0.183-3.079-0.115-4.432-0.641
		c-1.783-0.694-3.097-2.124-2.708-4.269c0.387-2.13,1.805-3.433,3.912-3.958c0.135-0.034,0.279-0.034,0.416-0.063
		c1.328-0.279,3.281-0.131,3.84-0.94c0.972-1.411,1.325-3.387,1.499-5.17c0.342-3.513-1.844-6.286-5.447-6.872
		c-3.519-0.572-6.996-0.307-10.259,1.439c-1.344,0.719-2.784,1.464-4.255,1.678c-1.108,0.16-2.932-0.153-3.364-0.888
		c-0.583-0.986-0.645-2.939-0.017-3.839c1.152-1.642,2.758-3.408,4.558-4.059C64.939,1.381,68.727,0.842,72.408,0z"/>
	<path fill-rule="evenodd" clip-rule="evenodd" d="M281.801,70.044c0-4.218,0.014-8.437-0.01-12.652
		c-0.007-1.121,0.001-2.271-0.228-3.358c-0.603-2.874-2.834-4.039-5.623-3.052c-2.78,0.985-3.883,0.918-5.35-1.484
		c-2.774-4.552-5.359-9.232-7.735-14.004c-1.194-2.393-0.554-4.849,0.904-5.26c2.237-0.632,3.435,1.037,4.339,2.575
		c1.56,2.659,2.839,5.483,4.231,8.24c0.444,0.877,0.812,1.799,1.318,2.637c2.321,3.838,3.371,3.785,6.436,0.455
		c4.665-5.064,9.471-10.001,14.366-14.84c0.969-0.96,2.891-2.024,3.877-1.667c1.957,0.707,1.366,2.961,0.847,4.436
		c-0.684,1.938-1.801,3.781-3.009,5.469c-1.052,1.469-2.428,2.732-3.772,3.966c-2.278,2.09-2.763,4.654-2.701,7.635
		c0.269,12.918,0.415,25.842,0.521,38.763c0.017,2.051,0.167,4.448-2.386,5.334c-1.675,0.582-4.051-1.391-4.984-4.345
		c-0.624-1.976-0.931-4.116-1.005-6.197c-0.149-4.213-0.045-8.434-0.045-12.649C281.796,70.044,281.797,70.044,281.801,70.044z"/>
	<path fill-rule="evenodd" clip-rule="evenodd" d="M145.783,45.792c0.362,2.478,0.789,4.949,1.068,7.435
		c0.405,3.618-0.433,5.485-2.519,5.943c-2.08,0.458-3.337-0.869-4.305-4.671c-1.596-6.271-3.06-12.577-4.771-18.816
		c-0.776-2.836-1.901-5.595-3.064-8.305c-1.15-2.679-0.542-4.797,1.239-6.984c3.667-4.502,13.139-5.482,17.476-0.798
		c3.27,3.527,5.698,7.072,4.302,12.012c-0.478,1.694-1.528,3.286-2.567,4.747c-1.825,2.569-2.061,3.233,0.197,5.385
		c3.66,3.488,7.549,6.736,11.374,10.049c1.061,0.92,2.466,1.535,3.268,2.624c0.644,0.873,1.145,2.512,0.736,3.323
		c-0.421,0.837-2.084,1.619-3.084,1.491c-3.231-0.41-6.29-1.493-8.639-3.97c-3.186-3.363-6.375-6.723-9.563-10.085
		C146.546,45.38,146.166,45.585,145.783,45.792z M144.273,24.01c-0.288,0.063-0.702,0.13-1.099,0.25
		c-3.327,0.997-3.929,2.721-2.168,6.896c0.625,1.481,1.634,2.8,2.47,4.192c1.263-1.209,2.62-2.337,3.751-3.661
		c0.603-0.708,0.969-1.72,1.17-2.653C148.838,26.987,146.453,24.086,144.273,24.01z"/>
	<path fill-rule="evenodd" clip-rule="evenodd" d="M249.221,35.616c0.497-4.387,0.949-8.413,1.411-12.442
		c0.081-0.7,0.165-1.398,0.295-2.086c0.34-1.813,0.587-4.001,3.023-3.813c2.309,0.179,2.522,2.369,2.692,4.188
		c0.132,1.388,0.093,2.817-0.076,4.203c-1.12,9.252-0.83,18.505-0.241,27.771c0.079,1.236-0.7,2.525-1.083,3.792
		c-1.251-0.404-2.84-0.457-3.692-1.276c-3.126-3.004-6.002-6.267-8.982-9.422c-2.403-2.547-4.752-5.149-7.254-7.591
		c-1.387-1.355-2.266-1.084-2.496,0.791c-0.338,2.78-0.195,5.621-0.561,8.396c-0.165,1.249-0.746,2.913-1.69,3.492
		c-2.039,1.252-4.222-0.407-4.043-2.89c0.431-6.021,0.888-12.038,1.452-18.048c0.301-3.2,3.403-5.453,6.636-4.86
		c1.212,0.222,2.489,0.691,3.48,1.404C241.711,29.829,245.22,32.58,249.221,35.616z"/>
	<path fill-rule="evenodd" clip-rule="evenodd" d="M164.635,26.134c-0.036-0.622-0.133-2.022-0.189-3.422
		c-0.104-2.72,0.95-4.492,3.642-4.739c5.628-0.519,11.326-0.342,16.428,2.407c1.862,1.001,3.607,2.886,4.563,4.789
		c3.093,6.159,4.585,12.641,2.511,19.548c-2.566,8.54-12.243,11.603-19.138,5.854c-1.666-1.389-3.08-3.318-4.024-5.281
		C165.65,39.518,164.181,33.392,164.635,26.134z M176.965,28.683c-4.538-0.167-5.816,0.995-5.102,5.351
		c0.445,2.706,1.312,5.477,2.62,7.877c1.976,3.629,8.212,3.844,9.83,0.486c1.757-3.65,1.184-7.388-0.505-10.928
		C182.388,28.499,179.453,28.911,176.965,28.683z"/>
	<path fill-rule="evenodd" clip-rule="evenodd" d="M195.257,25.117c1.003-1.415,1.588-3.104,2.561-3.37
		c1.001-0.271,2.567,0.617,3.541,1.419c0.785,0.646,1.111,1.895,1.548,2.917c1.981,4.644,3.926,9.302,5.896,13.953
		c0.219,0.515,0.474,1.025,0.787,1.488c1.151,1.701,1.887,1.687,3.072-0.151c0.682-1.059,1.157-2.25,1.814-3.325
		c0.583-0.952,1.159-1.974,1.971-2.703c1.663-1.495,3.845-0.705,3.95,1.516c0.071,1.473-0.345,3.07-0.917,4.455
		c-1.818,4.401-3.803,8.733-5.743,13.084c-1.122,2.518-3.118,2.814-4.761,0.483c-1.198-1.695-1.89-3.741-2.868-5.601
		c-1.627-3.084-3.509-6.052-4.907-9.235C199.069,35.194,197.262,30.203,195.257,25.117z"/>
	<path fill-rule="evenodd" clip-rule="evenodd" fill="none" d="M109.686,40.003c0.188-1.348,0.186-2.644,0.593-3.8
		c0.283-0.802,1.25-2.048,1.695-1.967c0.905,0.172,2.07,0.95,2.399,1.771c0.82,2.05,1.332,4.237,1.783,6.41
		c0.374,1.798-0.521,2.979-2.334,3.286c-1.722,0.293-3.071-0.354-3.568-2.094C109.915,42.424,109.857,41.153,109.686,40.003z"/>
	<path fill-rule="evenodd" clip-rule="evenodd" fill="none" d="M144.273,24.01c2.18,0.076,4.565,2.978,4.124,5.024
		c-0.201,0.934-0.567,1.945-1.17,2.653c-1.131,1.324-2.489,2.452-3.751,3.661c-0.835-1.393-1.845-2.711-2.47-4.192
		c-1.76-4.176-1.159-5.899,2.168-6.896C143.571,24.14,143.985,24.073,144.273,24.01z"/>
	<path fill-rule="evenodd" clip-rule="evenodd" fill="none" d="M176.965,28.683c2.488,0.229,5.423-0.184,6.843,2.786
		c1.689,3.54,2.262,7.277,0.505,10.928c-1.618,3.357-7.854,3.143-9.83-0.486c-1.308-2.4-2.175-5.171-2.62-7.877
		C171.149,29.678,172.427,28.516,176.965,28.683z"/>
</g>
</svg>
