<?xml version="1.0" encoding="utf-8"?>
<!-- Generator: Adobe Illustrator 16.0.0, SVG Export Plug-In . SVG Version: 6.00 Build 0)  -->
<!DOCTYPE svg PUBLIC "-//W3C//DTD SVG 1.1//EN" "http://www.w3.org/Graphics/SVG/1.1/DTD/svg11.dtd">
<svg version="1.1" id="Layer_1" xmlns="http://www.w3.org/2000/svg" xmlns:xlink="http://www.w3.org/1999/xlink" x="0px" y="0px"
	 width="300px" height="100px" viewBox="0 0 300 100" enable-background="new 0 0 300 100" xml:space="preserve">
<g>
	<path fill-rule="evenodd" clip-rule="evenodd" d="M23.391,0c4,14.909,7.772,28.989,12.345,46.045
		c3.957-5.116,6.325-7.768,8.225-10.717c4.114-6.391,7.814-13.048,12.001-19.386c6.367-9.63,6.339-9.116,17.409-5.515
		c6.323,2.06,13.216,2.342,19.823,3.57c3.319,0.616,6.687,1.258,9.841,2.409c8.53,3.114,11.696,11.342,7.388,19.229
		c-1.403,2.565-3.511,4.755-5.361,7.066c-1.84,2.302-3.759,4.543-6.59,7.95c5.173,2.424,9.929,4.703,14.722,6.898
		c10.813,4.953,14.042,16.021,6.265,24.938c-7.928,9.085-16.221,18.704-30.792,14.604c-1.384-0.39-3.196,0.822-4.832,1.201
		c-3.361,0.781-7.034,1.809-8.203-2.941c-1.04-4.212,0.36-7.522,4.797-9.027c4.009-1.357,8.504-2.005,11.887-4.294
		c3.863-2.613,11.603-3.484,9.819-9.696c-1.058-3.685-6.937-6.233-10.998-8.723c-2.448-1.499-5.599-1.813-8.378-2.817
		c-12.148-4.398-15.035-2.148-14.432,11.055c0.307,6.67,0.959,13.43,0.241,20.017c-0.672,6.142-4.964,8.577-11.073,7.074
		c-2.084-0.512-5.059-2.494-5.385-4.23c-1.867-9.873-4.854-19.638-0.287-29.901c2.919-6.567,3.901-13.999,5.751-21.042
		c-1.194-0.423-2.388-0.845-3.582-1.268c-3.518,7.939-7.242,15.794-10.475,23.846c-2.006,5.003-3.865,9.529-10.508,8.864
		c-6.185-0.623-6.867-5.252-7.722-9.993c-1.18-6.537-2.584-13.035-4.037-20.262c-6.438,5.797-6.594,12.425-7.189,19.178
		c-0.498,5.632-0.131,12.686-7.968,14.025c-4.706,0.808-7.378-5.521-5.476-15.803c2.683-14.504,7.533-28.704,9.078-43.287
		c0.812-7.661,3.772-12.553,8.604-17.301C19.099,0.983,20.608,0.926,23.391,0z M69.894,45.63
		c10.424,1.351,24.906-4.168,28.809-9.875c3.955-5.786,0.617-14.114-6.263-15.522c-3.708-0.758-7.444-1.373-11.156-2.107
		c-4.796-0.95-8.456-0.128-9.068,5.623C71.467,30.771,70.725,37.796,69.894,45.63z"/>
</g>
</svg>
