<?xml version="1.0" encoding="utf-8"?>
<!-- Generator: Adobe Illustrator 16.0.0, SVG Export Plug-In . SVG Version: 6.00 Build 0)  -->
<!DOCTYPE svg PUBLIC "-//W3C//DTD SVG 1.1//EN" "http://www.w3.org/Graphics/SVG/1.1/DTD/svg11.dtd">
<svg version="1.1" id="Layer_1" xmlns="http://www.w3.org/2000/svg" xmlns:xlink="http://www.w3.org/1999/xlink" x="0px" y="0px"
	 width="300px" height="100px" viewBox="0 0 300 100" enable-background="new 0 0 300 100" xml:space="preserve">
<g>
	<path fill-rule="evenodd" clip-rule="evenodd" fill="none" d="M91.485,96.371c16.107,0.145,28.392-8.716,32.362-21.705
		c0.873-2.86,1.679-5.742,2.408-8.643c1.237-4.928,0.295-9.162-4.069-12.283c-3.099-2.216-5.987-4.768-9.237-6.724
		c-8.091-4.86-8.834-9.73-3.372-17.15c2.206-2.996,4.22-7.513,3.645-10.883c-1.073-6.274-4.921-11.906-11.609-13.614
		C87.509,1.771,73.545-3.529,58.631,3.322c-4.907,2.254-7.206,4.79-8.196,9.845c-1.078,5.507-2.882,10.904-4.755,16.212
		c-1.515,4.293-3.487,8.441-5.493,12.538c-0.753,1.543-2.171,2.761-3.289,4.127c-1.1-1.047-2.714-1.889-3.218-3.171
		c-3.38-8.575-6.43-17.279-9.79-25.866c-1.458-3.729-3.299-7.32-5.161-10.874c-1.108-2.119-2.756-2.047-4.79-0.848
		c-3.492,2.057-6.313,4.398-5.884,8.935c0.334,3.52,0.75,7.029,1.124,10.548c0.201,1.887,1.262,4.395,0.436,5.561
		c-3.554,5.023-0.928,9.978-0.618,14.97c0.117,1.869,0.524,4.084-0.265,5.579c-3.178,6.011-3.5,12.485-4.19,19.011
		C4.215,73,2.927,76.259,1.229,78.914c-2.018,3.151-1.309,5.669,0.373,8.313c2.462,3.871,6.722,5.524,11.355,4.58
		c4.664-0.95,7.494-4.261,8.208-9.879c0.96-7.51,1.557-15.076,2.801-22.537c0.705-4.221,2.438-4.549,5.349-1.719
		c7.561,7.339,7.561,7.339,15.459,1.018c0.85-0.68,1.695-1.37,2.558-2.037c3.584-2.763,3.905-2.75,5.275,1.562
		c3.137,9.869,5.98,19.838,9.266,29.656c0.992,2.965,2.602,5.982,4.708,8.259c2.935,3.17,5.8,2.839,7.516-1.179
		c1.654-3.876,3.56-3.07,6.355-2.078C84.777,94.408,89.204,95.659,91.485,96.371z"/>
	<path fill-rule="evenodd" clip-rule="evenodd" d="M91.485,96.371c-2.281-0.712-6.708-1.963-11.031-3.499
		c-2.795-0.992-4.701-1.798-6.355,2.078c-1.716,4.018-4.581,4.349-7.516,1.179c-2.106-2.276-3.716-5.294-4.708-8.259
		c-3.285-9.818-6.128-19.787-9.266-29.656c-1.371-4.312-1.691-4.324-5.275-1.562c-0.863,0.667-1.708,1.357-2.558,2.037
		c-7.898,6.321-7.898,6.321-15.459-1.018c-2.91-2.83-4.644-2.502-5.349,1.719c-1.244,7.461-1.841,15.027-2.801,22.537
		c-0.715,5.618-3.544,8.929-8.208,9.879c-4.634,0.944-8.893-0.709-11.355-4.58c-1.681-2.644-2.39-5.161-0.373-8.313
		C2.927,76.259,4.215,73,4.543,69.888c0.69-6.525,1.013-13,4.19-19.011c0.79-1.495,0.382-3.71,0.265-5.579
		c-0.31-4.992-2.937-9.946,0.618-14.97c0.826-1.166-0.235-3.674-0.436-5.561c-0.374-3.519-0.79-7.028-1.124-10.548
		c-0.429-4.536,2.392-6.878,5.884-8.935c2.033-1.199,3.682-1.271,4.79,0.848c1.861,3.554,3.702,7.145,5.161,10.874
		c3.36,8.587,6.41,17.291,9.79,25.866c0.504,1.282,2.119,2.124,3.218,3.171c1.118-1.366,2.535-2.584,3.289-4.127
		c2.005-4.097,3.978-8.245,5.493-12.538c1.874-5.308,3.678-10.705,4.755-16.212c0.99-5.055,3.289-7.591,8.196-9.845
		c14.914-6.852,28.878-1.552,42.981,2.047c6.688,1.708,10.536,7.34,11.609,13.614c0.575,3.37-1.439,7.887-3.645,10.883
		c-5.462,7.42-4.719,12.29,3.372,17.15c3.25,1.956,6.139,4.508,9.237,6.724c4.364,3.121,5.306,7.355,4.069,12.283
		c-0.729,2.9-1.535,5.782-2.408,8.643C119.877,87.655,107.592,96.516,91.485,96.371z M65.45,39.075
		c0.731,8.841,1.406,18.856,2.46,28.838c0.425,4.024,1.612,7.979,2.58,11.933c0.751,3.071,2.313,4.551,5.918,3.596
		c4.18-1.108,8.539-2.089,12.826-2.117c8.796-0.053,15.68-4.568,22.209-9.293c8.164-5.906,6.597-15.853-2.92-18.902
		c-7.943-2.545-16.131-5.445-24.71-3.65c-3.785,0.792-5.604-0.358-6.841-3.703c-1.287-3.478-2.396-6.878,1.482-9.397
		c1.804-1.173,3.858-1.969,5.806-2.923c4.876-2.381,9.96-4.425,14.572-7.242c4.064-2.48,3.868-5.468-0.456-7.041
		c-7.898-2.878-15.983-5.426-24.619-4.49c-4.977,0.539-6.898,2.079-7.451,7.027C65.709,27.05,65.746,32.461,65.45,39.075z"/>
	<path fill-rule="evenodd" clip-rule="evenodd" fill="none" d="M65.45,39.075c0.296-6.614,0.259-12.025,0.857-17.366
		c0.553-4.948,2.474-6.488,7.451-7.027c8.635-0.936,16.72,1.612,24.619,4.49c4.324,1.573,4.521,4.561,0.456,7.041
		c-4.612,2.817-9.695,4.861-14.572,7.242c-1.948,0.954-4.002,1.75-5.806,2.923c-3.878,2.52-2.769,5.92-1.482,9.397
		c1.237,3.345,3.056,4.495,6.841,3.703c8.579-1.795,16.767,1.105,24.71,3.65c9.517,3.05,11.084,12.996,2.92,18.902
		c-6.529,4.725-13.413,9.24-22.209,9.293c-4.287,0.028-8.646,1.009-12.826,2.117c-3.605,0.955-5.167-0.524-5.918-3.596
		c-0.968-3.953-2.155-7.908-2.58-11.933C66.856,57.932,66.181,47.916,65.45,39.075z"/>
</g>
</svg>
