<?xml version="1.0" encoding="utf-8"?>
<!-- Generator: Adobe Illustrator 16.0.0, SVG Export Plug-In . SVG Version: 6.00 Build 0)  -->
<!DOCTYPE svg PUBLIC "-//W3C//DTD SVG 1.1//EN" "http://www.w3.org/Graphics/SVG/1.1/DTD/svg11.dtd">
<svg version="1.1" id="Layer_1" xmlns="http://www.w3.org/2000/svg" xmlns:xlink="http://www.w3.org/1999/xlink" x="0px" y="0px"
	 width="300px" height="100px" viewBox="0 0 300 100" enable-background="new 0 0 300 100" xml:space="preserve">
<g>
	<path fill-rule="evenodd" clip-rule="evenodd" d="M28.896,22.355c-0.678,7.624-2.212,15.291-1.802,22.854
		c0.433,8.015-0.082,15.935-0.659,23.824c-0.536,7.359,1.751,15.169-3.603,22.177c-1.814-15.511-3.528-31.037-5.493-46.529
		c-0.793-6.241-1.854-12.48-3.359-18.58c-0.66-2.673-1.539-0.524-1.893,0.545c-1.388,4.194-4.979,3.954-7.43,2.42
		c-2.896-1.807-5.766-3.958-4.228-9.112c2.384-7.994,7.746-12.1,14.788-15.005c0.864-0.355,1.893-1.037,2.635-0.825
		c2.829,0.805,5.516,2.417,8.368,2.754c2.434,0.285-0.163-4.665,4.355-4.741c3.152-0.053,5.591-2.859,8.307,1.587
		c1.56,2.548,4.633,4.253,7.358-0.58c2.307-4.093,6.808-3.253,10.923-1.841c3.69,1.267,4.264,4.015,4.205,7.252
		c-0.207,11.26-0.682,22.519-0.599,33.775c0.084,11.194,0.45,22.406,1.307,33.563c0.202,2.665,0.744,5.127-1.998,5.486
		c-1.286,0.168-4.366-2.838-4.257-4.219c0.78-9.975-1.409-19.416-3.648-28.991c-1.179-5.045-0.686-10.48-0.975-15.735
		c-0.267-4.845-2.457-8.778-5.723-13.907C44.619,37.16,43.87,54.005,42.99,70.845c-0.055,1.06-1.148,2.064-1.758,3.094
		c-0.81-0.955-1.807-1.806-2.395-2.882c-4.376-8.021-3.38-16.935-4.231-25.56c-0.756-7.652-1.876-15.271-2.837-22.903
		C30.813,22.515,29.854,22.435,28.896,22.355z"/>
	<path fill-rule="evenodd" clip-rule="evenodd" d="M84.591,57.742c5.13-1.088,9.381-2.403,13.713-2.792
		c3.861-0.346,6.372-1.288,7.448-5.439c0.515-1.99,2.636-3.733,3.567,0.084c0.806,3.309,2.819,3.881,5.252,2.339
		c2.402-1.522,4.633-2.149,6.171,0.434c1.688,2.833,1.816,6.135-1.316,8.228c-1.859,1.242-4.204,2.221-6.405,2.393
		c-4.704,0.374-9.458,0.075-14.188,0.187c-3.528,0.081-7.881-1.482-8.969,4.191c-0.077,0.412-2.197,0.399-3.354,0.646
		c-3.289,0.702-7.341,0.493-9.66,2.394c-2.916,2.391-5.575,1.801-6.914,0.033c-1.374-1.809-1.934-5.422-1.075-7.517
		c2.676-6.525,6.041-12.785,9.424-18.991c3.788-6.952,7.807-13.784,11.901-20.561c1.219-2.021,3.819-4.113,0.757-5.884
		c-1.947-1.127-4.933-0.65-7.434-0.516c-0.775,0.043-1.549,1.27-2.211,2.052c-1.71,2.015-2.645,0.991-3.668-0.729
		c-3.513-5.904-1.598-13.471,4.804-15.062c7.558-1.879,15.448-2.813,23.245-3.214c5.612-0.29,8.167,3.04,10.167,9.703
		c1.551,5.164,0.025,8.042-4.816,10.72c-2.854,1.578-4.883,5.52-6.195,8.832c-2.914,7.349-6.428,14.157-12.822,19.047
		C86.213,52.754,86.154,52.677,84.591,57.742z"/>
	<path fill-rule="evenodd" clip-rule="evenodd" d="M290.793,35.762c-7.482,6.499-10.503,6.319-14.394-1.72
		c-2.015-4.165-2.827-8.93-3.976-13.474c-0.18-0.712,0.563-2.189,1.209-2.431c0.644-0.243,2.383,0.5,2.477,1.02
		c0.821,4.586,4.511,9.481,7.396,9.273c5.647-0.409,6.805-6.881,8.18-11.703c0.991-3.475,0.856-7.258,1.412-10.874
		c0.125-0.813,0.939-1.982,1.609-2.113c0.663-0.133,2.053,0.694,2.243,1.352c0.934,3.241,1.999,6.534,2.239,9.864
		c0.834,11.553,1.793,23.127,1.855,34.695c0.065,12.187-0.809,24.378-1.366,36.561c-0.077,1.675-0.488,3.422-1.166,4.947
		c-0.334,0.752-1.835,1.672-2.451,1.463c-1.122-0.381-2.09-1.453-2.895-2.425c-0.355-0.429-0.283-1.343-0.177-2
		C295.879,70.567,288.441,53.432,290.793,35.762z"/>
	<path fill-rule="evenodd" clip-rule="evenodd" d="M164.387,34.165c0.658,6.135,1.32,11.132,1.694,16.147
		c0.295,3.961,0.592,7.991,0.124,11.899c-0.143,1.194-2.751,2.79-4.335,2.917c-1.606,0.129-4.408-0.956-4.824-2.157
		c-1.311-3.769-1.92-7.819-2.479-11.805c-1.237-8.843-2.233-17.717-3.424-26.567c-0.479-3.563,0.496-5.034,4.432-4.51
		c3.767,0.5,7.658,0.559,11.451,0.254c7.746-0.624,8.263-0.351,9.588,7.967c0.318,2,0.707,4.002,0.811,6.017
		c0.16,3.082-1.321,5.259-4.308,6.103c-3.083,0.872-4.053-1.517-5.281-3.61C167.382,36.046,166.332,35.622,164.387,34.165z"/>
	<path fill-rule="evenodd" clip-rule="evenodd" d="M149.998,64.638c-5.876,1.666-8.034-0.346-8.038-5.894
		c-0.003-2.646-0.791-4.366-4.149-1.37c-2.834,2.529-7.87,2.245-10.658-0.337c-2.111-1.956-3.348-6.042-3.141-9.053
		c0.345-4.967,3.786-10.117,2.985-14.673c-1.132-6.447,1.33-8.342,6.491-9.217c4.325-0.732,10.906,2.667,12.449,7.333
		c1.547,4.685,3.745,9.271,2.575,14.784C147.221,52.287,145.663,58.733,149.998,64.638z M134.668,30.781
		c-1.299,3.676-2.699,7.064-3.634,10.575c-0.372,1.402-0.141,3.336,0.601,4.552c0.702,1.154,2.353,2.034,3.733,2.327
		c0.519,0.109,1.912-1.69,2.129-2.775C138.509,40.407,138.593,35.422,134.668,30.781z"/>
	<path fill-rule="evenodd" clip-rule="evenodd" d="M237.178,19.862c3.741,0.886,7.492,2.994,10.038-2.442
		c1.91-4.08,5.298-3.049,8.245-0.789c1.63,1.247,3.759,2.451,4.479,4.169c2.987,7.138,5.611,14.435,8.119,21.758
		c0.3,0.873-0.925,2.267-1.442,3.418c-1.101-0.597-2.723-0.921-3.204-1.843c-1.402-2.681-2.412-5.577-3.455-8.432
		c-0.813-2.227-1.155-4.677-2.268-6.723c-0.663-1.217-2.315-2.202-3.712-2.561c-0.568-0.145-1.952,1.51-2.407,2.581
		c-0.904,2.145-1.577,4.418-2.063,6.698c-0.856,4.016-1.284,8.131-2.31,12.097c-0.622,2.399-2.318,3.224-4.479,1.115
		c-2.345-2.286-3.814-4.817-2.936-8.248c1.132-4.403,1.45-8.301-2.222-12.266c-1.479-1.597-0.242-5.715-0.238-8.686L237.178,19.862z
		"/>
	<path fill-rule="evenodd" clip-rule="evenodd" d="M204.191,38.769c0.068,7.03-6.047,14.771-10.85,15.913
		c-4.323,1.031-8.131-1.407-10.093-5.864c-2.691-6.108-3.857-12.043-0.071-18.148c0.686-1.104,1.148-2.571,1.111-3.851
		c-0.062-2.088-2.787-5.073,0.893-5.806c3.041-0.602,8.007-0.633,9.38,1.171C198.788,27.731,201.698,34.277,204.191,38.769z
		 M193.864,38.401c-0.918-0.927-2.204-2.23-3.494-3.534c-0.82,1.068-1.737,2.077-2.41,3.231c-0.296,0.505-0.041,1.31-0.123,1.967
		c-0.328,2.652-3.737,5.902,0.709,7.474c0.805,0.284,3.294-4.048,4.902-6.324C193.785,40.737,193.66,39.93,193.864,38.401z"/>
	<path fill-rule="evenodd" clip-rule="evenodd" d="M237.323,19.709c-4.776-0.674-6.572,1.674-7.183,6.213
		c-1.023,7.603-4.582,13.814-11.306,18.015c-3.842,2.402-6.994,2.054-9.457-1.435c-3.426-4.856-3.692-17.463-0.271-22.441
		c0.315-0.458,2.87-0.197,2.967,0.142c1.225,4.218,2.188,8.51,3.503,13.959c2.639-4.722,4.638-9.011,7.314-12.819
		c1.666-2.371,4.065-4.666,6.658-5.833c3.845-1.731,7.295-0.964,7.628,4.351L237.323,19.709z"/>
</g>
</svg>
