<?xml version="1.0" encoding="utf-8"?>
<!-- Generator: Adobe Illustrator 16.0.0, SVG Export Plug-In . SVG Version: 6.00 Build 0)  -->
<!DOCTYPE svg PUBLIC "-//W3C//DTD SVG 1.1//EN" "http://www.w3.org/Graphics/SVG/1.1/DTD/svg11.dtd">
<svg version="1.1" id="Layer_1" xmlns="http://www.w3.org/2000/svg" xmlns:xlink="http://www.w3.org/1999/xlink" x="0px" y="0px"
	 width="300px" height="100px" viewBox="0 0 300 100" enable-background="new 0 0 300 100" xml:space="preserve">
<g>
	<path fill-rule="evenodd" clip-rule="evenodd" d="M72.832,22.647c2.217,11.442,4.491,22.867,6.622,34.321
		c1.298,6.969,2.457,13.965,3.491,20.975c0.567,3.836,2.313,6.623,6.362,6.333c11.349-0.804,22.661-2.208,32.089-9.423
		c7.271-5.562,7.438-12.449-0.115-17.339c-3.986-2.578-9.167-3.742-13.971-4.511c-4.928-0.783-10.094,0.05-15.09-0.471
		c-5.803-0.605-7.651-5.463-3.634-9.807c1.813-1.956,4.834-2.973,7.479-3.945c5.507-2.022,11.337-3.274,16.654-5.679
		c7.341-3.324,7.989-8.529,1.496-13.28c-3.181-2.328-7.528-3.37-11.513-4.198c-3.223-0.674-6.832,0.419-10.01-0.351
		c-2.402-0.584-5.29-2.453-6.263-4.542c-0.661-1.416,1.028-5.31,2.685-6.198c10.169-5.467,21.3-6.102,31.47-1.29
		c9.054,4.282,15.407,12.133,13.826,23.249c-0.745,5.229-4.746,10.33-4.394,15.282c0.318,4.46,5.518,8.357,6.916,12.997
		c4.26,14.152-0.518,24.751-14.153,30.749c-7.595,3.338-15.842,5.311-23.92,7.416c-8.906,2.326-18.002,3.925-26.925,6.194
		c-4.687,1.195-6.054-0.437-6.075-4.889c-0.036-7.893,0.103-15.846-0.869-23.643c-0.471-3.765-2.585-9.556-5.207-10.363
		c-5.487-1.694-7.319,4.399-9.11,8.369c-3.263,7.228-5.605,14.873-8.855,22.108c-1.232,2.74-3.529,5.717-6.101,6.819
		c-1.2,0.514-5.189-2.755-6.185-5.055c-2.107-4.876-3.328-10.186-4.45-15.417c-1.135-5.305-1.248-10.865-2.748-16.042
		c-0.663-2.281-3.648-3.889-5.577-5.805c-1.452,1.883-3.667,3.568-4.219,5.687c-1.68,6.468-2.617,13.126-4.043,19.665
		c-1.272,5.832-0.89,12.492-7.333,15.976C0.777,90.81-0.424,84.994,0.155,79.363c1.763-17.097,3.491-34.225,9.549-50.578
		c2.317-6.267,3.377-12.989,5.244-19.438c0.679-2.34,1.511-5.16,3.244-6.521c1.682-1.32,4.967-1.952,6.886-1.199
		c1.706,0.668,3.773,3.836,3.512,5.574c-2.731,18.188,4.604,35.296,5.349,53.067c0.034,0.824,0.102,1.82,0.559,2.424
		c1.19,1.58,2.528,4.073,3.95,4.171c1.517,0.106,4.198-1.823,4.64-3.362c2.766-9.611,6.353-19.245,7.181-29.085
		c1.294-15.396,6.203-24.097,20.029-29.163c0.753-0.276,3.07,1.217,3.156,2.038c0.513,4.997,0.588,10.034,0.811,15.063
		C73.786,22.452,73.311,22.551,72.832,22.647z"/>
</g>
</svg>
