<?xml version="1.0" encoding="utf-8"?>
<!-- Generator: Adobe Illustrator 16.0.0, SVG Export Plug-In . SVG Version: 6.00 Build 0)  -->
<!DOCTYPE svg PUBLIC "-//W3C//DTD SVG 1.1//EN" "http://www.w3.org/Graphics/SVG/1.1/DTD/svg11.dtd">
<svg version="1.1" id="Layer_1" xmlns="http://www.w3.org/2000/svg" xmlns:xlink="http://www.w3.org/1999/xlink" x="0px" y="0px"
	 width="300px" height="100px" viewBox="0 0 300 100" enable-background="new 0 0 300 100" xml:space="preserve">
<g>
	<path fill-rule="evenodd" clip-rule="evenodd" d="M10.439,73.722c0.78-1.647,0.27-2.346-1.535-2.101
		c-2.976-0.581-1.573-2.353-1.279-4.93c0.428-3.821,0.859-7.641,1.289-11.462c-0.543-2.05,0.078-2.831,1.854-2.34
		c0.269-2.371,0.536-4.738,0.803-7.107c0.266-2.36,0.532-4.722,0.8-7.083c0.513-4.572,0.345-1.051-1.091-3.063
		c-1.57-2.208,1.81-3.248,1.991-4.88c0.451-3.994-1.243-3.662-0.795-7.649c-2.609-0.411-1.191-2.284-1.646-3.97
		c-4.171-1.133,0.332-5.497,2.54-5.351c-0.28,2.502-1.695,5.173,1.031,5.981c0.098,2.759,3.179,1.988,5.585,2.261
		c0.301-2.667-0.553-5.341,2.498-5.458c0.136-1.199,0.272-2.396,0.406-3.594c0.396-3.505,1.474-0.339,2.351-3.417
		c1.171,0.133,2.345,0.266,3.515,0.397c-0.564,1.651,0.032,2.273,1.797,1.865c1.215,0.137,2.437,0.273,3.657,0.412
		c0.501-2.536,1.494-1.627,3.793-1.558c-0.063-1.653,0.723-2.17,2.352-1.552c0.133-1.164,0.261-2.332,0.395-3.496
		c1.216,0.138,2.432,0.272,3.647,0.411c-0.011,2.512,1.08,1.886,3.28,2.348c-0.354,1.515,0.267,2.168,1.864,1.959
		c-0.598,1.608-0.057,2.296,1.619,2.064c-0.015,2.707,1.736,2.438,1.339,5.803c-0.779,1.651-0.242,2.351,1.613,2.097
		c-0.176,1.544-0.348,3.087-0.523,4.632c-0.435,3.855-0.87,7.711-1.303,11.567c-0.349,3.091-0.696,6.181-1.043,9.27
		c-1.002,1.966-0.516,2.868,1.464,2.709c-0.253,2.256,0.547,3.482-2.069,3.458c-0.133,1.179-0.264,2.356-0.396,3.535
		c-1.695-0.613-2.36-0.062-1.992,1.652c-0.169,1.525,3.704,5.763-0.6,5.932c-0.401,2.299,1.525,1.748,1.139,4.229
		c0.332,1.361-0.301,1.751-1.896,1.178c-0.536,2.589-1.671,1.498-3.986,1.236c0.349-3.11,0.701-6.219,1.051-9.328
		c0.176-1.565,0.351-3.132,0.53-4.697c0.495-4.398-1.676-0.82-1.249-4.601c-0.419-1.766,0.197-2.381,1.848-1.841
		c0.132-1.168,0.266-2.333,0.394-3.5c0.786-1.636,0.284-2.374-1.502-2.211c0.251-2.258,0.505-4.514,0.762-6.77
		c0.95-1.826,0.491-2.783-1.378-2.876c0.064-1.165,0.125-2.329,0.189-3.491c0.666-1.531,0.207-2.313-1.381-2.347
		c0.093-2.273,0.494-2.64-0.969-3.859c-1.17-0.975-0.202-4.119-0.068-5.307c0.752-1.562,0.254-2.322-1.492-2.282
		c0.063-2.655-1.25-1.839-3.554-2.099c0.188,1.673-0.489,2.244-2.041,1.712c-0.133,1.178-0.265,2.354-0.398,3.535
		c3.003,0.7,0.91,6.96,0.594,9.758c-0.258,2.281-1.431,5.974,0.043,7.439c1.776,1.789-0.832,1.192-1.024,2.799
		c-0.817,6.857-1.586,13.721-2.354,20.584c-0.327,2.894,1.396,3.334,1.025,6.644c-0.128,1.137-0.257,2.274-0.388,3.409
		c-2.787-0.076-1.951,1.062-2.223,3.484c-1.226-0.138-2.45-0.276-3.676-0.415c0.617-5.473,1.233-10.943,1.85-16.415
		c-2.939-0.909-1.516-3.355-1.209-6.071c0.342-3.019-1.754-1.34-1.424-4.014c0.269-2.164,0.515-4.329,0.754-6.496
		c0.299-2.698,1.452-4.169-1.436-4.768c0.279-2.457,0.555-4.913,0.833-7.37c-1.67,0.187-2.244-0.525-1.725-2.135
		c-1.255-0.142-2.511-0.283-3.766-0.425c-0.529,4.657-2.286,5.286-2.763,9.531c-0.316,2.79-0.633,5.581-0.946,8.374
		c-0.893,1.765-0.411,2.653,1.443,2.664c-0.134,1.196-0.271,2.391-0.403,3.585c-0.27,2.388-1.361,3.439,1.314,4.073
		c-0.313,2.759-0.622,5.516-0.932,8.276c-0.295,2.602,0.567,6.327-2.476,6.243c-3.033-0.083-2.166,2.823-2.459,5.435
		C11.681,73.861,11.062,73.791,10.439,73.722C10.503,73.16,11.062,73.791,10.439,73.722z"/>
	<path fill-rule="evenodd" clip-rule="evenodd" d="M300.369,76.247c-1.824-0.204-3.648-0.411-5.471-0.615
		c-3.71-0.42-0.435,1.725-4,1.323c-2.615-0.295-2.534-1.911-0.001-1.88c0.54-3.369-1.661-0.209-1.303-4.284
		c0.12-1.416-1.552-1.51-1.453-2.429c0.097-0.89,2.153-1.104,1.632-2.06c-0.618-1.133-0.968-1.394-1.342-2.665
		c-2.549-0.503-1.475-1.593-1.224-3.83c4.387,0,0.37-4.036,0.42-5.631c-4.555-1.515,0.857-3.321,0.604-5.166
		c-0.164-1.204-1.421-0.943-1.404-2.521c0.03-2.012,0.527-2.784-0.771-4.389c-1.504-1.858,0.654-1.453-2.553-1.792
		c-1.215-0.127-3.782,0.078-4.673-0.95c-0.898-1.036-1.445-1.447-2.854-1.591c-2.806-0.29-0.123-1.666-3.054-2.329
		c0.061-3.099-1.615-0.739-1.582-3.793c-2.393-0.755-0.779-1.375-2.463-2.441c-1.626-1.043,0.868-2.026,1.036-3.191
		c0.476-3.451,1.411-5.78-0.287-8.406c-0.607-0.941,0.076-2.142-0.062-3.147c3.665,0.1,0.279-1.955,4.017-1.534
		c3.759,0.424,0.293,0.985,2.585,2.032c0.845,0.387,1.9,0.1,2.68,0.661c-0.528,4.708-1.061,9.414-1.593,14.123
		c-0.48,4.284,1.329,0.879,1.476,4.364c1.524,0.172,6.326,1.463,7.395,0.376c-0.53-0.881-2.077-2.445-0.569-3.083
		c1.769-0.748,1.22-3.208,1.604-5.253c0.34-1.775,1.943-2.211,1.404-3.824c-0.284-0.199-0.602-0.315-0.95-0.35
		c0.204-1.803,0.41-3.604,0.61-5.407c3.446,0.387,6.675,0.321,6.956,4.376c0.089,1.24-0.512,2.515-0.102,3.744
		c2.425,0.56,1.447,1.764,1.307,3.949c2.138-0.711,1.102,6.58,1.013,7.573c-0.11,1.214,0.185,2.083,1.578,2.175
		c-0.333,2.945-0.665,5.893-0.996,8.838c-0.324,2.855,2.269,4.774,2.513,7.837c0.099,1.213-0.049,2.465-1.642,2.364
		c-0.128,1.118-0.253,2.234-0.378,3.351c1.872,0.057,2.292,0.981,1.259,2.771c-0.41,2.491-1.921,2.708-2.076,4.642
		c1.599,0.458,1.4,1.646,1.4,2.945c-0.113,1.145,0.465,1.61,1.731,1.396C300.646,73.767,300.509,75.007,300.369,76.247
		C297.953,75.974,300.509,75.007,300.369,76.247z M293.686,69.883c-0.315,2.781,3.669,3.2,3.167,0.356
		C295.797,70.121,294.74,70.004,293.686,69.883C293.605,70.586,294.207,69.941,293.686,69.883z"/>
	<path fill-rule="evenodd" clip-rule="evenodd" d="M0.377,29.245c4.085,0.461,0.152-3.316,4.029-3.385
		c-0.229-1.664,0.463-2.229,2.066-1.689c-0.2-1.766,0.504-2.315,2.114-1.65c-0.138,1.231-0.277,2.461-0.418,3.693
		c-1.593-0.491-2.271,0.093-2.032,1.75c-2.973-0.086-2.123,2.664-2.413,5.228c-1.711,0.385-2.282-0.24-1.711-1.876
		C0.091,31.721-0.454,31.031,0.377,29.245C0.938,29.309,0.307,29.865,0.377,29.245z"/>
	<path fill-rule="evenodd" clip-rule="evenodd" d="M299.738,81.83c-1.907,0.387-2.427-0.331-1.559-2.159
		C300.041,79.381,300.561,80.1,299.738,81.83C299.183,81.768,299.809,81.21,299.738,81.83z"/>
	<path fill-rule="evenodd" clip-rule="evenodd" d="M70.054,46.551c-0.382-1.729,0.272-2.311,1.968-1.743
		c0.123-1.122,0.254-2.244,0.379-3.367c-4.085-1.544,0.191-1.643,0.422-3.147c0.219-1.431,0.223-2.698,2.125-2.522
		c-0.301-1.786,0.392-2.384,2.076-1.79c0.14-1.24,0.278-2.477,0.419-3.717c2.122,0.394,3.642-0.256,3.549,2.202
		c-2.713,0.078-1.894,1.415-2.163,3.792c3.305,0.375,0.429-1.515,3.798-1.621c0.126-1.137,0.255-2.273,0.383-3.412
		c1.327,0.499,2.023,0.157,2.092-1.026c0.496-2.721,4.361-7.439,1.022-8.372c0.213-1.864,0.461-3.723,0.616-5.592
		c0.2-2.403,1.749-0.425,2.075-3.296c-4.08-1.133,0.087-1.686,0.283-2.812c0.185-1.063-2.195-2.23-1.427-2.999
		c-2.475-0.285-2.585,1.382-5.706,1.188C78.493,8.1,81.492,9.99,78.066,9.774c-3.764-0.24-0.213,1.79-4.382,1.318
		c-2.708-0.304-8.912,0.358-8.729-2.674c3.337-0.067,0.467-1.855,3.84-1.627c3.61,0.245,0.396-1.83,3.91-1.431
		c1.208,0.135,2.41,0.271,3.618,0.408c0.524-2.915-0.391-3.782,3.016-3.399c2.748,0.31,4.446,1.699,5.313-1.335
		c1.827,0.207,3.655,0.413,5.481,0.619c0.27-3.049,7.168-0.981,9.007-0.805c2.222,0.211,4.445,0.415,6.669,0.63
		c2.707,0.267-0.068,1.632,2.843,2.431c-0.136,1.189-0.27,2.377-0.402,3.563c-0.398,3.537-1.685,0.175-2.071,3.611
		c-0.283,2.51,0.573,3.564-2.319,3.524c-0.638,3.393-1.624-0.04-2.419,3.329c-2.601-0.037-1.926,1.119-2.355,3.393
		c-3.261,0.014-0.344,1.832-3.662,1.793c-0.405,2.312,0.312,3.482-2.354,3.431c-0.274,2.472,0.589,3.625-2.285,3.531
		c-0.132,1.171-0.263,2.341-0.396,3.51c-2.759,0.042-2.012,1.047-2.393,3.472c-0.527,3.353-1.654,0.261-2.25,3.545
		c-0.577,3.192-1.578,0.449-2.335,3.553c-2.629-0.012-1.831,1.228-2.09,3.527c-2.813-0.012-2.068,0.987-2.486,3.454
		c-2.564,0-1.367,0.718-3.262,2.211c-1.791,1.41-2.205,0.988-4.427,0.739c0.134-1.195,0.269-2.391,0.405-3.588
		c0.413-3.685,1.703,0.036,2.113-3.584C74.248,46.99,69.314,46.489,70.054,46.551z M74.709,39.34
		c2.305,0.627,2.767-1.257,0.175-1.546C74.829,38.311,74.768,38.826,74.709,39.34C76.663,39.873,74.771,38.798,74.709,39.34z"/>
	<path fill-rule="evenodd" clip-rule="evenodd" d="M111.949,24.91c3.57,0.103,0.528-1.618,3.875-1.756
		c0.313-1.707,0.624-3.414,0.938-5.122c0.204-0.008,5.275-1.646,5.578-2.116c1.765-2.76,5.334,0.839,5.351,3.162
		c0.023,2.655,1.145,1.948,3.472,2.358c0.028,2.691,1.2,1.883,3.562,2.15c0.121,3.324,1.67,0.619,1.412,4.215
		c-0.087,1.237-0.703,3.6,0.086,4.706c1.041,1.454,0.992,2.38,0.781,4.173c-0.428,3.656,1.136,1.145,1.319,4.146
		c0.122,2.033,0.358,3.569-2.075,3.559c-1.98-0.01-1.777-0.451-2.138,1.729c-0.175,1.048-2.545,3.177-2.311,3.536
		c-3.99-0.451-0.567-0.914-1.941-3.382c-0.924-0.684-1.956-1.126-3.098-1.323c0.159-1.413,0.317-2.825,0.478-4.238
		c0.186-1.645,1.408-4.127-0.512-4.678c-2.813-0.807,1.744-3.55-2.354-4.006c-0.532,4.699,0.898,12.714-5.186,12.634
		c-0.211,1.674-1.303,1.542-2.584,1.43c-1.671-0.146-1.204,1.128-1.724,2.296c-0.844,1.898-3.986,0.853-5.504,0.686
		c0.275-2.446,0.552-4.892,0.828-7.339c-2.441-0.696-2.367-3.809,0.248-4.042c0.203-1.806-3.629-3.538,0.475-3.722
		C111.265,30.948,111.607,27.929,111.949,24.91C112.735,24.933,111.597,28.019,111.949,24.91z M116.11,40.55
		c-0.677,1.461-0.229,2.024,1.343,1.691C118.132,40.779,117.684,40.214,116.11,40.55C116.043,41.141,116.671,40.612,116.11,40.55z"
		/>
	<path fill-rule="evenodd" clip-rule="evenodd" d="M146.007,22.96c0.426-2.495-0.236-5.338,2.661-5.228
		c1.596,0.635,2.315,0.107,2.155-1.584c1.464,0.164,2.927,0.33,4.392,0.495c4.04,0.455,4.482-0.093,4.584,4.01
		c3.389,0.868,0.913,5.761-0.623,2.885c-1.076-2.032-1.422,0.164-2.365,0.467c-1.803,0.579-5-0.43-6.851-0.641
		c-0.449,1.993-4.615,3.047-0.645,3.816c3.158,0.609,1.353,4.842,1.035,7.663c1.268,0.144,2.53,0.285,3.798,0.428
		c-0.115-1.65,0.586-2.186,2.106-1.601c3.747,0.128,0.589-4.509,4.721-3.127c0.546,0.182,1.628,2.272,2.385,1.562
		c0.423-0.491,0.651-1.075,0.683-1.75c0.529-2.268,1.918-1.198,3.938-0.969c-0.272,2.418-0.544,4.835-0.817,7.252
		c-2.334-0.033-3.3,3.452-1.512,5.175c1.204,1.161,2.462,2.671,2.419,4.385c1.083,0.207,2.166,0.413,3.247,0.618
		c0.073,1.237-0.471,3.292,0.924,3.654c1.887,0.489,0.636,4.543-0.652,5.471c-0.699,0.495-1.392,1.004-2.066,1.533
		c-1.163-0.018-1.004-2.8-2.354-1.954c-0.204-4.163-3.724,0.148-3.575-4.049c-2.467-0.193-1.289-4.271-1.282-5.829
		c0.015-3.167-2.401-1.133-3.479-3.589c-1.076-2.443-3.368,0.919-3.306-2.84c-1.089,0.051-6.029,0.107-3.435,2.849
		c1.809,1.912,0.636,5.229,0.318,8.048c-1.598-0.179-3.197-0.359-4.793-0.539c-3.457-0.391-2.376-0.936-2.197-3.91
		c0.196-3.322-1.532-0.727-1.316-4.03c0.143-2.218,1.088-3.355-1.291-4.086c0.369-3.267,1.958-5.146,2.227-7.96
		c0.107-1.187-1.259-1.41-1.07-3.079C144.221,24.286,143.468,23.133,146.007,22.96C146.303,21.219,145.431,23,146.007,22.96z"/>
	<path fill-rule="evenodd" clip-rule="evenodd" d="M182.828,49.81c-0.547,2.653-1.471,1.608-3.834,1.34
		c0.051-2.335,0.947-3.327-1.594-3.935c0.09-3.207-1.759-0.504-1.547-3.78c0.219-3.371-1.525-0.604-1.458-3.918
		c0.07-3.526-1.65-0.527-1.212-4.433c0.249-2.202,0.498-4.401,0.744-6.603c0.392-3.462,1.709-1.171,1.992-3.773
		c0.209-1.859,0.419-3.717,0.63-5.573c0.275-2.434,0.141-1.883,2.126-1.911c0.631-2.595,1.692-1.523,4.021-1.262
		c0.211,4.939,8.8-0.403,9.024,4.562c2.455,0.581,6.499,7.466,6.326,10.172c-0.222,3.41,1.552,0.777,1.341,4.023
		c-0.228,3.543-1.509,0.131-2.128,2.685c-0.252,1.038-0.042,2.14-0.438,3.154c-0.659,1.698-1.685,0.969-2.082,3.026
		c-0.474,2.448-1.206,2.271-2.565,0.43c-1.416-1.916-1.331,0.142-0.966-3.113c0.245-2.196,0.495-4.392,0.745-6.589
		c0.458-4.07-1.384-0.8-1.337-4.307c0.047-3.333-1.672-0.638-1.579-3.846c-3.125-0.796-0.23-1.785-3.22-2.394
		c-0.956,3.487-1.93-0.061-2.372,3.88c-0.242,2.133-0.483,4.265-0.723,6.397c-0.423,3.763,1.579,1.196,1.199,4.575
		c-0.27,2.374-1.375,3.435,1.323,3.99c0.09,3.189,1.543,0.665,1.754,3.793c2.537,0.553,1.44,1.745,1.185,4.012
		C186.399,50.212,184.614,50.011,182.828,49.81C182.679,50.531,184.663,50.017,182.828,49.81z"/>
	<path fill-rule="evenodd" clip-rule="evenodd" d="M255.773,37.244c-3.035-0.148-1.257-5.805-1.083-7.625
		c0.301-3.403-0.188-0.64-1.714-2.346c-0.016-0.018-1.208-2.553-1.621-0.636c-0.369,1.712-1.504-0.361-2.285,2.042
		c-0.449,1.38-1.032,1.896-2.503,1.904c-3.852,0.022-0.423,6.859-2.79,8.974c-0.207,0.188-2.108,1.377-2.449,1.539
		c-1.832,0.869-1.311,1.368-1.596,3.762c-0.077,0.621-0.128,3.017-0.897,3.505c-2.029,1.291-3.157-0.388-2.972-2.032
		c0.266-2.372,1.326-3.38-1.288-4.054c0.162-2.462,1.408-5.089-1.258-5.863c0.411-3.627-0.23-9.346,2.763-11.745
		c-1.077-1.204-1.43-1.254-1.235-2.977c0.13-1.154,0.262-2.308,0.392-3.461c1.117-0.413,1.679-0.138,1.693,0.824
		c-0.009,0.873-0.936,2.397,0.173,2.982c0.922,0.485,1.637,2.977,2.975,1.992c1.323-0.971,0.371-1.558,2.549-1.291
		c1.839,0.227,2.23,4.269,3.458,0.258c1.188,0.133,2.37,0.266,3.555,0.402c-0.231-1.684,0.459-2.271,2.068-1.76
		c0.604-2.715,3.417-1.268,5.824-0.999c-0.276,2.439-1.297,3.243,1.416,3.931c0.169,3.144,1.844,0.562,1.478,3.813
		c-0.367,3.248,1.464,0.881,1.354,4.108c-0.039,1.195-0.08,2.393-0.122,3.59c0.933,0.006,1.408,0.456,1.429,1.34
		c0.097,1.866-0.258,3.839-0.486,5.681c0.533,2.156-0.141,2.944-2.021,2.361c0.132,1.719-0.58,2.206-2.137,1.461
		c-2.873-0.323-1.75-1.27-1.472-3.723c0.796-1.691,0.26-2.436-1.617-2.239C255.494,39.721,255.633,38.484,255.773,37.244
		C254.353,37.174,255.616,38.636,255.773,37.244z M238.546,30.124c0.719-1.123,1.073-1.003,0.156-2.137
		C237.785,28.922,238.141,28.972,238.546,30.124C239.003,29.411,238.267,29.333,238.546,30.124z"/>
	<path fill-rule="evenodd" clip-rule="evenodd" d="M227.604,19.113c-0.59,1.474-0.099,2.193,1.474,2.154
		c-0.199,1.762-0.399,3.521-0.596,5.283c-1.543-0.487-2.197,0.1-1.966,1.755c-2.423,0.168-1.83,1.23-2.264,3.393
		c-4.146,0.367-0.593,5.036-3.195,6.954c-0.864,0.636-2.139-0.238-2.97,0.585c-1.256,1.244-0.942,0.89-2.943,1.361
		c-2.388,0.567-0.467,3.017-3.321,3.224c-0.432,1.702-2.886,2.527-3.575,0.397c-0.227-0.908-0.344-1.829-0.358-2.764
		c-0.919-0.214-1.982-0.097-2.7-0.826c-1.112-1.123-2.09-4.431-2.027-5.403c0.71-1.659,0.179-2.412-1.597-2.256
		c0.275-2.416,0.547-4.831,0.819-7.245c-1.834,0.235-2.354-0.48-1.566-2.149c0.377-3.352,1.268-0.472,2.308-3.374
		c1.519-0.382,2.045,0.236,1.58,1.854c3.268,0.676,0.133,1.632,3.358,2.442c-0.023,3.07,1.571,0.65,1.768,3.714
		c3.487,0.793-0.407,1.917,3.938,2.408c3.308,0.375,3.144-0.162,3.476-3.137c-4.083-0.898,0.49-3.911,2.202-3.717
		c1.677,0.786,2.329,0.29,1.959-1.49c-2.468-0.555-1.39-1.743-1.142-3.935c2.274,0.114,3.342,1.054,3.951-1.42
		C227.338,17.273,224.369,18.395,227.604,19.113C227.584,19.75,226.959,18.97,227.604,19.113z"/>
	<path fill-rule="evenodd" clip-rule="evenodd" d="M69.101,53.955c-0.273,2.422,0.614,3.791-2.222,3.472
		c-2.528-0.286-5.535,0.576-5.345-2.397c1.217,0.137,2.436,0.275,3.651,0.411C68.873,55.857,65.563,53.724,69.101,53.955
		C68.949,55.275,68.447,53.914,69.101,53.955z"/>
	<path fill-rule="evenodd" clip-rule="evenodd" d="M150.332,51.913c-0.289,2.55-1.956,2.419-1.797-0.204
		C149.134,51.778,149.732,51.844,150.332,51.913C150.264,52.511,149.669,51.837,150.332,51.913z"/>
	<path fill-rule="evenodd" clip-rule="evenodd" d="M70.024,46.517c-0.071,0.625-0.142,1.254-0.211,1.881
		c-1.885,0.382-2.397-0.33-1.54-2.135C69.86,46.916,70.446,47,70.024,46.517z"/>
	<path fill-rule="evenodd" clip-rule="evenodd" d="M64.576,53.886c-0.637-1.224-1.012-1.13,0.127-2.198
		C65.579,52.739,65.351,52.736,64.576,53.886C64.206,53.176,65.019,53.227,64.576,53.886z"/>
	<path fill-rule="evenodd" clip-rule="evenodd" d="M294.182,81.132c2.271,0.805,2.406,1.687-0.104,2.014
		C294.112,82.475,294.146,81.803,294.182,81.132C294.93,81.396,294.139,81.965,294.182,81.132z"/>
</g>
</svg>
