<?xml version="1.0" encoding="utf-8"?>
<!-- Generator: Adobe Illustrator 16.0.0, SVG Export Plug-In . SVG Version: 6.00 Build 0)  -->
<!DOCTYPE svg PUBLIC "-//W3C//DTD SVG 1.1//EN" "http://www.w3.org/Graphics/SVG/1.1/DTD/svg11.dtd">
<svg version="1.1" id="Layer_1" xmlns="http://www.w3.org/2000/svg" xmlns:xlink="http://www.w3.org/1999/xlink" x="0px" y="0px"
	 width="300px" height="100px" viewBox="0 0 300 100" enable-background="new 0 0 300 100" xml:space="preserve">
<g>
	<path fill-rule="evenodd" clip-rule="evenodd" fill="none" d="M39.611,60.245c0.004,0,0.01,0,0.015,0c0,2.011-0.001,4.02,0,6.03
		c0.003,2.344-0.022,4.689,0.024,7.032c0.039,1.891,1.121,3.142,2.779,3.829c1.566,0.65,2.446-0.661,3.429-1.496
		c0.501-0.429,0.813-1.072,1.299-1.523c1.784-1.657,3.417-3.568,5.448-4.847c4.056-2.552,8.366-4.698,12.501-7.127
		c1.313-0.773,2.774-1.689,3.533-2.928c2.196-3.58,2.956-7.439,1.013-11.473c-1.018-2.11-1.999-4.24-2.963-6.375
		c-1.02-2.265-1.072-4.535,0.092-6.774c0.514-0.991,1.078-1.955,1.58-2.952c1.895-3.753,1.457-7.432-0.86-10.752
		c-2.049-2.936-8.082-4.773-11.245-3.7c-0.82,0.278-1.6,0.809-2.262,1.381c-1.928,1.664-1.946,3.063-0.213,4.986
		c2.419,2.683,4.235,5.55,2.612,9.361c-2.249,5.28-1.262,9.832,2.502,14.198c2.984,3.462,2.748,5.497-0.644,8.692
		c-2.501,2.355-5.382,4.332-8.205,6.315c-2.147,1.512-3.369,0.916-3.425-1.699c-0.066-3.115-0.053-6.267,0.343-9.348
		C47.7,45.335,49,39.659,49.567,33.906c0.502-5.091,0.372-10.249,0.429-15.378c0.025-2.354-1.477-3.511-3.584-4.249
		c-2.158-0.755-3.067,0.742-4.124,1.99c-0.718,0.845-1.398,1.766-1.894,2.754c-2.05,4.083-4.008,8.212-6.029,12.31
		c-0.687,1.394-1.282,2.886-2.238,4.078c-1.149,1.436-2.645,1.327-3.585-0.207c-2.05-3.342-3.686-6.838-4.038-10.868
		c-0.269-3.093-0.611-6.242-1.486-9.2c-1.159-3.935-2.669-7.801-4.405-11.52C17.392,1,14.853-0.374,11.971,0.088
		C9.015,0.564,6.935,2.325,6.584,5.63c-0.448,4.204-1.068,8.392-1.496,12.595C4.492,24.102,4.027,29.992,3.46,35.87
		c-0.8,8.314-1.656,16.623-2.463,24.936c-0.386,3.994-0.868,7.988-0.995,11.99c-0.045,1.436,0.595,3.037,1.345,4.318
		c0.995,1.703,2.892,1.4,4.56,1.261c1.606-0.135,1.75-1.478,2.053-2.668c0.109-0.431,0.265-0.853,0.358-1.287
		c2.284-10.459,3.724-21.045,4.862-31.68c0.368-3.43,0.939-6.848,1.637-10.226c0.248-1.201,1.176-3.238,1.744-3.222
		c1.833,0.057,1.741,2.077,1.871,3.356c0.544,5.378,3.012,9.989,5.538,14.577c0.613,1.108,1.542,2.345,2.634,2.832
		c3.202,1.434,7.818-0.819,8.996-4.129c0.525-1.469,0.947-2.981,1.563-4.41c0.512-1.191,1.07-2.886,2.704-2.382
		c1.688,0.521,0.941,2.207,0.805,3.47c-0.343,3.203-0.82,6.393-1.025,9.601C39.474,54.878,39.611,57.564,39.611,60.245z
		 M106.526,95.577c0,0.818-0.06,1.063,0.012,1.259c0.242,0.664,0.533,1.31,0.804,1.962c0.529-0.369,1.305-0.624,1.542-1.128
		c0.985-2.103,2.007-4.224,2.656-6.443c1.875-6.415,3.61-12.873,5.333-19.331c1.31-4.904,4.255-8.526,8.502-11.154
		c2.869-1.776,5.559-3.698,7.282-6.732c0.332-0.581,1.369-1.345,1.735-1.191c0.683,0.283,1.329,1.097,1.597,1.833
		c0.497,1.349,0.603,2.836,1.06,4.204c1.293,3.874,4.376,5.502,8.12,3.958c2.76-1.139,5.544-2.512,7.872-4.344
		c4.85-3.815,7.838-9.583,4.188-16.186c-1.978-3.581-5.08-5.063-9.053-5.304c-3.714-0.224-6.138,1.443-7.832,4.583
		c-0.629,1.172-1.346,2.33-2.202,3.343c-1.089,1.288-2.368,1.341-3.475,0.302c-0.4-0.375-0.687-0.873-1.007-1.329
		c-3.411-4.859-8.596-6.961-13.928-8.64c-2.582-0.812-3.994,0.211-4.835,2.807c-0.478,1.476-0.794,3.026-0.979,4.567
		c-0.935,7.743-1.848,15.49-2.679,23.243c-0.416,3.874-0.402,7.805-1.018,11.638c-0.757,4.725-1.987,9.372-2.981,14.057
		C106.919,93.075,106.696,94.617,106.526,95.577z M76.186,46.722c-0.007,6.511,1.672,11.534,4.898,15.45
		c2.197,2.665,4.847,4.593,8.621,4.188c1.212-0.13,2.461-0.09,3.677,0.042c2.148,0.232,2.911,1.058,3.125,3.196
		c0.075,0.775,0.059,1.561,0.067,2.342c0.022,1.744,1.104,2.872,2.305,3.899c0.973,0.831,2.037,0.661,2.475-0.466
		c0.676-1.743,1.301-3.576,1.504-5.42c0.938-8.531,1.793-17.071,2.51-25.624c0.164-1.946-0.099-4.017-0.606-5.915
		c-0.539-2.015-1.948-2.334-3.549-0.953c-0.906,0.782-1.543,1.882-2.264,2.866c-1.581,2.157-2.315,2.478-4.807,1.524
		c-1.441-0.554-2.789-1.385-4.123-2.187c-2.371-1.422-4.899-2.247-7.653-1.795c-1.025,0.169-2.344,0.628-2.866,1.402
		C77.691,41.958,76.214,44.853,76.186,46.722z M160.83,64.697c-0.077,0.009-0.154,0.019-0.229,0.032
		c0.306,2.198,0.446,4.435,0.957,6.584c0.71,2.984,2.889,4.143,5.845,3.3c0.843-0.241,1.703-0.622,2.396-1.148
		c3.552-2.69,7.1-5.394,10.55-8.211c1.396-1.141,2.48-2.663,2.346-4.615c-0.379-5.512-0.975-10.973-5.953-14.604
		c-3.347-2.44-4.126-5.774-3.939-9.716c0.285-6.042,1.024-11.967,2.716-17.794c0.483-1.658,0.374-3.541,0.265-5.301
		c-0.09-1.453-1.311-1.804-2.33-0.72c-0.591,0.628-1.072,1.44-1.366,2.256c-0.721,1.985-1.35,4.009-1.935,6.044
		c-1.345,4.708-2.653,9.427-3.954,14.149c-0.328,1.18-0.669,2.369-0.839,3.577c-0.569,4.1-1.478,8.1-3.149,11.911
		c-0.354,0.803-0.582,1.708-0.647,2.582C161.273,56.91,161.066,60.804,160.83,64.697z M284.56,41.154
		c-0.113-1.553-0.157-3.115-0.351-4.658c-0.237-1.897-1.685-2.765-3.232-3.515c-1.64-0.792-2.178,0.725-2.956,1.488
		c-2.532,2.483-4.979,5.059-7.429,7.631c-1.307,1.373-2.529,3.193-4.725,2.262c-1.897-0.807-1.422-2.805-1.463-4.434
		c-0.028-1.111,0.104-2.231,0.021-3.339c-0.122-1.735-0.699-2.124-2.39-1.732c-1.984,0.462-3.266,1.724-4.177,3.53
		c-3.327,6.611-5.286,13.678-7.011,20.824c-0.409,1.689,0.288,3.061,1.372,4.263c1.458,1.615,2.239,1.584,3.849,0.104
		c2.535-2.334,5.006-4.763,7.719-6.878c1.816-1.419,3.91-2.597,6.052-3.459c2.771-1.119,4.318,0.206,4.103,3.172
		c-0.073,0.994-0.397,1.989-0.35,2.969c0.07,1.395,0.558,2.69,2.18,2.956c1.471,0.243,2.646-0.305,3.278-1.713
		c0.453-1.015,0.846-2.061,1.215-3.108c0.918-2.626,1.695-5.308,2.737-7.886C284.108,46.888,284.729,44.113,284.56,41.154z
		 M188.209,60.884c0.205,0.61,0.409,1.973,1.072,3.056c1.429,2.333,2.95,2.207,4.026-0.288c0.61-1.419,0.938-2.96,1.385-4.45
		c0.385-1.276,1.117-2.122,2.534-2.298c4.162-0.523,6.915,2.267,6.265,6.346c-0.19,1.2-0.432,2.434-0.331,3.626
		c0.171,2.029,1.162,2.857,2.94,2.973c1.892,0.124,2.475-0.999,2.815-2.592c0.485-2.281,0.77-4.691,1.749-6.757
		c2.391-5.042,2.81-10.512,3.921-15.831c0.489-2.354-0.202-4.306-1.321-4.435c-1.951-0.226-2.626,1.474-3.387,2.747
		c-1.196,2.004-2.06,4.208-3.28,6.192c-0.596,0.964-1.571,2.064-2.578,2.33c-2.13,0.564-4.247-0.118-5.858-1.637
		c-1.406-1.327-0.907-3.093-0.513-4.725c0.156-0.645,0.551-1.242,0.652-1.889c0.204-1.307,0.455-2.644,0.37-3.947
		c-0.124-1.851-1.318-2.457-3.045-1.713c-1.771,0.765-2.791,2.222-3.239,4.02c-1.371,5.508-2.679,11.031-3.979,16.554
		C188.256,58.807,188.304,59.496,188.209,60.884z M229.848,37.453c-0.03-0.615-0.041-1.726-0.15-2.826
		c-0.115-1.13-0.336-2.354-1.707-2.544c-1.546-0.213-2.497,0.699-2.998,2.099c-1.422,3.975-3.031,7.894-4.195,11.939
		c-1.318,4.583-1.996,9.319-4.241,13.656c-1.394,2.695-0.864,6.183,0.697,7.161c2.5,1.564,4.903,0.769,7.188-0.682
		c4.457-2.828,7.688-6.58,9.566-11.623c1.216-3.265,1.303-5.997-1.401-8.5C230.231,43.933,229.364,41.146,229.848,37.453z
		 M252.931,37.129c-0.128-1.878-0.683-2.975-2.241-3.35c-1.969-0.473-3.275-0.012-4.143,1.79c-2.018,4.211-4.017,8.435-5.872,12.717
		c-1.901,4.383-3.639,8.839-5.413,13.275c-0.322,0.812-0.684,1.692-0.669,2.533c0.03,1.772,1.5,2.614,2.914,1.595
		c1.407-1.01,2.994-2.146,3.752-3.613c3.611-7.004,6.993-14.126,10.393-21.235C252.269,39.555,252.593,38.13,252.931,37.129z"/>
	<path fill-rule="evenodd" clip-rule="evenodd" d="M39.611,60.245c0-2.681-0.137-5.367,0.034-8.038
		c0.206-3.208,0.683-6.398,1.025-9.601c0.136-1.264,0.883-2.95-0.805-3.47c-1.633-0.504-2.191,1.191-2.704,2.382
		c-0.616,1.429-1.038,2.94-1.563,4.41c-1.177,3.31-5.794,5.563-8.996,4.129c-1.092-0.487-2.021-1.724-2.634-2.832
		c-2.526-4.588-4.993-9.199-5.538-14.577c-0.13-1.279-0.038-3.299-1.871-3.356c-0.568-0.017-1.496,2.021-1.744,3.222
		c-0.698,3.378-1.27,6.796-1.637,10.226c-1.138,10.634-2.578,21.22-4.862,31.68c-0.094,0.434-0.25,0.856-0.358,1.287
		c-0.302,1.19-0.446,2.533-2.053,2.668c-1.668,0.14-3.565,0.442-4.56-1.261c-0.75-1.281-1.39-2.882-1.345-4.318
		c0.127-4.002,0.608-7.997,0.995-11.99C1.805,52.493,2.66,44.185,3.46,35.87c0.566-5.878,1.031-11.768,1.627-17.645
		C5.516,14.022,6.136,9.834,6.584,5.63c0.351-3.306,2.431-5.066,5.387-5.542C14.853-0.374,17.392,1,18.612,3.616
		c1.736,3.719,3.247,7.585,4.405,11.52c0.875,2.958,1.218,6.107,1.486,9.2c0.352,4.03,1.987,7.526,4.038,10.868
		c0.94,1.534,2.436,1.643,3.585,0.207c0.956-1.192,1.551-2.684,2.238-4.078c2.021-4.097,3.979-8.226,6.029-12.31
		c0.495-0.988,1.176-1.909,1.894-2.754c1.057-1.249,1.966-2.746,4.124-1.99c2.108,0.737,3.609,1.895,3.584,4.249
		c-0.057,5.129,0.074,10.287-0.429,15.378C49,39.659,47.7,45.335,46.965,51.077c-0.396,3.082-0.409,6.233-0.343,9.348
		c0.056,2.615,1.278,3.211,3.425,1.699c2.822-1.984,5.704-3.96,8.205-6.315c3.391-3.195,3.627-5.23,0.644-8.692
		c-3.764-4.366-4.751-8.917-2.502-14.198c1.623-3.811-0.193-6.678-2.612-9.361c-1.733-1.923-1.715-3.322,0.213-4.986
		c0.663-0.572,1.442-1.103,2.262-1.381c3.163-1.073,9.195,0.765,11.245,3.7c2.317,3.32,2.755,6.999,0.86,10.752
		c-0.502,0.997-1.066,1.961-1.58,2.952c-1.165,2.239-1.112,4.509-0.092,6.774c0.964,2.135,1.945,4.265,2.963,6.375
		c1.942,4.034,1.183,7.893-1.013,11.473c-0.759,1.239-2.22,2.155-3.533,2.928c-4.135,2.429-8.445,4.575-12.501,7.127
		c-2.03,1.278-3.664,3.19-5.448,4.847c-0.486,0.451-0.798,1.094-1.299,1.523c-0.982,0.835-1.862,2.146-3.429,1.496
		c-1.658-0.687-2.74-1.938-2.779-3.829c-0.046-2.343-0.021-4.688-0.024-7.032c-0.001-2.01,0-4.02,0-6.03
		C39.621,60.245,39.616,60.245,39.611,60.245z"/>
	<path fill-rule="evenodd" clip-rule="evenodd" d="M106.526,95.577c0.17-0.96,0.393-2.502,0.715-4.025
		c0.994-4.685,2.224-9.332,2.981-14.057c0.616-3.833,0.602-7.764,1.018-11.638c0.831-7.753,1.744-15.5,2.679-23.243
		c0.185-1.541,0.501-3.091,0.979-4.567c0.841-2.596,2.253-3.619,4.835-2.807c5.332,1.679,10.517,3.781,13.928,8.64
		c0.32,0.456,0.607,0.954,1.007,1.329c1.107,1.039,2.386,0.985,3.475-0.302c0.856-1.013,1.573-2.17,2.202-3.343
		c1.694-3.141,4.118-4.808,7.832-4.583c3.973,0.241,7.076,1.724,9.053,5.304c3.649,6.603,0.661,12.371-4.188,16.186
		c-2.328,1.833-5.112,3.206-7.872,4.344c-3.744,1.545-6.826-0.084-8.12-3.958c-0.457-1.368-0.563-2.855-1.06-4.204
		c-0.268-0.736-0.914-1.55-1.597-1.833c-0.367-0.154-1.403,0.61-1.735,1.191c-1.724,3.034-4.414,4.956-7.282,6.732
		c-4.247,2.628-7.192,6.25-8.502,11.154c-1.723,6.458-3.458,12.916-5.333,19.331c-0.649,2.219-1.671,4.34-2.656,6.443
		c-0.238,0.504-1.013,0.759-1.542,1.128c-0.271-0.652-0.562-1.298-0.804-1.962C106.466,96.641,106.526,96.396,106.526,95.577z
		 M127.988,47.32c-0.036-1.731-0.631-3.697-2.83-4.762c-1.783-0.864-3.685-0.486-4.353,1.054c-1.254,2.897-1.721,5.97-1.404,9.135
		c0.153,1.537,1.112,2.008,2.558,1.934C125.303,54.511,127.936,51.552,127.988,47.32z M150.859,46.243
		c-0.231-0.402-0.6-1.794-1.504-2.449c-1.333-0.965-2.972-0.56-4.354,0.364c-2.092,1.394-3.564,5.158-3.025,7.661
		c0.593,2.754,2.958,3.775,5.235,2.081C149.422,52.258,150.791,50.024,150.859,46.243z"/>
	<path fill-rule="evenodd" clip-rule="evenodd" d="M76.186,46.722c0.028-1.869,1.505-4.764,3.313-7.45
		c0.522-0.774,1.841-1.233,2.866-1.402c2.754-0.452,5.283,0.373,7.653,1.795c1.334,0.801,2.682,1.632,4.123,2.187
		c2.492,0.954,3.227,0.633,4.807-1.524c0.721-0.984,1.358-2.084,2.264-2.866c1.601-1.381,3.01-1.062,3.549,0.953
		c0.507,1.898,0.77,3.968,0.606,5.915c-0.717,8.553-1.573,17.093-2.51,25.624c-0.203,1.845-0.829,3.678-1.504,5.42
		c-0.438,1.126-1.502,1.297-2.475,0.466c-1.201-1.027-2.282-2.155-2.305-3.899c-0.008-0.781,0.008-1.567-0.067-2.342
		c-0.214-2.139-0.977-2.964-3.125-3.196c-1.215-0.132-2.465-0.172-3.677-0.042c-3.774,0.405-6.424-1.523-8.621-4.188
		C77.858,58.256,76.179,53.233,76.186,46.722z M92.105,52.459c-0.52-1.385-0.779-3.013-1.666-4.155
		c-0.703-0.905-2.179-1.689-3.298-1.671c-1.467,0.024-2.586,1.329-2.865,2.848c-0.548,2.989,0.097,5.751,2.287,7.96
		c1.62,1.632,3.18,1.405,4.242-0.697C91.434,55.5,91.644,54.041,92.105,52.459z"/>
	<path fill-rule="evenodd" clip-rule="evenodd" d="M160.83,64.697c0.236-3.893,0.443-7.787,0.731-11.675
		c0.065-0.875,0.294-1.779,0.647-2.582c1.672-3.811,2.58-7.811,3.149-11.911c0.17-1.208,0.511-2.397,0.839-3.577
		c1.301-4.722,2.609-9.441,3.954-14.149c0.585-2.035,1.214-4.059,1.935-6.044c0.294-0.816,0.775-1.628,1.366-2.256
		c1.02-1.083,2.24-0.732,2.33,0.72c0.109,1.761,0.219,3.643-0.265,5.301c-1.691,5.828-2.431,11.753-2.716,17.794
		c-0.187,3.942,0.593,7.276,3.939,9.716c4.979,3.63,5.574,9.091,5.953,14.604c0.135,1.953-0.949,3.475-2.346,4.615
		c-3.45,2.817-6.998,5.521-10.55,8.211c-0.693,0.526-1.554,0.907-2.396,1.148c-2.956,0.842-5.135-0.316-5.845-3.3
		c-0.511-2.15-0.651-4.386-0.957-6.584C160.676,64.716,160.753,64.706,160.83,64.697z M166.936,60.49
		c0.082,0.017,0.163,0.034,0.243,0.052c0,0.334-0.114,0.726,0.021,0.991c0.523,1.039,0.892,2.378,1.754,2.968
		c1.202,0.826,2.633,0.229,3.559-0.888c0.986-1.189,2.012-2.416,2.666-3.795c1.484-3.141,0.137-6.839-2.806-8.257
		c-1.649-0.793-3.003-0.468-3.526,1.195C168.053,55.283,167.558,57.906,166.936,60.49z"/>
	<path fill-rule="evenodd" clip-rule="evenodd" d="M284.56,41.154c0.17,2.959-0.451,5.734-1.557,8.476
		c-1.042,2.578-1.819,5.259-2.737,7.886c-0.369,1.048-0.762,2.094-1.215,3.108c-0.632,1.408-1.808,1.956-3.278,1.713
		c-1.622-0.266-2.109-1.562-2.18-2.956c-0.048-0.98,0.276-1.976,0.35-2.969c0.216-2.967-1.332-4.291-4.103-3.172
		c-2.142,0.862-4.235,2.04-6.052,3.459c-2.713,2.115-5.184,4.544-7.719,6.878c-1.609,1.48-2.391,1.512-3.849-0.104
		c-1.084-1.202-1.781-2.574-1.372-4.263c1.725-7.146,3.684-14.213,7.011-20.824c0.911-1.806,2.192-3.068,4.177-3.53
		c1.69-0.392,2.268-0.003,2.39,1.732c0.082,1.108-0.05,2.228-0.021,3.339c0.041,1.629-0.435,3.627,1.463,4.434
		c2.195,0.932,3.418-0.889,4.725-2.262c2.449-2.572,4.896-5.147,7.429-7.631c0.778-0.763,1.316-2.28,2.956-1.488
		c1.548,0.75,2.995,1.618,3.232,3.515C284.402,38.039,284.446,39.601,284.56,41.154z"/>
	<path fill-rule="evenodd" clip-rule="evenodd" d="M188.209,60.884c0.095-1.388,0.047-2.077,0.198-2.717
		c1.301-5.523,2.608-11.046,3.979-16.554c0.448-1.797,1.469-3.254,3.239-4.02c1.727-0.744,2.921-0.138,3.045,1.713
		c0.085,1.303-0.166,2.64-0.37,3.947c-0.102,0.647-0.496,1.244-0.652,1.889c-0.395,1.632-0.894,3.398,0.513,4.725
		c1.611,1.52,3.729,2.201,5.858,1.637c1.007-0.266,1.982-1.366,2.578-2.33c1.221-1.984,2.084-4.188,3.28-6.192
		c0.761-1.273,1.436-2.973,3.387-2.747c1.119,0.128,1.811,2.081,1.321,4.435c-1.111,5.318-1.53,10.789-3.921,15.831
		c-0.979,2.066-1.264,4.476-1.749,6.757c-0.341,1.593-0.924,2.715-2.815,2.592c-1.778-0.116-2.77-0.943-2.94-2.973
		c-0.101-1.192,0.141-2.426,0.331-3.626c0.65-4.079-2.103-6.87-6.265-6.346c-1.417,0.176-2.149,1.021-2.534,2.298
		c-0.447,1.49-0.774,3.031-1.385,4.45c-1.076,2.495-2.598,2.621-4.026,0.288C188.618,62.857,188.414,61.494,188.209,60.884z"/>
	<path fill-rule="evenodd" clip-rule="evenodd" d="M229.848,37.453c-0.483,3.693,0.384,6.479,2.758,8.681
		c2.704,2.503,2.617,5.235,1.401,8.5c-1.878,5.042-5.109,8.794-9.566,11.623c-2.284,1.45-4.688,2.246-7.188,0.682
		c-1.562-0.978-2.091-4.466-0.697-7.161c2.245-4.337,2.923-9.073,4.241-13.656c1.164-4.046,2.773-7.965,4.195-11.939
		c0.501-1.399,1.452-2.312,2.998-2.099c1.371,0.19,1.592,1.414,1.707,2.544C229.807,35.727,229.817,36.838,229.848,37.453z"/>
	<path fill-rule="evenodd" clip-rule="evenodd" d="M252.931,37.129c-0.338,1.001-0.662,2.425-1.279,3.712
		c-3.399,7.109-6.781,14.231-10.393,21.235c-0.758,1.467-2.345,2.603-3.752,3.613c-1.414,1.019-2.884,0.177-2.914-1.595
		c-0.015-0.841,0.347-1.722,0.669-2.533c1.774-4.436,3.512-8.892,5.413-13.275c1.855-4.282,3.854-8.506,5.872-12.717
		c0.867-1.802,2.174-2.263,4.143-1.79C252.248,34.154,252.803,35.251,252.931,37.129z"/>
	<path fill-rule="evenodd" clip-rule="evenodd" fill="none" d="M127.988,47.32c-0.052,4.232-2.685,7.191-6.029,7.361
		c-1.445,0.074-2.404-0.397-2.558-1.934c-0.317-3.166,0.15-6.238,1.404-9.135c0.668-1.54,2.569-1.918,4.353-1.054
		C127.356,43.623,127.952,45.589,127.988,47.32z"/>
	<path fill-rule="evenodd" clip-rule="evenodd" fill="none" d="M150.859,46.243c-0.068,3.781-1.437,6.015-3.648,7.657
		c-2.277,1.695-4.643,0.673-5.235-2.081c-0.539-2.503,0.933-6.267,3.025-7.661c1.381-0.923,3.02-1.329,4.354-0.364
		C150.259,44.449,150.628,45.84,150.859,46.243z"/>
	<path fill-rule="evenodd" clip-rule="evenodd" fill="none" d="M92.105,52.459c-0.462,1.581-0.672,3.04-1.3,4.285
		c-1.062,2.102-2.622,2.329-4.242,0.697c-2.19-2.208-2.835-4.971-2.287-7.96c0.279-1.52,1.398-2.824,2.865-2.848
		c1.12-0.018,2.596,0.766,3.298,1.671C91.326,49.446,91.586,51.074,92.105,52.459z"/>
	<path fill-rule="evenodd" clip-rule="evenodd" fill="none" d="M166.936,60.49c0.622-2.583,1.117-5.207,1.91-7.734
		c0.523-1.663,1.877-1.988,3.526-1.195c2.942,1.417,4.29,5.116,2.806,8.257c-0.654,1.379-1.68,2.606-2.666,3.795
		c-0.926,1.117-2.356,1.713-3.559,0.888c-0.862-0.59-1.23-1.93-1.754-2.968c-0.135-0.265-0.021-0.657-0.021-0.991
		C167.099,60.523,167.018,60.506,166.936,60.49z"/>
</g>
</svg>
