<?xml version="1.0" encoding="utf-8"?>
<!-- Generator: Adobe Illustrator 16.0.0, SVG Export Plug-In . SVG Version: 6.00 Build 0)  -->
<!DOCTYPE svg PUBLIC "-//W3C//DTD SVG 1.1//EN" "http://www.w3.org/Graphics/SVG/1.1/DTD/svg11.dtd">
<svg version="1.1" id="Layer_1" xmlns="http://www.w3.org/2000/svg" xmlns:xlink="http://www.w3.org/1999/xlink" x="0px" y="0px"
	 width="300px" height="100px" viewBox="0 0 300 100" enable-background="new 0 0 300 100" xml:space="preserve">
<g>
	<path fill-rule="evenodd" clip-rule="evenodd" d="M24.389,38.851c-1.262,0-2.294,0-2.995,0c-0.871-1.433-1.607-2.647-2.344-3.859
		c-0.103,0.067-0.207,0.135-0.311,0.203c-0.878-1.335-0.661-3.689-1.387-5.186c-0.6-1.237-2.004-3.708-2.944-5.048
		c-3.359-4.778-6.302-9.657-9.136-14.822c-0.237,0-0.809,0-1.694,0c0,0.467-0.096,6.904-1.054,6.538
		c2.501,0.951,1.057,10.041,1.027,12.043c-0.049,3.28-1.01,5.971-1.03,9.625c-0.025,4.902,1.487,12.437-2.267,15.872
		c-0.949-9.088,1.22-20.818-0.117-28.57c-0.003-0.011,1.506-1.297,0.808-1.74c-1.235-0.78-0.759-2.297-0.89-3.461
		c-0.146-1.312,1-0.925,1.155-2.011c0.388-2.704,0.076-5.658,0.076-8.384c0-9.694,11.996,7.605,13.372,9.559
		c0.126-0.076,0.253-0.152,0.378-0.228c0.16,2.912,4.294,9.937,6.339,12.434c5.954-5.059,0.447-17.392,7.215-21.872
		c1.886-1.25,6.076,0.129,6.167,3.301c0.152,4.729,2.738,8.071,3.433,12.616c1.75,11.502,10.403,21.744,10.403,33.952
		c-1.769-1.048-2.303-1.238-2.303-3.373c-0.147,0.029-0.296,0.059-0.445,0.09c-1.556-4.392-2.837-8.051-4.917-12.243
		c-0.144,0.054-0.287,0.107-0.43,0.16c0-1.771-3.2-14.554-4.456-14.793c-0.017-0.004-2.282-6.108-2.289-6.047
		c0.139-1.217-2.48-11.648-3.284-12.321c-2.022,3.392-4.018,9.086-3.752,12.985C27.049,29.14,24.389,33.734,24.389,38.851
		C23.127,38.851,24.389,37.195,24.389,38.851z"/>
	<path fill-rule="evenodd" clip-rule="evenodd" d="M53.277,24.129c-0.077,0.615-0.15,1.2-0.237,1.884
		c-3.176,0.406-5.169,1.289-8.723,1.289c-2.594-7.504,20.888-9.615,21.904-4.854c-0.052-0.253,5.454,2.753,5.149,2.553
		c2.236,1.458,3.798,4.158,5.878,5.885c1.97,1.632,4.81,7.721,4.678,10.263c-0.516,9.834-30.025,22.59-30.985,11.236
		c-0.146-1.713,0.101-1.849,2.039-1.706c0.459,4.929,4.181,3.179,8.646,3.157c1.35-0.006,6.286-1.776,6.731-3.279
		c4.297-1.336,10.235-4.063,10.248-9.763c0.004-2.475-1.176-6.144-3.079-7.766c-1.898-1.616-2.562-1.931-2.796-4.355
		c-1.71-0.059-2.721-1.207-3.768-2.375C64.805,21.668,58.29,22.948,53.277,24.129C53.2,24.744,54.068,23.942,53.277,24.129z"/>
	<path fill-rule="evenodd" clip-rule="evenodd" d="M285.038,27.375c-1.612-0.146-1.186-3.769-1.253-4.592
		c-0.184-0.001-0.368-0.003-0.551-0.006c-0.529,2.322-1.185,5.037-2.219,7.173c-0.174-0.048-0.35-0.096-0.525-0.141
		c0,0.278,0.667,4.262-0.821,4.398c0.719-0.066-2.572,3.29-2.378,2.796c-1.473,3.752-3.853,0.997-6.055-0.76
		c0-3.363-5.915-12.91-1.49-14.405c0.831,4.081,3.218,7.639,3.88,11.9c0.183,1.173,2.226,3.519,3.336,1.717
		c1.393-2.266,1.206-5.526,2.199-8.111c0.498-1.293,0.709-3.161,1.61-4.267c3.017-3.704,6.63,0.192,6.63,3.745
		c4.029,3.794,5.242,10.222,7.601,15.108c-1.036,0.717-1.904,0.266-2.912-0.441c-1.571-1.1-2.586-5.631-3.613-7.378
		C287.023,31.642,285.524,30.11,285.038,27.375C283.619,27.247,285.188,28.223,285.038,27.375z"/>
	<path fill-rule="evenodd" clip-rule="evenodd" d="M176.721,27.187c-0.332-4.229,8.989-4.144,9.2,1.136
		c0.123,3.049,1.165,4.939,1.17,8.134c0.007,3.243,0.516,4.46-1.565,6.75c-1.164,1.277-1.919,3.149-2.008,4.798
		c-0.685,0.041-1.312,0.08-1.939,0.117c0.041,0.132,0.08,0.261,0.121,0.394c-4.442,1.79-7.49,0.031-10.537-3.005
		c0.035-0.008,0.069-0.017,0.103-0.025c-1.047-1.571-2.445-5.644-0.129-7.06c1.384-0.847,1.761-6.116,2.721-7.894
		c0.115,0.035,0.229,0.072,0.344,0.105c0.37-2.101,0.728-2.338,2.555-3.488c-0.001,1.175-0.001,2.35-0.001,3.494
		c-0.528,0.138-0.861,0.225-1.164,0.302c-0.239,2.618-1.806,5.277-2.831,7.995c-0.199,0.528-2.267,2.58-1.561,3.249
		c1.419,1.348,4.275,5.034,6.466,4.761c9.612-1.204,4.792-15.105,4.792-20.743C180.184,26.093,178.497,27.311,176.721,27.187
		C176.653,26.335,177.027,27.208,176.721,27.187z"/>
	<path fill-rule="evenodd" clip-rule="evenodd" d="M97.998,25.006c-5.228,0-6.76-0.942-6.735,4.772
		c0.012,2.611,1.361,6.796,2.725,9.056c4.283,7.091,7.694-3.564,7.694-6.877c0.819,0,1.518,0,2.335,0
		c0,2.931,1.694,7.053,2.963,9.314c0.529,0.939-0.315,5.02,1.505,4.559c0.264,3.213,3.503,3.685,3.503,6.824
		c-4.249,0-6.935-8.884-8.086-12.466c-0.587-1.823-2.255,1.667-2.285,2.079c-0.675,0-1.341,0-2.007,0
		c0.037,0.154,0.073,0.309,0.11,0.464c-5.399,2.417-7.482-2.673-9.213-6.438c-0.136,0.035-0.271,0.069-0.406,0.105
		c0-3.575-2.127-16.869,5.628-14.847C97.382,21.981,98.393,23.26,97.998,25.006C96.309,25.006,98.393,23.26,97.998,25.006z"/>
	<path fill-rule="evenodd" clip-rule="evenodd" d="M147.564,20.447c6.523,0,6.128,2.096,7.237,7.371
		c0.424,2.025,1.095,4.104,1.083,6.794c-0.014,3.667-2.104,4.545-2.329,7.712c-0.767,0-1.463,0-2.295,0
		c1.684-5.917,1.806-9.212,1.186-15.323c-0.151-1.504-0.807-4.26-2.376-5.019c-4.624-2.229-5.342,6.897-6.847,8.265
		c1.201,0.522,1.554,1.452,1.057,2.782c-0.739,0-1.407,0-1.794,0C139.648,27.756,143.673,24.151,147.564,20.447
		C148.743,20.447,146.052,21.886,147.564,20.447z"/>
	<path fill-rule="evenodd" clip-rule="evenodd" d="M126.055,59.199c0.833,0.843,1.596,1.619,2.359,2.392
		c-0.658,0.738-2.596,0.34-3.516,0.34c-0.001-0.53-2.819-6.737-3.499-7.015c-0.732-0.298-1.165-4.281-1.298-5.135
		c-0.759-4.884-4.395-9.999-4.34-15.461c0-0.27,3.378,4.228,3.692,5.423c0.562,2.151,0.919,4.925,2.122,6.793
		C123.574,49.642,125.273,55.377,126.055,59.199C126.888,60.042,125.941,58.643,126.055,59.199z"/>
	<path fill-rule="evenodd" clip-rule="evenodd" d="M167.408,32.906c2.231-0.048,1.01,4.556,0.826,5.693
		c-3.278-4.105-3.215-9.633-5.284-13.967c-2.073-4.339-2.389-10.882-2.389-15.685c0.738,0,1.432,0,2.26,0
		c0,4.588,0.813,11.796,2.974,16.3c0.167-0.051,0.334-0.101,0.501-0.152C166.296,27.852,167.408,30.006,167.408,32.906
		C168.575,32.881,167.408,31.675,167.408,32.906z"/>
	<path fill-rule="evenodd" clip-rule="evenodd" d="M260.673,41.622c-1.655,2.299-1.762,1.807-4.391,1.807
		c0-2.205-4.635-22.103-0.691-20.599c1.253,0.478,1.857,8.499,1.883,10.199C257.507,35.273,258.358,40.518,260.673,41.622
		C260.191,42.292,258.94,40.794,260.673,41.622z"/>
	<path fill-rule="evenodd" clip-rule="evenodd" d="M207.817,33.055c-3.769,0-8.854,4.927-9.286-2.046
		c-0.118,0.039-0.236,0.079-0.354,0.118c-1.602-3.251-4.782-10.444-1.163-13.017c2.491,3.9,2.823,10.34,4.292,14.886
		c2.171-1.708,5.927-3.533,8.694-1.705C209.193,31.986,207.538,31.585,207.817,33.055C206.963,33.055,207.521,31.494,207.817,33.055
		z"/>
	<path fill-rule="evenodd" clip-rule="evenodd" d="M127.045,27.278c2.018,0.001,4.151-0.485,5.791,1.727
		c0.134,2.689,1.934,3.78,0.43,6.721c-0.141-0.055-0.281-0.108-0.421-0.163c0,5.019-3.452,7.871-8,7.871c0-1.13,0-2.158,0-3.328
		c3.22-0.197,2.442-1.034,4.809-2.383c1.446-0.826,0.155-3.027,1.695-3.555C134.652,33.036,127.241,27.522,127.045,27.278z"/>
	<path fill-rule="evenodd" clip-rule="evenodd" d="M217.134,42.388c0.155-2.193-2.199-3.973-2.855-6.066
		c-0.829-2.639-2.681-8.828-1.263-11.223c3.305,2.645,3.381,7.347,4.057,11.04C217.459,38.259,220.692,42.176,217.134,42.388
		C217.264,40.557,217.761,42.35,217.134,42.388z"/>
	<path fill-rule="evenodd" clip-rule="evenodd" d="M34.865,5.344c5.547,0,13.66-4.892,18.404-0.769
		c-1.48,1.303-6.913,1.505-9.023,1.835c-3.382,0.531-5.77,1.295-9.38,1.295C34.865,6.973,34.865,6.271,34.865,5.344
		C35.886,5.344,34.865,6.271,34.865,5.344z"/>
	<path fill-rule="evenodd" clip-rule="evenodd" d="M246.99,35.942c-1.726-0.829-0.6-2.621-1.466-4
		c-2.826,0-8.815,2.133-11.061,0.615c2.75-3.34,7.32-2.645,10.792-1.862c3.97,0.895,2.449,1.799,3.033,5.589
		C249.127,41.726,243.2,39.199,246.99,35.942C245.264,35.113,246.145,36.667,246.99,35.942z"/>
	<path fill-rule="evenodd" clip-rule="evenodd" d="M226.284,31.597c-0.631-5.869-3.196-9.834-0.885-16.04
		c0.706,0.615,1.315,1.113,1.848,1.687c-0.683-0.734,0.032,5.216,0.041,5.338c0.263,3.512,1.053,6.634,1.159,10.173
		C227.518,32.822,226.797,32.436,226.284,31.597C226.201,30.819,226.755,32.029,226.284,31.597z"/>
	<path fill-rule="evenodd" clip-rule="evenodd" d="M290.569,2.74c-2.407,1.428-4.122,1.681-6.179,3.854
		c-1.042,1.103-6.196,2.333-4.845,0.745c3.593-4.198,8.104-4.522,12.309-7.338C292.035,1.189,291.608,2.103,290.569,2.74
		C289.811,3.19,290.957,2.338,290.569,2.74z"/>
	<path fill-rule="evenodd" clip-rule="evenodd" d="M56.678,17.917c0.236-2.132,1.169-3.14,1.143-5.662
		c-0.056-5.4-1.547-0.777-3.567-3.708c1.6-1.543,4.334-1.055,5.739,0.667c1.667,2.039,0.27,4.768,0.084,7.186
		C60.024,17.094,57.922,18.027,56.678,17.917C56.722,17.522,57.922,18.027,56.678,17.917z"/>
	<path fill-rule="evenodd" clip-rule="evenodd" d="M241.756,41.214c0.472-0.153,3.079-1.157,3.089-0.767
		c0.15,5.59-12.007,3.884-13.606,0.534c-0.956-2.023,3.509-0.093,4.143,0.228C237.552,42.302,239.847,43.289,241.756,41.214
		C242.348,41.023,241.338,41.67,241.756,41.214z"/>
	<path fill-rule="evenodd" clip-rule="evenodd" d="M127.076,27.249c-1.444,0.616-2.605,0.447-3.483-0.507
		c0.842-0.714,4.176-1.297,3.454,0.536C127.045,27.278,127.076,27.249,127.076,27.249z"/>
</g>
</svg>
