<?xml version="1.0" encoding="utf-8"?>
<!-- Generator: Adobe Illustrator 16.0.0, SVG Export Plug-In . SVG Version: 6.00 Build 0)  -->
<!DOCTYPE svg PUBLIC "-//W3C//DTD SVG 1.1//EN" "http://www.w3.org/Graphics/SVG/1.1/DTD/svg11.dtd">
<svg version="1.1" id="Layer_1" xmlns="http://www.w3.org/2000/svg" xmlns:xlink="http://www.w3.org/1999/xlink" x="0px" y="0px"
	 width="300px" height="100px" viewBox="0 0 300 100" enable-background="new 0 0 300 100" xml:space="preserve">
<g>
	<path fill-rule="evenodd" clip-rule="evenodd" fill="none" d="M63.921,72.339c1.191,0.388,2.385,0.772,3.574,1.157
		c2.02-3.621,4.889-7.034,5.849-10.92c1.297-5.244,1.473-10.85,1.511-16.304c0.089-11.96-9.841-19.454-21.247-16.005
		c-3.941,1.19-7.565,3.417-11.724,5.356c-4.208-7.446-8.906-13.694-18.9-11.386c-1.155,0.265-4.053-3.014-4.591-5.055
		c-0.711-2.713,0.516-5.871,0.184-8.756C17.581,1.716,10.74-2.349,0,1.391c12.379,3.598,9.476,12.247,8.838,19.817
		c-1.095,13-2.868,25.938-4.102,38.93c-0.307,3.242,0.36,6.581,0.578,9.873c1.207,0.099,2.414,0.197,3.622,0.296
		c1.121-4.146,2.64-8.235,3.268-12.458c0.926-6.226,1.184-12.551,1.786-18.831c0.708-7.398,5.272-10.498,12.134-9.435
		c7.801,1.21,6.814,7.114,5.65,12.725c-1.196,5.768-3.012,11.497-3.393,17.316c-0.263,4.045,0.904,11.539,2.353,11.772
		c6.825,1.094,5.311-5.586,6.397-9.493c1.233-4.444,1.435-9.177,2.694-13.61c1.516-5.351,14.11-13.394,18.905-12.057
		c9.141,2.547,7.325,9.813,6.692,16.551C64.809,59.294,64.414,65.822,63.921,72.339z M224.959,69.309
		c-0.548-0.512-1.092-1.025-1.64-1.537c4.574-4.815,9.281-9.514,13.696-14.471c6.417-7.21,5.238-12.372-3.513-16.511
		c-7.886-3.732-17.069-2.121-23.204,4.069c-6.321,6.376-9.529,19.154-4.909,26.777c2.67,4.411,8.093,8.459,13.062,9.846
		c6.496,1.814,12.907-0.74,16.269-7.751c-1.267-0.946-1.945-1.869-2.503-1.799C229.779,68.234,227.374,68.826,224.959,69.309z
		 M161.628,77.46c1.609,0.461,3.217,0.923,4.825,1.385c-1.28-14.721,5.721-21.999,18.197-24.643
		c1.683,7.389,3.249,14.248,4.813,21.107c1.125-0.24,2.25-0.476,3.376-0.714c3.25-8.495,2.691-17.998-3.255-24.125
		c-7.494-7.725-13.844,3.185-21.729,5.058c-2.817-12.124-5.625-24.221-8.438-36.318c-1.059,0.236-2.119,0.474-3.177,0.712
		C158.037,39.102,159.833,58.282,161.628,77.46z M269.991,24.412c-1.27-0.108-2.539-0.219-3.807-0.327
		c-6.899,16.376-6.371,34.014-7.035,51.343c-0.067,1.727,5.233,5.324,7.901,5.192c9.577-0.481,19.119-2.03,28.622-3.533
		c2.737-0.433,5.287-2.066,7.927-3.146c-0.317-1.337-0.635-2.674-0.948-4.009c-12.114,1.344-24.228,2.691-37.946,4.215
		C266.528,57.005,268.259,40.708,269.991,24.412z M139.599,67.673c-11.273-0.724-14.067-4.591-11.374-13.004
		c0.502-1.565,2.043-2.859,2.322-4.417c0.236-1.311-0.339-3.093-1.198-4.142c-0.442-0.546-2.449-0.301-3.463,0.188
		c-5.589,2.696-7.849,12.941-4.625,20.38c3.019,6.965,11.478,11.385,17.422,8.603c1.935-0.904,3.081-3.492,4.588-5.313
		C141.483,68.85,139.694,67.731,139.599,67.673z M96.454,79.167c6.308-11.788,3.055-21.419,1.528-30.908
		c-0.107-0.663-2.311-1.746-2.822-1.436c-1.267,0.763-2.904,2.15-3.011,3.406C91.394,59.194,89.766,68.347,96.454,79.167z
		 M104.016,26.591c-3.803-4.884-7.169-9.333-10.76-13.598c-0.309-0.368-3.065,0.529-3.062,0.82c0.038,3.457-0.62,7.482,0.932,10.2
		c1.555,2.725,5.297,4.327,8.329,5.958C100.001,30.266,101.752,28.32,104.016,26.591z"/>
	<path fill-rule="evenodd" clip-rule="evenodd" d="M63.921,72.339c0.493-6.517,0.888-13.044,1.502-19.55
		c0.633-6.739,2.448-14.004-6.692-16.551c-4.795-1.337-17.39,6.706-18.905,12.057c-1.259,4.433-1.461,9.166-2.694,13.61
		c-1.086,3.906,0.428,10.587-6.397,9.493c-1.448-0.233-2.616-7.728-2.353-11.772c0.381-5.82,2.197-11.549,3.393-17.316
		c1.164-5.611,2.151-11.515-5.65-12.725c-6.862-1.063-11.426,2.037-12.134,9.435c-0.602,6.279-0.859,12.604-1.786,18.831
		c-0.628,4.224-2.147,8.312-3.268,12.458c-1.208-0.099-2.415-0.197-3.622-0.296c-0.218-3.292-0.885-6.631-0.578-9.873
		c1.233-12.992,3.006-25.93,4.102-38.93C9.476,13.638,12.379,4.989,0,1.391c10.74-3.74,17.581,0.325,18.578,9.034
		c0.332,2.886-0.896,6.043-0.184,8.756c0.538,2.042,3.436,5.32,4.591,5.055c9.994-2.308,14.692,3.939,18.9,11.386
		c4.158-1.939,7.783-4.166,11.724-5.356c11.406-3.448,21.336,4.045,21.247,16.005c-0.039,5.455-0.214,11.061-1.511,16.304
		c-0.96,3.886-3.829,7.299-5.849,10.92C66.306,73.111,65.112,72.727,63.921,72.339z"/>
	<path fill-rule="evenodd" clip-rule="evenodd" d="M224.959,69.309c2.415-0.483,4.82-1.075,7.259-1.376
		c0.558-0.069,1.236,0.854,2.503,1.799c-3.362,7.011-9.773,9.565-16.269,7.751c-4.969-1.387-10.392-5.435-13.062-9.846
		c-4.62-7.624-1.412-20.401,4.909-26.777c6.134-6.19,15.317-7.802,23.204-4.069c8.751,4.139,9.93,9.3,3.513,16.511
		c-4.416,4.957-9.122,9.656-13.696,14.471C223.867,68.284,224.411,68.797,224.959,69.309z M221.501,40.364
		c-2.581,2.196-8.421,4.94-10.287,9.36c-1.998,4.743-0.257,11.062-0.146,16.691c1.782-0.315,4.104-0.029,5.246-1.053
		c4.336-3.889,8.542-7.984,12.32-12.41C233.776,46.935,232.059,42.291,221.501,40.364z"/>
	<path fill-rule="evenodd" clip-rule="evenodd" d="M161.628,77.46c-1.796-19.178-3.591-38.358-5.388-57.538
		c1.058-0.238,2.119-0.476,3.177-0.712c2.813,12.097,5.621,24.195,8.438,36.318c7.885-1.874,14.235-12.783,21.729-5.058
		c5.946,6.128,6.504,15.63,3.255,24.125c-1.125,0.238-2.25,0.474-3.376,0.714c-1.565-6.859-3.13-13.718-4.813-21.107
		c-12.477,2.644-19.478,9.921-18.197,24.643C164.846,78.383,163.237,77.921,161.628,77.46z"/>
	<path fill-rule="evenodd" clip-rule="evenodd" d="M269.991,24.412c-1.731,16.296-3.463,32.593-5.286,49.735
		c13.718-1.524,25.833-2.871,37.946-4.215c0.313,1.334,0.63,2.671,0.948,4.009c-2.641,1.08-5.19,2.713-7.927,3.146
		c-9.502,1.503-19.045,3.052-28.622,3.533c-2.667,0.132-7.968-3.465-7.901-5.192c0.664-17.329,0.135-34.967,7.035-51.343
		C267.452,24.193,268.721,24.304,269.991,24.412z"/>
	<path fill-rule="evenodd" clip-rule="evenodd" d="M139.599,67.673c0.095,0.058,1.884,1.176,3.673,2.295
		c-1.508,1.821-2.653,4.408-4.588,5.313c-5.945,2.783-14.404-1.638-17.422-8.603c-3.224-7.439-0.964-17.684,4.625-20.38
		c1.014-0.488,3.021-0.733,3.463-0.188c0.859,1.048,1.434,2.831,1.198,4.142c-0.279,1.558-1.82,2.852-2.322,4.417
		C125.532,63.083,128.326,66.949,139.599,67.673z"/>
	<path fill-rule="evenodd" clip-rule="evenodd" d="M96.454,79.167c-6.688-10.82-5.06-19.974-4.305-28.938
		c0.107-1.255,1.744-2.643,3.011-3.406c0.511-0.31,2.715,0.772,2.822,1.436C99.509,57.748,102.761,67.38,96.454,79.167z"/>
	<path fill-rule="evenodd" clip-rule="evenodd" d="M104.016,26.591c-2.264,1.729-4.015,3.675-4.561,3.379
		c-3.032-1.631-6.774-3.232-8.329-5.958c-1.552-2.718-0.894-6.743-0.932-10.2c-0.004-0.291,2.752-1.188,3.062-0.82
		C96.847,17.257,100.213,21.707,104.016,26.591z"/>
	<path fill-rule="evenodd" clip-rule="evenodd" fill="none" d="M221.501,40.364c10.557,1.927,12.275,6.571,7.132,12.588
		c-3.778,4.426-7.984,8.521-12.32,12.41c-1.142,1.024-3.463,0.738-5.246,1.053c-0.111-5.629-1.852-11.948,0.146-16.691
		C213.08,45.305,218.92,42.56,221.501,40.364z"/>
</g>
</svg>
