<?xml version="1.0" encoding="utf-8"?>
<!-- Generator: Adobe Illustrator 16.0.0, SVG Export Plug-In . SVG Version: 6.00 Build 0)  -->
<!DOCTYPE svg PUBLIC "-//W3C//DTD SVG 1.1//EN" "http://www.w3.org/Graphics/SVG/1.1/DTD/svg11.dtd">
<svg version="1.1" id="Layer_1" xmlns="http://www.w3.org/2000/svg" xmlns:xlink="http://www.w3.org/1999/xlink" x="0px" y="0px"
	 width="300px" height="100px" viewBox="0 0 300 100" enable-background="new 0 0 300 100" xml:space="preserve">
<g>
	<path fill-rule="evenodd" clip-rule="evenodd" fill="none" d="M34.314,36.204c5.954,5.622,1.545,14.278,9.326,18.561
		c-0.292-3.151-0.351-5.516-0.755-7.819c-1.871-10.676-5.093-21.105-5.552-32.047c-0.1-2.395-1.053-4.805-1.921-7.093
		c-0.236-0.624-1.568-1.043-2.441-1.136c-0.454-0.047-1.227,0.728-1.479,1.3c-3.877,8.821-7.127,17.834-8.348,27.473
		c-0.13,1.037-0.852,1.997-1.299,2.992c-0.901-0.782-2.181-1.388-2.642-2.374c-2.555-5.495-5.039-11.028-7.288-16.653
		c-1.334-3.335-3.761-4.212-6.988-4.282c-3.302-0.072-4.311,2.226-4.769,4.698c-0.342,1.854-0.064,3.864,0.171,5.778
		c0.45,3.647,1.472,7.267,1.54,10.912c0.22,11.807,2.911,23.062,7.091,34.004c0.762,1.994,1.996,3.986,3.506,5.479
		c1.975,1.952,3.883,1.239,3.927-1.453c0.047-3.136-0.479-6.3-0.948-9.421c-0.992-6.592-2.155-13.156-3.117-19.753
		c-0.115-0.788,0.581-1.693,0.902-2.544c0.84,0.403,1.914,0.606,2.473,1.248c1.131,1.304,2.149,2.765,2.919,4.306
		c2.116,4.25,5.862,5.608,10.176,6.485c3.102,0.63,3.958-0.408,4.117-3.312C33.176,46.787,33.762,42.04,34.314,36.204z M79.3,14.969
		c0-1.646,0.035-3.634-0.007-5.619c-0.106-5.013-1.809-7.867-6.389-8.479c-7.096-0.948-14.332-1.822-21.23,1.396
		c-2.663,1.241-5.861,1.935-5.158,6.033c0.546,3.185,2.722,4.646,7.333,4.725c1.48,0.026,2.974-0.382,4.451-0.325
		c3.448,0.132,6.933,0.164,10.324,0.726c3.688,0.613,4.685,2.73,2.418,5.757c-2.169,2.895-5.069,5.283-7.849,7.663
		c-2.278,1.952-2.725,4.204-0.323,5.898c1.521,1.068,3.597,1.451,5.481,1.886c3.862,0.887,7.867,1.281,11.619,2.485
		c3.548,1.139,4.281,4.119,2.089,7.055c-1.327,1.773-2.902,3.391-4.542,4.888c-1.807,1.651-3.657,3.888-5.796,4.303
		c-1.289,0.252-3.16-2.472-4.767-3.865c-0.185-0.161-0.327-0.43-0.536-0.496c-0.915-0.287-2.158-1.005-2.703-0.658
		c-0.845,0.541-1.563,1.765-1.73,2.797c-0.527,3.271,0.762,6.291,3.653,7.468c2.664,1.084,5.769,3.232,8.894,0.036
		c1.484-1.519,3.878-2.104,5.615-3.43c4.625-3.538,9.819-6.572,9.594-13.75c-0.171-5.394-1.663-9.885-6.509-12.479
		c-3.616-1.938-4.761-4.647-4.274-8.466C79.177,18.796,79.18,17.049,79.3,14.969z M137.665,45.929
		c5.903,1.638,10.837,3.175,15.864,4.327c2.101,0.481,4.536,0.628,6.546,0.021c1.571-0.476,2.718-2.352,4.054-3.607
		c-1.33-0.953-2.545-2.178-4.015-2.808c-3.601-1.542-7.426-2.581-10.964-4.243c-5.503-2.587-6.301-3.832-5.289-9.857
		c0.728-4.33-0.653-7.773-2.864-11.134c-2.465-3.746-9.072-6.034-13.19-4.29c-4.049,1.718-3.241,5.645-3.416,9.022
		c-0.039,0.741-0.018,1.495,0.068,2.231c1.219,10.554,2.233,21.137,3.854,31.626c0.363,2.355,2.633,4.597,4.459,6.469
		c1.023,1.046,2.937,1.228,4.449,1.799c0.519-1.568,1.503-3.15,1.469-4.706C138.584,56.11,138.077,51.449,137.665,45.929z
		 M220.097,20.021c-0.421,0.036-0.84,0.072-1.26,0.108c0.862,6.593,1.643,13.198,2.674,19.769c0.149,0.951,1.487,1.716,2.276,2.569
		c0.707-0.873,1.893-1.669,2.037-2.624c0.664-4.394,1.096-8.826,1.491-13.255c0.31-3.455-1.744-7.452,2.428-9.958
		c0.635,3.023,1.485,6.023,1.86,9.082c0.654,5.331,1.975,10.138,6.691,13.505c4.101,2.928,5.731,2.907,8.253-1.274
		c2.52-4.184,5.032-8.193,8.669-11.685c1.903-1.825,1.709-5.863,2.301-8.934c0.029-0.156-1.541-0.986-2.251-0.858
		c-4.534,0.816-7.148,3.892-9.26,7.784c-0.712,1.312-3.018,3.104-3.796,2.777c-1.817-0.764-4.298-2.544-4.485-4.15
		c-0.913-7.79-5.846-13.484-9.482-19.849c-1.726-3.021-2.958-3.076-5.312,0.153c-1.348,1.852-2.424,4.201-2.719,6.446
		C219.762,13.037,220.097,16.553,220.097,20.021z M267.869,77.664c5.762-8.545,9.033-16.59,9.844-25.731
		c0.398-4.508,1.115-9.534,3.462-13.186c3.107-4.828,5.434-10.463,10.886-13.784c2.546-1.551,4.189-4.708,5.947-7.335
		c0.488-0.732-0.075-2.173-0.159-3.285c-0.913,0.177-2.001,0.102-2.701,0.587c-1.209,0.835-2.202,1.992-3.24,3.058
		c-2.076,2.138-3.958,4.503-6.231,6.396c-1.962,1.634-4.359,2.738-6.565,4.077c-0.446-2.318-0.958-4.626-1.311-6.958
		c-0.183-1.206,0.298-2.651-0.208-3.633c-0.627-1.216-1.856-2.644-3.035-2.867c-0.785-0.149-2.592,1.508-2.823,2.592
		c-1.262,6.002-2.86,12.068,0.363,18.061c0.588,1.091,0.699,2.657,0.503,3.922c-1.503,9.753-3.223,19.47-4.674,29.229
		C267.547,71.354,267.869,74.01,267.869,77.664z M171.838,37.38c1.972-0.097,3.994,0.057,5.896-0.346
		c3.499-0.738,6.31-4.091,5.193-6.815c-2.396-5.843-4.212-12.191-9.87-16.061c-2.826-1.931-5.751-3.714-8.586-5.629
		c-3.021-2.045-4.769-1.739-6.464,1.522c-3.495,6.729-2.199,13.137,0.932,19.72C161.651,35.465,165.759,37.842,171.838,37.38z
		 M124.657,55.376c-1.337-8.656-2.455-17.237-4.078-25.721c-0.64-3.332-2.246-6.531-3.757-9.62
		c-0.552-1.127-2.139-2.479-3.198-2.432c-1.167,0.052-2.735,1.374-3.28,2.538c-0.679,1.452-0.899,3.387-0.589,4.968
		c0.569,2.892,1.647,5.685,2.563,8.503c1.032,3.167,1.624,6.35-1.187,8.857c-0.611,0.547-2.471,0.432-3.272-0.105
		c-3.05-2.033-3.651-5.237-2.937-8.56c0.615-2.867,1.874-5.589,2.539-8.447c0.241-1.03-0.415-2.271-0.662-3.415
		c-0.976,0.517-2.452,0.788-2.84,1.589c-1.287,2.644-2.593,5.395-3.15,8.248c-1.709,8.783,1.484,14.279,10.17,16.81
		c4.445,1.293,6.143,4.509,8.133,7.981c1.098,1.917,0.096,5.828,3.611,5.295C123.659,61.725,124.01,57.716,124.657,55.376z
		 M196.444,15.45c-2.12-4.562-3.656-8.466-5.753-12.041c-0.679-1.158-3.447-2.416-4.17-1.948c-1.375,0.893-3.104,3.398-2.702,4.532
		c3.188,9.004,6.657,17.922,10.542,26.645c0.62,1.393,3.747,1.666,5.713,2.456c0.522-1.53,1.422-3.036,1.507-4.586
		c0.505-9.234,5.819-16.346,10.633-23.536c1.334-1.99,3.166-3.139,1.289-5.409c-2.431-2.937-4.389-0.9-6.061,0.997
		C203.877,6.606,200.433,10.761,196.444,15.45z"/>
	<path fill-rule="evenodd" clip-rule="evenodd" d="M34.314,36.204c-0.552,5.836-1.138,10.583-1.397,15.35
		c-0.159,2.903-1.016,3.941-4.117,3.312c-4.314-0.877-8.06-2.235-10.176-6.485c-0.77-1.541-1.788-3.002-2.919-4.306
		c-0.559-0.642-1.633-0.845-2.473-1.248c-0.321,0.851-1.018,1.756-0.902,2.544c0.962,6.597,2.125,13.161,3.117,19.753
		c0.469,3.121,0.995,6.285,0.948,9.421c-0.043,2.692-1.952,3.405-3.927,1.453c-1.51-1.493-2.744-3.485-3.506-5.479
		C4.782,59.575,2.091,48.32,1.871,36.514c-0.068-3.646-1.089-7.265-1.54-10.912c-0.236-1.914-0.513-3.925-0.171-5.778
		c0.458-2.473,1.467-4.771,4.769-4.698c3.227,0.07,5.653,0.947,6.988,4.282c2.249,5.625,4.733,11.158,7.288,16.653
		c0.461,0.986,1.741,1.592,2.642,2.374c0.447-0.995,1.168-1.955,1.299-2.992c1.221-9.639,4.47-18.651,8.348-27.473
		c0.252-0.572,1.025-1.347,1.479-1.3c0.873,0.093,2.205,0.512,2.441,1.136c0.868,2.288,1.821,4.698,1.921,7.093
		c0.459,10.941,3.681,21.371,5.552,32.047c0.404,2.304,0.463,4.668,0.755,7.819C35.859,50.482,40.268,41.826,34.314,36.204z"/>
	<path fill-rule="evenodd" clip-rule="evenodd" d="M79.3,14.969c-0.12,2.08-0.123,3.827-0.341,5.547
		c-0.487,3.818,0.659,6.528,4.274,8.466c4.847,2.595,6.338,7.086,6.509,12.479c0.225,7.178-4.969,10.212-9.594,13.75
		c-1.737,1.326-4.131,1.911-5.615,3.43c-3.125,3.196-6.23,1.048-8.894-0.036c-2.891-1.177-4.18-4.197-3.653-7.468
		c0.168-1.032,0.885-2.256,1.73-2.797c0.545-0.347,1.788,0.371,2.703,0.658c0.209,0.066,0.351,0.335,0.536,0.496
		c1.606,1.394,3.478,4.117,4.767,3.865c2.139-0.415,3.989-2.651,5.796-4.303c1.64-1.497,3.215-3.114,4.542-4.888
		c2.192-2.936,1.459-5.916-2.089-7.055c-3.752-1.204-7.757-1.599-11.619-2.485c-1.884-0.435-3.96-0.817-5.481-1.886
		c-2.402-1.694-1.956-3.946,0.323-5.898c2.78-2.38,5.68-4.769,7.849-7.663c2.266-3.026,1.27-5.144-2.418-5.757
		c-3.391-0.562-6.876-0.594-10.324-0.726c-1.477-0.057-2.97,0.352-4.451,0.325c-4.611-0.078-6.787-1.54-7.333-4.725
		c-0.703-4.099,2.495-4.792,5.158-6.033c6.898-3.218,14.134-2.344,21.23-1.396c4.58,0.611,6.282,3.466,6.389,8.479
		C79.334,11.335,79.3,13.323,79.3,14.969z"/>
	<path fill-rule="evenodd" clip-rule="evenodd" d="M137.665,45.929c0.412,5.521,0.919,10.182,1.025,14.85
		c0.035,1.556-0.95,3.138-1.469,4.706c-1.512-0.571-3.426-0.753-4.449-1.799c-1.827-1.872-4.096-4.113-4.459-6.469
		c-1.62-10.489-2.634-21.072-3.854-31.626c-0.085-0.736-0.106-1.49-0.068-2.231c0.174-3.378-0.634-7.305,3.416-9.022
		c4.119-1.744,10.726,0.544,13.19,4.29c2.21,3.36,3.592,6.804,2.864,11.134c-1.013,6.025-0.214,7.271,5.289,9.857
		c3.538,1.662,7.363,2.701,10.964,4.243c1.47,0.63,2.685,1.854,4.015,2.808c-1.336,1.256-2.482,3.132-4.054,3.607
		c-2.01,0.607-4.445,0.461-6.546-0.021C148.502,49.104,143.568,47.566,137.665,45.929z"/>
	<path fill-rule="evenodd" clip-rule="evenodd" d="M220.097,20.021c0-3.469-0.335-6.984,0.116-10.393
		c0.295-2.245,1.371-4.595,2.719-6.446c2.354-3.229,3.586-3.174,5.312-0.153c3.637,6.364,8.569,12.059,9.482,19.849
		c0.188,1.606,2.668,3.387,4.485,4.15c0.778,0.327,3.084-1.466,3.796-2.777c2.111-3.893,4.726-6.968,9.26-7.784
		c0.71-0.128,2.28,0.702,2.251,0.858c-0.592,3.07-0.397,7.108-2.301,8.934c-3.637,3.491-6.149,7.501-8.669,11.685
		c-2.521,4.182-4.152,4.202-8.253,1.274c-4.717-3.367-6.037-8.174-6.691-13.505c-0.375-3.059-1.226-6.059-1.86-9.082
		c-4.172,2.506-2.118,6.503-2.428,9.958c-0.396,4.429-0.827,8.861-1.491,13.255c-0.145,0.955-1.33,1.751-2.037,2.624
		c-0.789-0.854-2.127-1.618-2.276-2.569c-1.031-6.57-1.812-13.176-2.674-19.769C219.257,20.094,219.676,20.058,220.097,20.021z"/>
	<path fill-rule="evenodd" clip-rule="evenodd" d="M267.869,77.664c0-3.654-0.322-6.311,0.057-8.857
		c1.451-9.76,3.171-19.477,4.674-29.229c0.196-1.265,0.085-2.831-0.503-3.922c-3.224-5.992-1.625-12.059-0.363-18.061
		c0.231-1.084,2.038-2.741,2.823-2.592c1.179,0.224,2.408,1.651,3.035,2.867c0.506,0.981,0.025,2.427,0.208,3.633
		c0.353,2.332,0.864,4.64,1.311,6.958c2.206-1.339,4.604-2.443,6.565-4.077c2.273-1.894,4.155-4.259,6.231-6.396
		c1.038-1.065,2.031-2.223,3.24-3.058c0.7-0.485,1.788-0.41,2.701-0.587c0.084,1.112,0.647,2.553,0.159,3.285
		c-1.758,2.627-3.401,5.784-5.947,7.335c-5.452,3.321-7.778,8.956-10.886,13.784c-2.347,3.651-3.063,8.678-3.462,13.186
		C276.902,61.074,273.631,69.119,267.869,77.664z"/>
	<path fill-rule="evenodd" clip-rule="evenodd" d="M171.838,37.38c-6.079,0.462-10.187-1.915-12.898-7.608
		c-3.131-6.583-4.427-12.99-0.932-19.72c1.695-3.262,3.443-3.567,6.464-1.522c2.835,1.915,5.76,3.698,8.586,5.629
		c5.658,3.869,7.474,10.218,9.87,16.061c1.116,2.725-1.694,6.077-5.193,6.815C175.832,37.437,173.81,37.283,171.838,37.38z"/>
	<path fill-rule="evenodd" clip-rule="evenodd" d="M124.657,55.376c-0.647,2.34-0.999,6.349-1.934,6.489
		c-3.515,0.533-2.513-3.378-3.611-5.295c-1.99-3.473-3.688-6.688-8.133-7.981c-8.687-2.53-11.88-8.026-10.17-16.81
		c0.557-2.854,1.863-5.604,3.15-8.248c0.389-0.801,1.864-1.072,2.84-1.589c0.248,1.145,0.903,2.385,0.662,3.415
		c-0.666,2.858-1.924,5.58-2.539,8.447c-0.714,3.322-0.113,6.526,2.937,8.56c0.801,0.537,2.661,0.652,3.272,0.105
		c2.811-2.508,2.219-5.69,1.187-8.857c-0.917-2.818-1.994-5.611-2.563-8.503c-0.311-1.581-0.09-3.516,0.589-4.968
		c0.545-1.164,2.113-2.486,3.28-2.538c1.059-0.048,2.646,1.305,3.198,2.432c1.512,3.089,3.118,6.288,3.757,9.62
		C122.203,38.139,123.32,46.72,124.657,55.376z"/>
	<path fill-rule="evenodd" clip-rule="evenodd" d="M196.444,15.45c3.988-4.689,7.433-8.844,10.998-12.891
		c1.672-1.897,3.63-3.934,6.061-0.997c1.877,2.271,0.045,3.419-1.289,5.409c-4.813,7.19-10.128,14.302-10.633,23.536
		c-0.085,1.55-0.984,3.056-1.507,4.586c-1.966-0.79-5.093-1.063-5.713-2.456c-3.885-8.723-7.354-17.641-10.542-26.645
		c-0.402-1.134,1.327-3.64,2.702-4.532c0.723-0.468,3.491,0.79,4.17,1.948C192.788,6.984,194.324,10.889,196.444,15.45z"/>
</g>
</svg>
