<?xml version="1.0" encoding="utf-8"?>
<!-- Generator: Adobe Illustrator 16.0.0, SVG Export Plug-In . SVG Version: 6.00 Build 0)  -->
<!DOCTYPE svg PUBLIC "-//W3C//DTD SVG 1.1//EN" "http://www.w3.org/Graphics/SVG/1.1/DTD/svg11.dtd">
<svg version="1.1" id="Layer_1" xmlns="http://www.w3.org/2000/svg" xmlns:xlink="http://www.w3.org/1999/xlink" x="0px" y="0px"
	 width="300px" height="100px" viewBox="0 0 300 100" enable-background="new 0 0 300 100" xml:space="preserve">
<g>
	<path fill-rule="evenodd" clip-rule="evenodd" fill="none" d="M78.315,75.649l-0.215-0.243c2.375,7.457,10.919,10.912,17.667,6.296
		c8.598-5.881,17.752-10.629,26.792-15.695c13.049-7.314,12.33-22.127,2.011-28.228c-3.162-1.867-6.686-3.273-9.999-2.758
		c-11.541,1.812-23.331-4.335-34.69,1.265c-1.15,0.567-3.022,0.734-3.278-0.748c-1.196-6.891-10.37-11.059-6.315-19.876
		c1.745-3.792,0.999-8.076-4.495-8.423c-4.454-0.278-9.503-2.171-11.564,4.973c-2.564,8.876-7.062,17.22-9.346,26.144
		c-2.34,9.154-5.836,7.561-11.483,3.167c-7.219-5.62-12.48-12.702-16.866-20.528c-3.6-6.425-10.403-4.705-14.587-3.609
		c-3.926,1.029-0.974,6.616,0.726,9.899C6.915,35.49,7.298,44.492,8.489,53.36c1.712,12.737,2.178,25.501,1.561,38.34
		c-0.13,2.702-0.273,6.183,3.875,6.544c3.983,0.347,5.784-2.474,6.702-5.644c0.504-1.74-0.101-3.794-0.18-5.708
		c-0.559-13.804,2.803-27.525-0.999-43.377c6.412,4.952,10.922,8.019,14.937,11.63c6.28,5.651,10.087,4.037,13.634-3.118
		c3.966-7.996,8.792-15.566,13.175-23.197c3.269,1.262,2.51,3.473,2.752,5.253c1.783,13.007,3.332,26.051,5.454,39.001
		c0.506,3.096-0.924,8.028,3.796,8.924C77.668,82.857,73.77,75.588,78.315,75.649z M96.605,29.26
		c9.614,0.339,24.222-8.534,24.618-14.652c0.466-7.196-12.629-14.019-26.862-13.672c4.938,4.447,12.326,6.602,13.462,13.33
		C109.139,22.046,97.971,22.248,96.605,29.26z M80.786,9.07c4.25,0.016,8.846,1.098,9.038-4.72c0.121-3.762-2.795-4.649-6.028-4.27
		c-4.155,0.485-9.818,1.158-10.464,5.089C72.548,9.933,78.058,8.671,80.786,9.07z"/>
	<path fill-rule="evenodd" clip-rule="evenodd" d="M78.315,75.649c-4.546-0.062-0.647,7.208-5.12,6.358
		c-4.72-0.896-3.29-5.828-3.796-8.924c-2.122-12.95-3.671-25.994-5.454-39.001c-0.242-1.78,0.517-3.991-2.752-5.253
		c-4.383,7.631-9.209,15.201-13.175,23.197c-3.547,7.155-7.354,8.77-13.634,3.118c-4.015-3.611-8.524-6.678-14.937-11.63
		c3.802,15.852,0.44,29.573,0.999,43.377c0.079,1.914,0.684,3.968,0.18,5.708c-0.918,3.17-2.719,5.99-6.702,5.644
		C9.776,97.883,9.92,94.402,10.05,91.7c0.617-12.839,0.151-25.603-1.561-38.34c-1.191-8.868-1.574-17.87-5.818-26.076
		c-1.699-3.283-4.651-8.87-0.726-9.899c4.184-1.096,10.987-2.815,14.587,3.609c4.386,7.826,9.647,14.908,16.866,20.528
		c5.647,4.394,9.144,5.987,11.483-3.167c2.284-8.924,6.781-17.268,9.346-26.144c2.062-7.144,7.11-5.251,11.564-4.973
		c5.494,0.347,6.24,4.631,4.495,8.423c-4.055,8.817,5.119,12.985,6.315,19.876c0.256,1.482,2.128,1.315,3.278,0.748
		c11.359-5.6,23.149,0.547,34.69-1.265c3.313-0.516,6.837,0.891,9.999,2.758c10.319,6.101,11.038,20.913-2.011,28.228
		c-9.04,5.066-18.194,9.814-26.792,15.695c-6.748,4.616-15.292,1.161-17.686-6.312c12.397-7.437,28.044-8.69,38.296-20.301
		c2.688-3.045,7.416-5.283,4.935-10.176c-2.244-4.424-6.511-4.833-11.501-4.479c-10.513,0.744-21.131,3.177-31.112-0.536
		C74.124,52.085,74.367,63.877,78.315,75.649z"/>
	<path fill-rule="evenodd" clip-rule="evenodd" d="M96.605,29.26c1.365-7.012,12.533-7.214,11.218-14.994
		c-1.136-6.729-8.524-8.883-13.462-13.33c14.233-0.347,27.328,6.476,26.862,13.672C120.827,20.726,106.22,29.599,96.605,29.26z"/>
	<path fill-rule="evenodd" clip-rule="evenodd" d="M80.786,9.07c-2.729-0.399-8.238,0.862-7.454-3.9
		c0.646-3.931,6.309-4.604,10.464-5.089c3.233-0.38,6.149,0.508,6.028,4.27C89.632,10.168,85.036,9.086,80.786,9.07z"/>
	<path fill-rule="evenodd" clip-rule="evenodd" fill="none" d="M78.315,75.649c-3.948-11.772-4.191-23.564,0.384-35.751
		c9.981,3.713,20.6,1.28,31.112,0.536c4.99-0.354,9.257,0.056,11.501,4.479c2.481,4.893-2.246,7.131-4.935,10.176
		C106.126,66.7,90.479,67.954,78.082,75.391C78.101,75.406,78.315,75.649,78.315,75.649z"/>
</g>
</svg>
