<?xml version="1.0" encoding="utf-8"?>
<!-- Generator: Adobe Illustrator 16.0.0, SVG Export Plug-In . SVG Version: 6.00 Build 0)  -->
<!DOCTYPE svg PUBLIC "-//W3C//DTD SVG 1.1//EN" "http://www.w3.org/Graphics/SVG/1.1/DTD/svg11.dtd">
<svg version="1.1" id="Layer_1" xmlns="http://www.w3.org/2000/svg" xmlns:xlink="http://www.w3.org/1999/xlink" x="0px" y="0px"
	 width="300px" height="100px" viewBox="0 0 300 100" enable-background="new 0 0 300 100" xml:space="preserve">
<g>
	<path fill-rule="evenodd" clip-rule="evenodd" fill="none" d="M2.662,56.84c-0.797,9.181-1.676,16.509-1.966,23.861
		c-0.151,3.757,0.547,7.6,1.313,11.312c0.232,1.12,1.911,2.588,3.042,2.695c1.173,0.109,3.19-0.949,3.607-1.99
		c1.268-3.171,2.495-6.54,2.733-9.902c0.492-6.959,0.163-13.971,0.519-20.945c0.191-3.8,0.797-7.646,1.813-11.307
		c0.402-1.448,2.435-2.444,3.724-3.647c1.086,1.288,2.941,2.471,3.13,3.877c1.024,7.624,1.626,15.308,2.395,22.966
		c0.383,3.819,0.147,7.862,1.367,11.398c2.027,5.884,6.75,6.652,10.272,1.739c2.191-3.057,4.307-6.872,4.556-10.478
		c0.583-8.489,0.674-17.135-0.322-25.564c-0.562-4.756-3.3-9.43-5.801-13.708c-1.198-2.049-4.353-4.621-6.226-4.338
		C15.146,34.57,8.889,29.938,6.653,18.443c-0.612-3.136-4.305-2.479-4.868,0.125c-1.203,5.551-1.994,11.365-1.737,17.019
		C0.395,43.258,1.883,50.879,2.662,56.84z M158.258,12.335c0,3.915-0.243,5.511,0.037,7.009c2.685,14.322,5.449,28.629,8.206,42.938
		c1.087,5.626,1.487,11.531,3.554,16.777c1.638,4.158,2.901,11.054,9.556,8.934c1.474-0.468,1.235-8.109,0.806-12.348
		c-0.697-6.874-2.435-13.636-3.216-20.506c-0.202-1.772,1.526-3.765,2.367-5.655c2.009,0.908,5.104,1.298,5.827,2.818
		c2.277,4.792,3.85,9.954,5.355,15.071c1.944,6.614,3.447,13.362,5.418,19.967c0.368,1.235,2.077,2.911,3.111,2.873
		c1.077-0.041,2.694-1.751,3.023-3.007c2.505-9.569,2.096-19.262-1.928-28.161c-3.622-8.013-7.95-15.884-18.227-17.873
		c-5.019-0.972-6.57-5.425-7.643-10.459c-1.416-6.646-3.87-13.199-6.864-19.31c-1.021-2.09-5.015-2.725-7.649-4.025
		C159.167,9.741,158.34,12.101,158.258,12.335z M291.25,38.819c0.175-0.028,0.35-0.057,0.523-0.086
		c-0.907-11.171-1.61-22.367-2.908-33.493c-0.233-2.009-2.732-4.931-4.542-5.224c-1.581-0.254-3.784,2.474-5.473,4.13
		c-0.762,0.748-1.21,2.063-1.336,3.172c-0.988,8.781-1.984,17.565-2.742,26.367c-0.827,9.592-1.19,19.229-2.153,28.805
		c-0.86,8.57,5.072,18.935,13.299,22.689c4.484,2.045,8.451,1.483,11.581-2.147c2.856-3.31,1.082-6.389-1.247-9.341
		c-4.018-5.09-5.372-10.958-5.062-17.417C291.471,50.469,291.25,44.639,291.25,38.819z M216.53,66.632
		c0.135,0.515,0.313,3.74,1.759,6.229c4.855,8.353,26.472,17.948,35.736,15.492c3.203-0.85,5.75-4.191,8.594-6.394
		c-2.648-0.955-5.284-1.948-7.956-2.842c-0.711-0.239-1.548-0.085-2.294-0.254c-5.365-1.217-6.35-3.211-3.624-8.16
		c1.851-3.361,4.46-6.322,6.172-9.741c3.512-7.009,1.879-15.629-3.401-20.026c-6.525-5.435-11.539-5.278-19.582,0.591
		c-2.502,1.822-5.103,3.515-7.515,5.445C218.953,51.346,216.246,57.067,216.53,66.632z M69.283,65.29
		c-0.622-0.15-1.245-0.299-1.87-0.449c0-3.468,0.311-6.97-0.083-10.394c-0.435-3.77-1.429-7.49-2.331-11.194
		c-2.75-11.289-11.295-14.263-20.861-7.308c-4.651,3.382-4.233,5.681,1.127,8.706c1.394,0.788,2.771,2.687,3.015,4.254
		c1.116,7.175,1.48,14.478,2.793,21.608c1.016,5.505,2.487,11.072,4.775,16.152c2.109,4.676,5.163,4.825,7.08,0.208
		C65.79,79.988,67.237,72.513,69.283,65.29z M128.349,82.513c4.055-1.002,8.347-1.488,12.076-3.199
		c2.304-1.057,3.746-3.985,5.574-6.074c-2.27-1.119-4.452-2.499-6.827-3.307c-4.602-1.559-9.599-2.217-13.903-4.325
		c-4.933-2.417-4.793-7.608-4.086-12.274c0.688-4.56,4.307-5.917,8.39-6.597c3.003-0.502,6.064-1.076,8.864-2.203
		c1.458-0.587,3.588-2.782,3.336-3.656c-0.534-1.876-2.088-4.102-3.811-4.874c-5.718-2.561-10.745,0.143-14.797,3.81
		c-3.979,3.604-7.366,7.937-10.623,12.244c-4.873,6.443-5.058,13.793-1.659,20.702C114.238,79.58,120.332,82.718,128.349,82.513z
		 M100.255,86.172c-1.296-9.469-2.342-17.78-3.627-26.052c-0.347-2.233-0.874-4.849-2.289-6.406
		c-1.833-2.015-4.638-3.144-7.025-4.654c-1.229,2.135-3.729,4.435-3.475,6.373c1.336,10.166,3.327,20.247,5.231,30.331
		c0.192,1.014,1.135,2.235,2.06,2.694c2.218,1.101,4.667,2.468,6.949,2.35C99.035,90.755,99.805,87.205,100.255,86.172z
		 M93.075,35.459c0.055-6.919-4.728-13.824-9.124-12.702c-1.944,0.498-4.377,3.318-4.645,5.344
		c-0.792,5.989,4.272,12.922,8.624,12.959C91.943,41.097,93.389,38.905,93.075,35.459z"/>
	<path fill-rule="evenodd" clip-rule="evenodd" d="M2.662,56.84c-0.779-5.96-2.267-13.582-2.614-21.253
		c-0.257-5.653,0.535-11.468,1.737-17.019c0.563-2.604,4.256-3.261,4.868-0.125c2.236,11.495,8.493,16.127,20.166,14.366
		c1.873-0.283,5.028,2.289,6.226,4.338c2.501,4.278,5.239,8.952,5.801,13.708c0.996,8.43,0.904,17.075,0.322,25.564
		c-0.25,3.606-2.365,7.421-4.556,10.478c-3.522,4.913-8.245,4.146-10.272-1.739c-1.22-3.536-0.984-7.579-1.367-11.398
		c-0.769-7.658-1.371-15.342-2.395-22.966c-0.188-1.407-2.043-2.59-3.13-3.877c-1.289,1.203-3.321,2.199-3.724,3.647
		c-1.016,3.661-1.622,7.507-1.813,11.307c-0.355,6.974-0.026,13.985-0.519,20.945c-0.239,3.362-1.465,6.731-2.733,9.902
		c-0.417,1.041-2.434,2.1-3.607,1.99c-1.131-0.107-2.81-1.575-3.042-2.695c-0.766-3.711-1.464-7.554-1.313-11.312
		C0.986,73.349,1.865,66.021,2.662,56.84z"/>
	<path fill-rule="evenodd" clip-rule="evenodd" d="M158.258,12.335c0.082-0.234,0.909-2.594,1.734-4.956
		c2.635,1.3,6.629,1.935,7.649,4.025c2.994,6.111,5.448,12.664,6.864,19.31c1.072,5.035,2.624,9.488,7.643,10.459
		c10.276,1.989,14.604,9.859,18.227,17.873c4.023,8.898,4.433,18.591,1.928,28.161c-0.329,1.256-1.946,2.966-3.023,3.007
		c-1.034,0.038-2.743-1.638-3.111-2.873c-1.971-6.605-3.474-13.353-5.418-19.967c-1.506-5.118-3.078-10.279-5.355-15.071
		c-0.723-1.521-3.818-1.91-5.827-2.818c-0.841,1.89-2.569,3.883-2.367,5.655c0.781,6.87,2.519,13.632,3.216,20.506
		c0.43,4.239,0.668,11.88-0.806,12.348c-6.654,2.12-7.918-4.776-9.556-8.934c-2.066-5.246-2.467-11.151-3.554-16.777
		c-2.757-14.309-5.521-28.616-8.206-42.938C158.015,17.846,158.258,16.25,158.258,12.335z"/>
	<path fill-rule="evenodd" clip-rule="evenodd" d="M291.25,38.819c0,5.819,0.221,11.65-0.06,17.457
		c-0.311,6.459,1.044,12.327,5.062,17.417c2.329,2.952,4.104,6.031,1.247,9.341c-3.13,3.63-7.097,4.192-11.581,2.147
		c-8.227-3.755-14.159-14.12-13.299-22.689c0.963-9.577,1.326-19.213,2.153-28.805c0.758-8.802,1.754-17.586,2.742-26.367
		c0.126-1.109,0.574-2.425,1.336-3.172c1.688-1.656,3.892-4.384,5.473-4.13c1.81,0.292,4.309,3.215,4.542,5.224
		c1.298,11.126,2.001,22.322,2.908,33.493C291.6,38.763,291.425,38.791,291.25,38.819z"/>
	<path fill-rule="evenodd" clip-rule="evenodd" d="M216.53,66.632c-0.284-9.565,2.423-15.286,7.889-19.661
		c2.412-1.931,5.013-3.623,7.515-5.445c8.043-5.869,13.057-6.026,19.582-0.591c5.28,4.397,6.913,13.018,3.401,20.026
		c-1.712,3.419-4.321,6.38-6.172,9.741c-2.726,4.949-1.741,6.943,3.624,8.16c0.746,0.169,1.583,0.016,2.294,0.254
		c2.672,0.894,5.308,1.887,7.956,2.842c-2.844,2.203-5.391,5.544-8.594,6.394c-9.265,2.456-30.881-7.139-35.736-15.492
		C216.843,70.373,216.665,67.147,216.53,66.632z M225.767,65.12c1.041,1.396,2.47,5.064,4.971,6.073
		c1.739,0.701,5.102-2.031,7.439-3.657c1.128-0.786,1.563-2.563,2.308-3.895c2.268-4.06,4.531-8.446,1.219-12.631
		c-1.272-1.612-4.646-2.339-6.976-2.182c-5.736,0.388-6.515,5.769-8.398,9.789C225.721,59.916,226.023,61.642,225.767,65.12z"/>
	<path fill-rule="evenodd" clip-rule="evenodd" d="M69.283,65.29c-2.046,7.223-3.493,14.699-6.354,21.583
		c-1.917,4.617-4.971,4.467-7.08-0.208c-2.288-5.081-3.759-10.647-4.775-16.152c-1.313-7.13-1.677-14.433-2.793-21.608
		c-0.244-1.567-1.621-3.466-3.015-4.254c-5.36-3.024-5.778-5.324-1.127-8.706C53.705,28.99,62.25,31.964,65,43.253
		c0.901,3.704,1.896,7.424,2.331,11.194c0.394,3.423,0.083,6.925,0.083,10.394C68.038,64.99,68.661,65.14,69.283,65.29z"/>
	<path fill-rule="evenodd" clip-rule="evenodd" d="M128.349,82.513c-8.017,0.205-14.11-2.934-17.465-9.754
		c-3.399-6.909-3.214-14.259,1.659-20.702c3.257-4.307,6.644-8.64,10.623-12.244c4.052-3.667,9.079-6.37,14.797-3.81
		c1.723,0.771,3.277,2.998,3.811,4.874c0.252,0.874-1.879,3.069-3.336,3.656c-2.8,1.127-5.86,1.701-8.864,2.203
		c-4.083,0.68-7.702,2.037-8.39,6.597c-0.707,4.667-0.847,9.857,4.086,12.274c4.305,2.108,9.302,2.766,13.903,4.325
		c2.375,0.808,4.558,2.188,6.827,3.307c-1.828,2.089-3.271,5.017-5.574,6.074C136.695,81.025,132.404,81.511,128.349,82.513z"/>
	<path fill-rule="evenodd" clip-rule="evenodd" d="M100.255,86.172c-0.45,1.032-1.221,4.583-2.175,4.635
		c-2.282,0.118-4.731-1.25-6.949-2.35c-0.925-0.458-1.868-1.68-2.06-2.694c-1.904-10.084-3.895-20.165-5.231-30.331
		c-0.255-1.938,2.245-4.238,3.475-6.373c2.387,1.511,5.193,2.639,7.025,4.654c1.415,1.557,1.942,4.172,2.289,6.406
		C97.913,68.393,98.959,76.704,100.255,86.172z"/>
	<path fill-rule="evenodd" clip-rule="evenodd" d="M93.075,35.459c0.313,3.446-1.132,5.638-5.145,5.601
		c-4.352-0.037-9.417-6.97-8.624-12.959c0.268-2.025,2.701-4.846,4.645-5.344C88.348,21.636,93.13,28.541,93.075,35.459z"/>
	<path fill-rule="evenodd" clip-rule="evenodd" fill="none" d="M225.767,65.12c0.257-3.478-0.046-5.204,0.563-6.503
		c1.884-4.02,2.662-9.401,8.398-9.789c2.329-0.158,5.703,0.57,6.976,2.182c3.313,4.186,1.049,8.572-1.219,12.631
		c-0.745,1.332-1.18,3.109-2.308,3.895c-2.338,1.626-5.7,4.358-7.439,3.657C228.236,70.184,226.808,66.515,225.767,65.12z"/>
</g>
</svg>
