<?xml version="1.0" encoding="utf-8"?>
<!-- Generator: Adobe Illustrator 16.0.0, SVG Export Plug-In . SVG Version: 6.00 Build 0)  -->
<!DOCTYPE svg PUBLIC "-//W3C//DTD SVG 1.1//EN" "http://www.w3.org/Graphics/SVG/1.1/DTD/svg11.dtd">
<svg version="1.1" id="Layer_1" xmlns="http://www.w3.org/2000/svg" xmlns:xlink="http://www.w3.org/1999/xlink" x="0px" y="0px"
	 width="300px" height="100px" viewBox="0 0 300 100" enable-background="new 0 0 300 100" xml:space="preserve">
<g>
	<path fill-rule="evenodd" clip-rule="evenodd" fill="none" d="M61.422,101.433c8.673-1.332,18.646-2.577,28.491-4.47
		c6.232-1.196,13.586-1.721,18.173-5.384c15.696-12.533,16-43.688-2.559-50.651c-3.401-1.275-6.455-3.47-9.679-5.221
		c-6.534-3.545-6.577-4.328-0.851-8.944c2.879-2.319,5.886-4.59,8.314-7.341c6.9-7.833,4.793-13.689-4.793-17.58
		C86.707-2.949,75.739,3.098,64.364,3.299c-0.917,0.017-1.803,1.882-2.703,2.888c0.93,0.739,1.846,2.102,2.79,2.12
		c7.8,0.152,15.628-0.271,23.398,0.207c2.855,0.174,5.584,2.306,8.372,3.543c-1.39,2.721-2.08,6.506-4.299,7.966
		c-7.651,5.03-15.905,9.13-23.763,13.863c-1.756,1.061-2.83,3.252-4.22,4.921c1.838,0.949,3.625,2.569,5.525,2.719
		c5.071,0.402,10.264-0.378,15.274,0.3c10.802,1.462,20.47,4.932,25.568,16.019c6.15,13.383-1.242,28.485-15.63,31.191
		c-5.878,1.104-11.781,2.099-17.637,3.316c-12.001,2.501-13.284,1.664-14.274-10.642c-1.892-23.441-3.622-46.895-5.579-70.331
		c-0.155-1.852-1.563-3.6-2.39-5.394c-1.006,1.724-2.831,3.417-2.89,5.171c-0.577,17.463-7.817,33.088-13.369,49.156
		c-0.813,2.357-3.126,4.195-4.745,6.272c-1.634-2.012-3.749-3.798-4.817-6.073c-7.015-14.933-13.801-29.97-20.663-44.976
		C4.163,40.955,2.023,66.518,0.014,92.094c-0.133,1.696,0.699,3.482,1.194,5.195c0.076,0.267,0.737,0.451,1.147,0.509
		c0.361,0.052,0.753-0.134,2.496-0.509C6.134,77.072,7.442,56.496,8.75,35.914c5.318,6.827,8.659,14.22,12.333,21.449
		c2.92,5.744,5.753,11.645,9.527,16.815c3.921,5.373,6.819,4.532,9.611-1.914c3.167-7.313,6.313-14.638,9.47-21.957
		c1.033,0.131,2.063,0.261,3.097,0.392C55.647,67.502,58.507,84.307,61.422,101.433z"/>
	<path fill-rule="evenodd" clip-rule="evenodd" d="M61.422,101.433c-2.915-17.126-5.774-33.931-8.635-50.733
		c-1.033-0.131-2.063-0.261-3.097-0.392c-3.157,7.319-6.303,14.644-9.47,21.957c-2.792,6.446-5.69,7.287-9.611,1.914
		c-3.773-5.171-6.606-11.071-9.527-16.815c-3.673-7.229-7.015-14.622-12.333-21.449C7.442,56.496,6.134,77.072,4.851,97.289
		c-1.743,0.375-2.134,0.561-2.496,0.509c-0.411-0.058-1.071-0.242-1.147-0.509c-0.495-1.713-1.327-3.499-1.194-5.195
		c2.009-25.576,4.149-51.139,8.298-76.558c6.862,15.006,13.648,30.043,20.663,44.976c1.068,2.275,3.184,4.062,4.817,6.073
		c1.618-2.077,3.932-3.915,4.745-6.272c5.552-16.068,12.792-31.693,13.369-49.156c0.06-1.754,1.884-3.447,2.89-5.171
		c0.826,1.794,2.235,3.542,2.39,5.394c1.958,23.437,3.687,46.89,5.579,70.331c0.99,12.306,2.273,13.143,14.274,10.642
		c5.856-1.218,11.759-2.213,17.637-3.316c14.388-2.706,21.781-17.809,15.63-31.191c-5.098-11.087-14.766-14.557-25.568-16.019
		c-5.011-0.678-10.204,0.103-15.274-0.3c-1.9-0.149-3.687-1.77-5.525-2.719c1.39-1.669,2.463-3.86,4.22-4.921
		c7.857-4.733,16.112-8.833,23.763-13.863c2.219-1.46,2.909-5.245,4.299-7.966c-2.787-1.237-5.517-3.369-8.372-3.543
		c-7.771-0.479-15.598-0.055-23.398-0.207c-0.943-0.019-1.86-1.381-2.79-2.12c0.9-1.006,1.786-2.871,2.703-2.888
		c11.375-0.201,22.343-6.248,34.154-1.457c9.587,3.891,11.694,9.747,4.793,17.58c-2.428,2.751-5.435,5.021-8.314,7.341
		c-5.726,4.616-5.683,5.399,0.851,8.944c3.224,1.751,6.278,3.945,9.679,5.221c18.559,6.963,18.254,38.118,2.559,50.651
		c-4.586,3.663-11.941,4.188-18.173,5.384C80.068,98.855,70.095,100.101,61.422,101.433z"/>
</g>
</svg>
