<?xml version="1.0" encoding="utf-8"?>
<!-- Generator: Adobe Illustrator 16.0.0, SVG Export Plug-In . SVG Version: 6.00 Build 0)  -->
<!DOCTYPE svg PUBLIC "-//W3C//DTD SVG 1.1//EN" "http://www.w3.org/Graphics/SVG/1.1/DTD/svg11.dtd">
<svg version="1.1" id="Layer_1" xmlns="http://www.w3.org/2000/svg" xmlns:xlink="http://www.w3.org/1999/xlink" x="0px" y="0px"
	 width="300px" height="100px" viewBox="0 0 300 100" enable-background="new 0 0 300 100" xml:space="preserve">
<g>
	<path fill-rule="evenodd" clip-rule="evenodd" fill="none" d="M66.888,16.623c-0.958-3.534-0.89-7.087-2.628-8.984
		c-5.167-5.636-12.613-6.485-19.75-7.625c-0.56-0.09-1.427,0.26-1.788,0.704c-0.958,1.18-1.716,2.521-2.556,3.798
		c1.058,0.611,2.048,1.531,3.184,1.779c3.826,0.827,7.692,1.49,11.563,2.072c4.393,0.66,5.594,3.841,4.7,7.266
		c-0.968,3.691-2.735,7.356-4.92,10.5c-3.579,5.152-3.729,5.689,2.228,8.107c5.665,2.3,10.441,5.79,14.067,10.6
		c3.876,5.142,4.453,12.94-2.879,17.063c-7.659,4.304-15.54,7.105-24.343,4.779c-2.97-0.784-4.84,0.401-5.536,2.612
		c-0.848,2.701,1.395,4.175,3.771,4.816c1.25,0.335,2.652,0.257,3.968,0.157c13.262-1.029,25.44-4.188,32.517-17.011
		c1.584-2.872,3.143-2.978,4.974-0.306c0.931,1.361,1.602,3.082,2.857,4.006c3.644,2.686,7.465,5.972,12.389,3.498
		c3.795-1.909,5.191-1.338,5.141,3.004c-0.01,0.83,1.688,2.424,2.438,2.333c1.028-0.123,2.805-1.658,2.698-2.345
		c-0.67-4.3,2.772-8.853-1.343-13.119c-1.4-1.453-1.02-4.909-0.931-7.429c0.079-2.25,1.144-4.452,1.308-6.709
		c0.43-5.935,0.312-5.845-6.802-7.166c-1.506-0.279-2.744-1.787-4.25-2.323c-6.445-2.295-11.015-0.011-13.085,6.514
		c-0.893,2.806-1.503,5.702-2.272,8.548c-0.288,1.064-0.671,2.105-1.013,3.157c-0.685-0.697-1.681-1.274-2.008-2.114
		c-2.777-7.09-7.503-12.318-14.253-15.875c-2.547-1.342-2.452-3.176-0.823-5.724C65.179,22.58,65.87,19.328,66.888,16.623z
		 M178.087,27.887c-0.021,0-0.043,0-0.065,0c0-1.992,0.311-4.052-0.106-5.955c-0.291-1.329-1.575-2.441-2.417-3.649
		c-1.222,0.997-3.277,1.824-3.522,3.021c-1.025,5.042-2.448,10.299-1.892,15.271c0.426,3.807-0.833,6.96-1.209,10.407
		c-0.083,0.76-1.659,2.102-1.896,1.974c-1.036-0.56-2.653-1.64-2.585-2.396c0.605-6.641-2.781-9.299-8.886-9.958
		c-1.521-0.163-2.872-1.594-4.375-2.278c-4.108-1.871-5.255-1.483-6.759,2.105c-1.527,3.639-1.08,4.816,3.582,5.779
		c6.431,1.328,9.255,6.001,11.256,11.353c1.14,3.055-2.063,7.517-5.697,7.996c-4.31,0.568-3.415-2.932-3.571-5.43
		c-0.041-0.659,0.301-1.437,0.052-1.971c-0.906-1.951-1.987-3.822-3.001-5.726c-1.622,1.553-3.942,2.841-4.663,4.735
		c-0.714,1.884-0.478,4.721,0.474,6.551c5.301,10.21,12.643,10.972,20.251,2.328c1.075-1.223,2.021-2.587,2.843-3.994
		c0.478-0.817,0.591-1.847,0.867-2.781c0.262,1.107,0.698,2.206,0.749,3.32c0.201,4.286,0.385,8.253,3.222,12.153
		c4.958,6.82,7.993,7.469,14.036,1.641c6.504-6.269,7.957-13.96,7.142-22.593c-0.558-5.901-2.791-9.498-8.855-10.27
		c-3.407-0.434-4.828-1.528-4.953-4.663C178.013,32.54,178.087,30.212,178.087,27.887z M37.149,21.49
		c-0.456,8.293,1.697,16.42-1.053,24.671c-1.388,4.166-0.254,9.202-0.058,13.838c0.027,0.66,1.208,1.802,1.845,1.794
		c1.177-0.015,2.924-0.39,3.388-1.207c0.756-1.332,0.896-3.138,0.906-4.747c0.074-11.953,0.163-23.906-0.031-35.857
		c-0.042-2.531-0.805-5.277-2.037-7.477c-0.732-1.31-2.998-2.306-4.624-2.385c-1.122-0.054-2.857,1.473-3.403,2.702
		c-1.735,3.905-3.06,7.995-4.512,12.025c-1.563,4.331-3.059,8.69-4.682,13c-0.189,0.501-0.963,0.902-1.546,1.067
		c-0.192,0.054-0.849-0.744-0.935-1.216c-1.402-7.736-2.971-15.454-4.016-23.24c-0.556-4.147-0.562-9.988-4.095-10.839
		C8.795,2.778,8.245,8.696,6.82,11.927c-0.908,2.062-2.058,4.023-2.886,6.113c-3.16,7.973-0.253,16.882-3.743,24.842
		c-0.367,0.835-0.106,1.974-0.034,2.966c0.332,4.448,3.201,8.764,0.168,13.468c-0.515,0.8,1.485,3.391,2.583,4.974
		c0.458,0.663,2.109,1.381,2.326,1.169c0.84-0.83,1.955-2.098,1.84-3.068C5.663,50.443,8.3,38.885,10.311,27.277
		c0.167-0.973,1.379-1.761,2.104-2.635c0.416,0.826,1.008,1.611,1.219,2.487c1.536,6.37,2.799,12.815,4.613,19.103
		c0.448,1.55,2.5,3.438,4.013,3.632c1.284,0.165,3.557-1.581,4.18-3.01C30.091,38.475,36.528,31.188,37.149,21.49z M111.672,55.788
		c0.874,9.303,1.54,16.483,2.235,23.661c0.061,0.635,0.099,1.543,0.5,1.829c1.482,1.052,3.05,2.389,4.717,2.603
		c0.757,0.098,2.582-2.168,2.599-3.381c0.053-3.569-0.064-7.292-1.055-10.679c-0.924-3.15-0.455-4.458,2.424-6.231
		c4.154-2.558,8.001-5.812,11.419-9.314c5.511-5.647,6.344-12.89,4.997-20.272c-0.363-1.991-2.287-4.715-4.05-5.243
		c-5.33-1.598-11.188-2.639-16.091,0.908c-3.625,2.623-8.458,5.681-7.364,10.913C113.249,46.539,111.73,52.154,111.672,55.788z
		 M257.128,59.715c0.247-0.038,0.494-0.077,0.741-0.115c0-3.319,0.24-6.662-0.12-9.937c-0.14-1.263-1.426-3.032-2.573-3.414
		c-2.344-0.779-3.48,0.835-3.888,3.153c-0.501,2.834-1.933,5.423-0.29,8.56c0.699,1.337-0.43,3.631-0.729,5.491
		c-1.383-0.77-2.794-1.491-4.142-2.316c-2.806-1.714-5.377-4.244-8.412-5.037c-3.824-1.001-5.885-2.442-5.846-6.552
		c0.012-1.209-0.686-2.524-1.344-3.617c-1.167-1.938-2.9-1.72-3.791,0c-0.859,1.653-1.424,3.76-1.257,5.589
		c0.507,5.533,0.968,11.143,2.335,16.495c1.24,4.863,4.223,9.058,8.834,11.546c4.459,2.406,7.411-1.03,10.642-3.188
		c0.546-0.366,1.207-0.559,1.757-0.921c1.945-1.281,3.598-1.665,4.497,1.166c0.194,0.611,0.553,1.318,1.054,1.653
		c1.466,0.98,3.044,1.794,4.577,2.674c0.196-1.594,0.728-3.231,0.525-4.771C258.975,70.669,258.005,65.198,257.128,59.715z
		 M302.292,70.052c-0.838-2.271-1.944-4.076-2.085-5.952c-0.167-2.221,0.34-4.539,0.843-6.75c0.78-3.426,1.031-6.843-2.317-8.865
		c-3.297-1.993-6.424-0.016-9.259,1.692c-1.062,0.639-1.806,1.869-2.573,2.919c-2.531,3.468-4.892,7.071-7.57,10.418
		c-0.852,1.066-2.492,1.5-3.771,2.224c-0.539-1.088-1.297-2.123-1.575-3.275c-0.843-3.499-1.129-7.18-2.338-10.533
		c-1.04-2.881-4.777-2.77-5.983,0.128c-0.682,1.642-0.891,3.843-0.412,5.535c1.162,4.091,2.653,8.121,4.381,12.014
		c2.618,5.898,7.351,6.483,11.454,1.559c2.756-3.301,5.35-6.738,8.096-10.047c0.773-0.934,1.83-1.631,2.756-2.435
		c0.433,1.125,1.231,2.248,1.241,3.378c0.03,3.718-0.007,7.414,3.166,10.051c0.925,0.769,2.657,1.833,3.242,1.479
		C300.771,72.875,301.423,71.281,302.292,70.052z M203.152,67.905c-0.298-0.024-0.594-0.047-0.891-0.071
		c0.141-1.538-0.25-3.994,0.523-4.439c2.184-1.262,4.811-2.076,7.331-2.292c1.107-0.095,2.523,1.551,3.526,2.654
		c0.863,0.948,1.167,2.412,2.046,3.334c0.585,0.612,2.031,1.18,2.59,0.868c1.046-0.582,2.539-1.926,2.429-2.767
		c-0.929-7.146-2.202-14.263-6.984-20.059c-0.466-0.565-1.972-0.818-2.662-0.499c-0.722,0.337-1.33,1.497-1.458,2.373
		c-0.131,0.892,0.161,2.017,0.653,2.796c2.173,3.431,0.182,5.061-2.717,5.69c-2.531,0.547-5.325,0.796-5.788-3.266
		c-0.251-2.219-1.25-4.403-2.21-6.465c-0.288-0.621-1.558-0.963-2.418-1.058c-0.376-0.042-1.059,0.788-1.258,1.347
		c-2.826,7.927,1.077,15.664,0.815,23.545c-0.034,0.98,1.523,2.067,2.436,3.015c1.822,1.895,2.992,0.487,3.668-1.058
		C203.25,70.488,203.053,69.131,203.152,67.905z M278.821,30.408c5.54-2.523,10.902-4.847,16.104-7.486
		c0.605-0.308,0.828-2.647,0.317-3.504c-0.48-0.809-2.461-1.571-3.261-1.204c-4.106,1.868-8.098,4.011-12.002,6.283
		c-1.036,0.603-1.875,1.891-2.301,3.05C277.45,28.164,278.291,29.177,278.821,30.408z"/>
	<path fill-rule="evenodd" clip-rule="evenodd" d="M66.888,16.623c-1.019,2.705-1.709,5.957-3.381,8.579
		c-1.629,2.548-1.724,4.381,0.823,5.724c6.75,3.558,11.476,8.786,14.253,15.875c0.327,0.84,1.323,1.417,2.008,2.114
		c0.342-1.052,0.725-2.093,1.013-3.157c0.77-2.847,1.38-5.743,2.272-8.548c2.07-6.525,6.64-8.809,13.085-6.514
		c1.506,0.536,2.744,2.044,4.25,2.323c7.114,1.321,7.232,1.231,6.802,7.166c-0.165,2.258-1.229,4.46-1.308,6.709
		c-0.089,2.52-0.469,5.976,0.931,7.429c4.115,4.266,0.673,8.818,1.343,13.119c0.107,0.687-1.67,2.222-2.698,2.345
		c-0.75,0.091-2.448-1.502-2.438-2.333c0.05-4.342-1.346-4.913-5.141-3.004c-4.924,2.474-8.745-0.812-12.389-3.498
		c-1.255-0.924-1.926-2.645-2.857-4.006c-1.831-2.672-3.39-2.566-4.974,0.306c-7.076,12.823-19.255,15.982-32.517,17.011
		c-1.316,0.1-2.719,0.179-3.968-0.157c-2.375-0.641-4.619-2.115-3.771-4.816c0.696-2.211,2.566-3.396,5.536-2.612
		c8.803,2.327,16.685-0.475,24.343-4.779c7.332-4.122,6.755-11.92,2.879-17.063c-3.625-4.81-8.402-8.299-14.067-10.6
		c-5.957-2.417-5.806-2.955-2.228-8.107c2.186-3.144,3.952-6.808,4.92-10.5c0.895-3.425-0.307-6.606-4.7-7.266
		c-3.87-0.582-7.737-1.245-11.563-2.072c-1.136-0.248-2.126-1.168-3.184-1.779c0.84-1.277,1.599-2.618,2.556-3.798
		c0.361-0.443,1.228-0.793,1.788-0.704c7.137,1.139,14.584,1.988,19.75,7.625C65.999,9.536,65.931,13.089,66.888,16.623z
		 M99.662,47.256c-0.026,0-0.051,0-0.076,0c0-1.33,0.099-2.667-0.019-3.984c-0.336-3.779-2.597-6.198-6.116-6.883
		c-3.667-0.713-3.608,3.159-5.136,5.059c-3.001,3.735-1.437,7.731,0.164,11.177c0.969,2.091,4.42,5.072,5.542,4.623
		c2.312-0.927,4.013-3.751,5.539-6.073C100.17,50.248,99.662,48.583,99.662,47.256z"/>
	<path fill-rule="evenodd" clip-rule="evenodd" d="M178.087,27.887c0,2.325-0.074,4.653,0.019,6.973
		c0.125,3.135,1.546,4.229,4.953,4.663c6.064,0.772,8.297,4.369,8.855,10.27c0.815,8.633-0.638,16.324-7.142,22.593
		c-6.043,5.828-9.078,5.179-14.036-1.641c-2.837-3.9-3.021-7.867-3.222-12.153c-0.051-1.115-0.487-2.213-0.749-3.32
		c-0.276,0.934-0.39,1.964-0.867,2.781c-0.822,1.407-1.768,2.771-2.843,3.994c-7.608,8.644-14.95,7.882-20.251-2.328
		c-0.951-1.83-1.188-4.667-0.474-6.551c0.721-1.895,3.041-3.182,4.663-4.735c1.014,1.904,2.095,3.775,3.001,5.726
		c0.249,0.534-0.093,1.312-0.052,1.971c0.157,2.499-0.738,5.998,3.571,5.43c3.634-0.479,6.837-4.94,5.697-7.996
		c-2.001-5.352-4.826-10.025-11.256-11.353c-4.662-0.963-5.109-2.14-3.582-5.779c1.504-3.588,2.651-3.977,6.759-2.105
		c1.504,0.685,2.854,2.116,4.375,2.278c6.105,0.659,9.492,3.317,8.886,9.958c-0.068,0.756,1.549,1.835,2.585,2.396
		c0.237,0.128,1.813-1.214,1.896-1.974c0.376-3.447,1.635-6.6,1.209-10.407c-0.557-4.973,0.866-10.23,1.892-15.271
		c0.246-1.197,2.3-2.025,3.522-3.021c0.841,1.208,2.125,2.321,2.417,3.649c0.417,1.903,0.106,3.963,0.106,5.955
		C178.044,27.887,178.066,27.887,178.087,27.887z M175.974,62.72c0,1.653-0.117,2.662,0.033,3.629
		c0.147,0.93,0.512,2.552,0.882,2.583c1.133,0.091,2.598-0.104,3.42-0.799c1.739-1.472,3.434-3.152,4.648-5.061
		c3.278-5.149,0.708-13.096-5.058-15.468c-0.847-0.348-3.481,1.432-3.458,1.491C178.394,53.948,176.758,58.654,175.974,62.72z"/>
	<path fill-rule="evenodd" clip-rule="evenodd" d="M37.149,21.49c-0.622,9.698-7.059,16.985-10.708,25.364
		c-0.624,1.429-2.896,3.175-4.18,3.01c-1.513-0.195-3.565-2.083-4.013-3.632c-1.814-6.288-3.078-12.733-4.613-19.103
		c-0.211-0.876-0.804-1.661-1.219-2.487c-0.725,0.875-1.937,1.663-2.104,2.635C8.3,38.885,5.663,50.443,7.076,62.391
		c0.115,0.97-1,2.238-1.84,3.068c-0.217,0.212-1.869-0.506-2.326-1.169c-1.099-1.583-3.098-4.174-2.583-4.974
		c3.032-4.704,0.163-9.02-0.168-13.468c-0.072-0.992-0.333-2.131,0.034-2.966c3.49-7.959,0.583-16.869,3.743-24.842
		c0.828-2.09,1.978-4.052,2.886-6.113c1.425-3.231,1.976-9.149,5.478-8.308c3.534,0.851,3.54,6.692,4.095,10.839
		c1.045,7.787,2.614,15.504,4.016,23.24c0.086,0.472,0.743,1.27,0.935,1.216c0.583-0.165,1.357-0.566,1.546-1.067
		c1.623-4.31,3.119-8.669,4.682-13c1.452-4.03,2.777-8.12,4.512-12.025c0.546-1.229,2.281-2.755,3.403-2.702
		c1.626,0.079,3.891,1.075,4.624,2.385c1.232,2.2,1.995,4.946,2.037,7.477c0.193,11.951,0.104,23.905,0.031,35.857
		c-0.01,1.609-0.15,3.415-0.906,4.747c-0.464,0.817-2.211,1.192-3.388,1.207c-0.637,0.008-1.818-1.134-1.845-1.794
		c-0.196-4.636-1.33-9.672,0.058-13.838C38.847,37.91,36.693,29.783,37.149,21.49z"/>
	<path fill-rule="evenodd" clip-rule="evenodd" d="M111.672,55.788c0.058-3.634,1.576-9.249,0.33-15.208
		c-1.094-5.232,3.738-8.291,7.364-10.913c4.902-3.547,10.761-2.506,16.091-0.908c1.764,0.528,3.688,3.252,4.05,5.243
		c1.347,7.382,0.515,14.625-4.997,20.272c-3.417,3.503-7.265,6.756-11.419,9.314c-2.878,1.772-3.348,3.081-2.424,6.231
		c0.991,3.387,1.107,7.11,1.055,10.679c-0.017,1.213-1.842,3.479-2.599,3.381c-1.667-0.213-3.235-1.55-4.717-2.603
		c-0.401-0.286-0.438-1.194-0.5-1.829C113.212,72.271,112.546,65.091,111.672,55.788z M118.063,45.759
		c-0.234,0.063-0.467,0.125-0.699,0.188c0.908,3.271,1.136,7.019,2.972,9.642c1.145,1.636,8.435-3.514,10.338-7.536
		c0.833-1.758,1.453-3.678,1.794-5.594c0.568-3.183-3.432-7.986-6.508-8.083c-4.85-0.155-7.662,2.112-7.882,6.431
		C117.991,42.455,118.063,44.108,118.063,45.759z"/>
	<path fill-rule="evenodd" clip-rule="evenodd" d="M257.128,59.715c0.877,5.483,1.847,10.954,2.569,16.458
		c0.203,1.54-0.329,3.177-0.525,4.771c-1.533-0.88-3.111-1.694-4.577-2.674c-0.501-0.334-0.86-1.042-1.054-1.653
		c-0.899-2.831-2.551-2.447-4.497-1.166c-0.55,0.362-1.21,0.555-1.757,0.921c-3.231,2.158-6.183,5.595-10.642,3.188
		c-4.611-2.488-7.594-6.683-8.834-11.546c-1.367-5.353-1.829-10.962-2.335-16.495c-0.167-1.829,0.398-3.936,1.257-5.589
		c0.89-1.72,2.624-1.938,3.791,0c0.658,1.093,1.356,2.408,1.344,3.617c-0.039,4.11,2.021,5.551,5.846,6.552
		c3.034,0.793,5.605,3.323,8.412,5.037c1.348,0.825,2.759,1.547,4.142,2.316c0.299-1.86,1.429-4.154,0.729-5.491
		c-1.643-3.137-0.212-5.725,0.29-8.56c0.408-2.318,1.544-3.932,3.888-3.153c1.147,0.382,2.434,2.15,2.573,3.414
		c0.36,3.275,0.12,6.618,0.12,9.937C257.622,59.638,257.375,59.677,257.128,59.715z M245.208,71.139
		c-0.217-1.053-0.126-1.958-0.507-2.249c-2.831-2.171-5.729-4.255-8.724-6.188c-0.132-0.084-2.149,1.793-1.979,2.358
		c0.75,2.468,1.571,5.142,3.193,7.033c0.963,1.12,3.483,1.264,5.269,1.177C243.464,73.22,244.4,71.807,245.208,71.139z"/>
	<path fill-rule="evenodd" clip-rule="evenodd" d="M302.292,70.052c-0.869,1.229-1.52,2.822-2.704,3.54
		c-0.584,0.355-2.316-0.71-3.242-1.479c-3.173-2.638-3.136-6.333-3.166-10.051c-0.01-1.13-0.808-2.253-1.241-3.378
		c-0.927,0.804-1.983,1.501-2.756,2.435c-2.746,3.31-5.34,6.746-8.096,10.047c-4.103,4.924-8.836,4.339-11.454-1.559
		c-1.728-3.893-3.219-7.923-4.381-12.014c-0.479-1.691-0.27-3.893,0.412-5.535c1.206-2.897,4.943-3.009,5.983-0.128
		c1.209,3.353,1.496,7.034,2.338,10.533c0.277,1.152,1.036,2.187,1.575,3.275c1.279-0.724,2.919-1.158,3.771-2.224
		c2.678-3.348,5.04-6.95,7.57-10.418c0.767-1.05,1.511-2.28,2.573-2.919c2.834-1.708,5.962-3.685,9.259-1.692
		c3.349,2.022,3.098,5.439,2.317,8.865c-0.503,2.21-1.01,4.529-0.843,6.75C300.348,65.976,301.453,67.781,302.292,70.052z"/>
	<path fill-rule="evenodd" clip-rule="evenodd" d="M203.152,67.905c-0.099,1.226,0.099,2.583-0.368,3.648
		c-0.677,1.545-1.847,2.953-3.668,1.058c-0.913-0.947-2.469-2.034-2.436-3.015c0.262-7.881-3.641-15.619-0.815-23.545
		c0.199-0.559,0.882-1.389,1.258-1.347c0.86,0.094,2.13,0.437,2.418,1.058c0.959,2.062,1.959,4.246,2.21,6.465
		c0.462,4.062,3.256,3.813,5.788,3.266c2.899-0.629,4.891-2.26,2.717-5.69c-0.492-0.779-0.784-1.904-0.653-2.796
		c0.128-0.876,0.735-2.035,1.458-2.373c0.69-0.319,2.195-0.067,2.662,0.499c4.782,5.795,6.055,12.913,6.984,20.059
		c0.11,0.841-1.383,2.185-2.429,2.767c-0.559,0.312-2.005-0.256-2.59-0.868c-0.879-0.922-1.183-2.386-2.046-3.334
		c-1.003-1.103-2.419-2.75-3.526-2.654c-2.52,0.217-5.146,1.03-7.331,2.292c-0.773,0.445-0.382,2.901-0.523,4.439
		C202.558,67.858,202.854,67.881,203.152,67.905z"/>
	<path fill-rule="evenodd" clip-rule="evenodd" d="M278.821,30.408c-0.53-1.23-1.372-2.244-1.144-2.861
		c0.427-1.159,1.265-2.448,2.301-3.05c3.904-2.271,7.896-4.415,12.002-6.283c0.799-0.367,2.781,0.395,3.261,1.204
		c0.511,0.857,0.289,3.197-0.317,3.504C289.723,25.561,284.361,27.884,278.821,30.408z"/>
	<path fill-rule="evenodd" clip-rule="evenodd" fill="none" d="M99.662,47.256c0,1.328,0.508,2.992-0.102,3.918
		c-1.526,2.322-3.227,5.146-5.539,6.073c-1.121,0.449-4.572-2.532-5.542-4.623c-1.601-3.445-3.165-7.442-0.164-11.177
		c1.528-1.9,1.469-5.772,5.136-5.059c3.519,0.686,5.78,3.104,6.116,6.883c0.117,1.317,0.019,2.654,0.019,3.984
		C99.611,47.256,99.636,47.256,99.662,47.256z"/>
	<path fill-rule="evenodd" clip-rule="evenodd" fill="none" d="M175.974,62.72c0.785-4.066,2.42-8.772,0.468-13.625
		c-0.023-0.06,2.611-1.839,3.458-1.491c5.765,2.372,8.335,10.319,5.058,15.468c-1.214,1.909-2.909,3.589-4.648,5.061
		c-0.822,0.695-2.287,0.89-3.42,0.799c-0.371-0.03-0.735-1.653-0.882-2.583C175.857,65.382,175.974,64.373,175.974,62.72z"/>
	<path fill-rule="evenodd" clip-rule="evenodd" fill="none" d="M118.063,45.759c0-1.65-0.072-3.304,0.014-4.951
		c0.221-4.319,3.033-6.586,7.882-6.431c3.076,0.097,7.076,4.9,6.508,8.083c-0.341,1.916-0.962,3.835-1.794,5.594
		c-1.903,4.022-9.193,9.172-10.338,7.536c-1.835-2.623-2.063-6.371-2.972-9.642C117.596,45.884,117.829,45.821,118.063,45.759z"/>
	<path fill-rule="evenodd" clip-rule="evenodd" fill="none" d="M245.208,71.139c-0.808,0.668-1.744,2.082-2.748,2.13
		c-1.786,0.087-4.306-0.057-5.269-1.177c-1.623-1.891-2.443-4.564-3.193-7.033c-0.17-0.565,1.847-2.442,1.979-2.358
		c2.995,1.934,5.893,4.017,8.724,6.188C245.081,69.181,244.991,70.085,245.208,71.139z"/>
</g>
</svg>
