<?xml version="1.0" encoding="utf-8"?>
<!-- Generator: Adobe Illustrator 16.0.0, SVG Export Plug-In . SVG Version: 6.00 Build 0)  -->
<!DOCTYPE svg PUBLIC "-//W3C//DTD SVG 1.1//EN" "http://www.w3.org/Graphics/SVG/1.1/DTD/svg11.dtd">
<svg version="1.1" id="Layer_1" xmlns="http://www.w3.org/2000/svg" xmlns:xlink="http://www.w3.org/1999/xlink" x="0px" y="0px"
	 width="300px" height="100px" viewBox="0 0 300 100" enable-background="new 0 0 300 100" xml:space="preserve">
<g>
	<g>
		<path fill-rule="evenodd" clip-rule="evenodd" d="M0.077,24.564c1.518,0.314,0.942-13.932,2.345-15.674
			c4.135,0,6.213,8.201,6.393,11.591c0.542,9.795,6.145,18.575,7.863,27.633c0.659,3.479,8.817,11.974,8.885,4.7
			c0.037-3.785,0.962-6.599,0.96-10.074c-0.002-2.428,0.313-8.075,1.604-10.356c0.427-0.759,1.367-4.832,1.395-5.773
			c0.014-0.607,0.183-7.844,0.144-7.786c1.173-1.663,4.385-3.036,3.816-5.62c-0.703-3.183-1.326-5.08,0.373-8.211
			c5.86,5.939,6.204,18.341,7.319,26.419c1.804,13.09-0.02,24.73,3.046,37.013c-4.482,0-5.864-25.313-5.883-30.637
			c-0.018-4.579-1.921-8.624-1.988-12.419c-0.029-1.775-0.042-3.551-0.036-5.328c-0.006-1.832-1.985-2.574-1.963-0.68
			c0.017,1.662-2.02,4.166-1.916,6.422c0.371,8.058-2.635,17.835-4.032,25.644c-0.204,1.128-0.884,2.237-0.957,3.182
			c-0.315,4.066-3.346,2.626-4.024,4.79c-0.87,2.777-10.123-7.605-10.497-7.845c3.081-4.686-3.75-10.362-4.014-14.958
			c-0.103-1.761-3.55-11.233-4.89-11.173c0,1.959-0.833,20.473-0.865,20.465c2.028,0.53,2.006,16.352,1.329,17.707
			C-0.948,52.121,0.077,37.752,0.077,24.564C0.934,24.742,0.077,31.362,0.077,24.564z"/>
		<path fill-rule="evenodd" clip-rule="evenodd" d="M55.926,0c0.731,3.074,7.274,3.973,9.937,3.992
			c3.818,0.03,6.509,0.218,9.79-1.599c3.555-1.967,12.449-0.319,16.541-0.316c3.625,0.003,8.803,0.856,11.358,2.942
			c5.169,4.327-1.943,4.878-1.786,7.784c0.158,3.01-7.432,9.479-9.686,9.664c-2.98,0.245-1.833,3.745-4.5,3.925
			c-2.463,2.504-6.546,4.931-8.367,7.587c-1.508,2.205-4.052,2.569-5.698,4.479c-1.263,1.459-1.583,3.759-2.691,4.902
			c0.06-0.063-3.875,1.581-3.854,1.581c-3.476-0.185-2.73,4.344-3.384,6.057c7.996,0,15.207-0.964,23.503-0.984
			c5.538-0.016,20.64-4.1,22.701,4.811c-3.232,0-6.233-4.598-6.96,0.083c-0.478,3.151-6.926-3.54-9.262-3.032
			c-3.496,0.745-5.982-0.556-9.806-0.046c-2.64,0.352-7.37,1.893-10.18,1.924c-6.156,0.053-9.109,0.232-13.127-3.819
			c-1.927-1.942,2.348-6.53,4.744-6.89c2.923-0.43,7.439-5.742,7.439-8.447c2.021-1.769,5.563-4.22,7.917-5.741
			c5.142-3.325,11.587-9.825,16.012-15.124c7.591-9.087-2.428-8.163-9.861-6.969c0.126-0.021-17.894,0.322-18.143-0.789
			C68.181,4.284,53.439,10.044,52.915,0C53.918,0,54.923,0,55.926,0C56.003,0.326,54.923,0,55.926,0z"/>
		<path fill-rule="evenodd" clip-rule="evenodd" d="M298.792,90.147c-0.632-0.246-1.741,0.835-2.928,0.835
			c0-2.878-0.021-5.756-0.029-8.633c-0.011-5.235-1.85-9.093-1.893-13.867c-0.025-2.735-1.051-17.143-4.2-18.06
			c2.023-0.749,0.711-2.078,1.418-3.469c-7.508,0-7.524,0.979-13.867-5.332c0-2.563-2.089-4.886-3.047-7.414
			c-1.275-3.381-1.826-4.617-1.826-8.493c3.341-0.793,5.561,8.026,5.701,10.053c0.303,4.79,11.872,12.752,11.884,6.456
			c0.005-3.319-2.71-23.127,0.094-25.069c1.932-1.334-0.229-6.376,3.814-6.258c3.924,0.112,0.063,7.384,2.574,7.889
			c0.716,0.147,1.294,8.702,1.294,8.659c0.005,4.961-2.768,4.765-2.979,8.51c-0.254,4.48-2.564,13.046-0.894,17.675
			c1.442,3.996,2.239,10.33,2.842,14.719c0.076,0.551,1.138,5.001,1.226,5.07C300.234,75.225,298.792,86.514,298.792,90.147
			C298.035,89.854,298.792,84.586,298.792,90.147z M295.856,28.319c0.627-2.018,0.167-3.638-1.372-4.868
			C294.725,23.697,289.629,29.517,295.856,28.319C295.856,27.207,293.902,28.693,295.856,28.319z"/>
		<path fill-rule="evenodd" clip-rule="evenodd" d="M154.785,38.202c3.433,0.155,6.804,7.521,6.804,11.436
			c-8.711,2.161-7.062-16.347-11.475-17.582c-2.531-0.708-1.771-12.824,0.191-14.351c1.739-1.348,4.385-4.859,7.245-4.899
			c6.424-0.086,10.901,5.709,11.88,11.345c0.02,0.119,1.852,4.346,1.083,4.082c2.619,0.902-0.155,4.732-0.182,5.88
			c-0.001,0.106-5.37,3.775-2.361,5.089c1.898,0.812,3.802,0.77,5.273,2.336c3.497,3.727,12.612,4.423,11.815,11.227
			c-1.433-0.096-9.602-5.636-9.797-6.717c-0.147-0.842-5.431-2.912-6.513-3.083c-0.946-2.554-6.131-2.68-8.038-4.405
			c-2.433-2.197,3.535-3.107,5.329-5.161c1.187-1.362,0.038-10.998-1.504-11.075c0.863-1.644-2.118-4.515-3.735-3.695
			c-0.261-3.953-4.38-1.029-7.068-1.029C153.732,24.868,154.785,31.386,154.785,38.202
			C155.794,38.249,154.785,37.121,154.785,38.202z"/>
		<path fill-rule="evenodd" clip-rule="evenodd" d="M121.268,34.95c4.552-2.043,13.053-3.335,7.769-9.48
			c-2.258-2.623-1.017-7.713-5.311-7.953c-0.929-5.056-7.904,3.634-7.904-3.661c2.132-0.185,0.909-0.986,2.824-1.031
			c6.719-0.158,7.85,0.612,12.584,5.327c0,2.615,1.704,4.305,2.014,6.835c0.792,6.498,6.791,13.099,6.791,19.8
			c-2.541,0.62-5.001-4.513-6.625-6.023c0.778-4.607-4.779-3.319-6.173-3.59c-1.642-0.32-6.125,1.913-7.338,2.982
			c-2.124,1.865-2.849,3.933-4.933,5.89c-3.143,2.938,2.42,3.424-1.097,6.014c-0.668,0.491-2.708,4.343-3.053,0.185
			c0.007,0.101,0.978-5.487,0.975-4.986C111.798,41.953,121.303,35.054,121.268,34.95C121.716,34.749,121.301,35.051,121.268,34.95z
			"/>
		<path fill-rule="evenodd" clip-rule="evenodd" d="M250.791,28.491c8.745,0,11.646,7.317,13.723,14.49
			c0.999-0.318,1.842,5.01,1.841,6.05c-0.004,0.671,2.571,6.395,0.392,6.639c-1.934,0.213-0.465-1.778-1.959-1.989
			c0.205,0.027-4.87-16.317-5.734-17.563c-2.053-3.038-7.358-9.509-7.338-1.231c0,5.244,0.951,11.953,0.951,17.745
			c-6.316,1.271-0.686-13.14-4.502-13.604c1.203,0.146-2.173-6.596-2.166-6.469c-0.146-2.352-3.317-5.71-5.812-6.338
			c-3.697-0.934,1.823-9.965,2.712-2.273C243.211,26.645,252.168,34.474,250.791,28.491
			C252.682,28.491,251.054,29.636,250.791,28.491z"/>
		<path fill-rule="evenodd" clip-rule="evenodd" d="M182.183,30.506c0,1.393,1.291,5.524,0.592,6.546
			c-3.479-2.494-6.463-3.518-3.836-7.644c0.89-1.396,9.224-5.75,10.847-5.771c4.733-0.056,9.352,1.662,12.682,5.023
			c2.622,2.649,5.448,19.85-0.502,17.068c-0.321-3.805,0.218-16.485-5.682-17.414C191.243,27.514,187.247,29.033,182.183,30.506
			C182.183,31.529,182.901,30.296,182.183,30.506z"/>
		<path fill-rule="evenodd" clip-rule="evenodd" d="M231.004,16.802c1.842,6.396,0.088,13.588,0.087,20.27
			c-0.006,11.659-9.642-0.396-12.724-3.65c-1.869-1.978-6.603-5.743-7.472-8.342c-0.6-1.799-0.02-8.523,0.712-5.862
			c1.864,6.752,10.059,14.123,15.433,18.053C228.589,33.259,226.562,16.321,231.004,16.802
			C231.233,17.597,229.232,16.61,231.004,16.802z"/>
		<path fill-rule="evenodd" clip-rule="evenodd" d="M186.149,34.146c1.56,0.978,11.767,14.052,11.416,14.703
			c-5.955,0-17.449-12.108-11.764-16.292C186.11,33.034,186.227,33.563,186.149,34.146
			C187.097,34.739,186.128,33.817,186.149,34.146z"/>
		<path fill-rule="evenodd" clip-rule="evenodd" d="M108.829,27.123c0-2.703,2.357-5.508,2.019-7.427
			c-0.326-1.813,4.131-3.651,4.708-1.704c0.094,0.339-2.609,3.47-2.784,3.774C111.256,24.436,114.597,29.385,108.829,27.123
			C108.829,25.712,110.858,27.919,108.829,27.123z"/>
		<path fill-rule="evenodd" clip-rule="evenodd" d="M130.216,43.295c0,3.925,1.793,6.443-2.87,6.443
			c-2.536,0-5.734,1.437-5.734-1.726C123.063,48.013,131.576,44.862,130.216,43.295C130.216,45.406,130.144,43.212,130.216,43.295z"
			/>
	</g>
</g>
</svg>
