<?xml version="1.0" encoding="utf-8"?>
<!-- Generator: Adobe Illustrator 16.0.0, SVG Export Plug-In . SVG Version: 6.00 Build 0)  -->
<!DOCTYPE svg PUBLIC "-//W3C//DTD SVG 1.1//EN" "http://www.w3.org/Graphics/SVG/1.1/DTD/svg11.dtd">
<svg version="1.1" id="Layer_1" xmlns="http://www.w3.org/2000/svg" xmlns:xlink="http://www.w3.org/1999/xlink" x="0px" y="0px"
	 width="300px" height="100px" viewBox="0 0 300 100" enable-background="new 0 0 300 100" xml:space="preserve">
<g>
	<path fill-rule="evenodd" clip-rule="evenodd" fill="none" d="M214.878,36.696c-3.802,0.242-7.614,0.392-11.405,0.75
		c-3.765,0.355-4.223,0.006-4.421-3.701c-0.177-3.284-0.396-6.573-0.849-9.826c-0.092-0.667-1.29-1.185-1.977-1.769
		c-0.447,0.627-1.128,1.205-1.278,1.896c-0.176,0.813,0.101,1.728,0.193,2.596c0.586,5.502,1.043,11.024,1.821,16.5
		c0.373,2.626,1.355,5.167,2.061,7.747c2.603-2.391,1.06-5.017,0.439-7.597c-0.41-1.705-0.071-2.663,2.045-2.418
		c2.426,0.278,4.885,0.372,7.331,0.379c3.601,0.009,5.376-1.472,5.942-4.726c0.556,1.797,1.176,3.577,1.648,5.395
		c0.48,1.85,0.713,3.77,1.263,5.597c0.208,0.689,0.993,1.203,1.516,1.795c0.376-0.657,1.131-1.347,1.072-1.96
		c-0.675-7.091-1.45-14.172-2.291-21.243c-0.057-0.475-1.101-1.301-1.263-1.209c-0.67,0.374-1.635,1.022-1.657,1.604
		c-0.073,1.904,0.329,3.823,0.327,5.736C215.396,33.727,215.064,35.211,214.878,36.696z M0,46.091
		c0.271,0.011,0.543,0.023,0.815,0.034c1.697-5.951,3.777-11.823,4.988-17.871C7.057,22,7.463,15.579,8.268,9.002
		c0.48,0.739,1.211,1.388,1.342,2.14c1.164,6.65,5.457,12.385,5.545,19.383c0.021,1.625,1.26,3.214,1.832,4.854
		c0.863,2.479,2.112,1.42,2.91,0.173c2.705-4.238,5.227-8.592,7.85-12.884c1.164-1.907,2.349-3.809,3.648-5.624
		c0.343-0.478,1.142-0.631,1.73-0.931c0.279,0.566,0.76,1.114,0.803,1.699c0.354,4.672,0.578,9.354,0.935,14.025
		c0.361,4.708,0.831,9.406,1.244,14.108c0.046,0.518-0.124,1.117,0.084,1.537c0.177,0.354,0.739,0.594,1.176,0.7
		c0.197,0.049,0.667-0.305,0.729-0.546c0.165-0.663,0.253-1.364,0.235-2.045c-0.191-7.683-0.26-15.375-0.683-23.045
		c-0.192-3.47-1.018-6.917-1.773-10.325c-0.103-0.465-1.935-1.132-2.188-0.889c-2.369,2.248-5.002,4.403-6.722,7.115
		c-2.974,4.685-5.349,9.749-7.977,14.652c-2.703-10.455-5.345-20.496-10.914-30.65c-4.334,11.89-3.909,23.805-7.19,34.92
		C0.07,40.124,0.267,43.176,0,46.091z M163.91,0c0.82,12.016,2.033,23.861,0.698,35.8c-0.421,3.759,1.392,7.525,4.306,10.178
		c2.051,1.869,4.657,3.257,7.645,2.264c4.998-1.664,7.62-5.465,7.812-11.007c0.179-5.2-3.07-8.573-8.303-8.218
		c-2.671,0.181-5.3,0.981-7.479,1.408c-0.288-8.736-0.531-17.603-0.903-26.461C167.596,1.854,166.359,0.448,163.91,0z M49.558,10.5
		c-1.224,0-2.529-0.268-3.646,0.08c-0.942,0.297-2.27,1.264-2.315,2.005c-0.051,0.777,1.071,2.068,1.946,2.372
		c1.783,0.625,3.733,0.882,5.634,1.025c3.143,0.24,4.908,2.192,6.37,4.646c1.471,2.47-0.404,3.719-1.771,5.295
		c-1.17,1.35-1.092,2.32,1.157,2.648c3.56,0.517,7.076,1.368,10.586,2.194c3.215,0.758,5.047,2.818,5.202,5.589
		c0.134,2.444-1.829,5.929-4.26,6.685c-2.121,0.658-4.431,0.723-6.66,1.015c-2.565,0.337-5.234,0.308-7.663,1.064
		c-1.697,0.529-3.041,1.325-4.862,0.356c-0.834-0.444-2.089-0.367-3.075-0.158c-0.605,0.128-1.595,1.264-1.506,1.417
		c0.518,0.881,1.356,2.306,1.988,2.259c2.553-0.193,5.054-0.977,7.604-1.312c2.882-0.378,5.801-0.712,8.7-0.704
		c4.168,0.014,7.706-0.828,10.388-4.444c2.596-3.5,2.949-8.927-0.178-11.912c-2.074-1.98-4.665-4.175-7.308-4.634
		c-4.628-0.805-5.741-3.615-6.452-7.411C58.271,12.354,55.866,10.462,49.558,10.5z M94.354,38.165
		c1.19,2.817,2.283,5.745,3.688,8.512c0.4,0.792,1.713,1.121,2.607,1.662c0.116-0.946,0.601-2.042,0.288-2.813
		c-2.115-5.216-3.559-10.52-3.767-16.213c-0.111-3.084-1.641-5.99-4.945-6.646c-2.454-0.485-5.123-0.093-7.67,0.166
		c-3.688,0.374-6.191,2.433-6.64,6.167c-0.389,3.239-0.47,6.56-0.254,9.816c0.224,3.367,2.231,5.862,4.991,7.763
		c1.503,1.036,2.972,1.126,4.239-0.208C89.342,43.785,91.691,41.106,94.354,38.165z M124.687,30.335
		c0.026,3.514-1.263,4.729-5.445,5.721c-2.931,0.692-4.23-0.297-4.56-3.242c-0.191-1.705-1.38-2.268-3.077-1.567
		c-1.764,0.729-2.369,1.806-1.661,3.694c1.082,2.89,2.264,5.781,2.935,8.776c0.831,3.716,1.085,7.56,1.81,11.305
		c0.185,0.951,1.213,1.739,1.853,2.601c0.22-0.896,0.642-1.794,0.63-2.685c-0.047-3.961-0.298-7.922-0.275-11.879
		c0.005-0.729,0.992-2.112,1.438-2.079c5.86,0.467,7.738-4.005,9.492-8.001c1.878-4.279,0.084-8.085-3.057-11.341
		c-3.772-3.915-8.174-3.884-11.869,0.358c-0.816,0.94-1.922,2.844-1.555,3.37c1.198,1.717,2.328-0.115,3.404-0.729
		C119.053,22.193,124.649,25.383,124.687,30.335z M289.254,25.698c1.524,3.9,3.058,7.865,4.636,11.814
		c0.187,0.467,0.546,0.932,0.948,1.232c0.601,0.45,1.464,1.183,1.938,1.013c0.701-0.248,1.766-1.402,1.624-1.788
		c-0.934-2.568-1.639-5.127-1.328-7.888c-3.488-1.653-2.771-5.282-3.786-8.09c-0.975-2.703-2.755-3.207-4.422-0.828
		c-1.558,2.227-2.583,4.862-3.605,7.415c-0.9,2.253-1.205,4.766-2.255,6.933c-1.284,2.647-3.964,2.535-5.506-0.046
		c-0.618-1.033-1.125-2.149-1.549-3.278c-1.033-2.749-1.894-5.568-3.032-8.273c-0.337-0.799-1.371-1.306-2.084-1.947
		c-0.63,0.75-1.4,1.425-1.832,2.274c-0.258,0.507-0.15,1.356,0.084,1.93c1.56,3.813,3.035,7.675,4.898,11.336
		c0.641,1.258,2.189,2.245,3.542,2.914c3.365,1.668,7.351-0.034,8.505-3.598C287.209,33.18,288.173,29.466,289.254,25.698z
		 M230.531,36.433c-0.838,4.273,0.296,7.13,3.101,9.066c3.003,2.069,6.21,3.854,9.378,5.676c1.906,1.096,3.729,0.556,5.332-0.745
		c3.285-2.665,3.775-7.317,1.247-10.693c-2.958-3.95-7.28-5.25-11.803-5.646c-4.298-0.376-4.228-0.101-4.995-4.544
		c-0.252-1.455-1.105-2.817-1.769-4.183c-0.182-0.376-0.765-0.909-0.99-0.835c-0.433,0.142-1.025,0.644-1.054,1.033
		c-0.083,1.182-0.043,2.401,0.152,3.571C229.583,31.829,230.156,34.507,230.531,36.433z M132.509,33.366
		c-0.222,5.157,1.401,7.946,5.56,10.076c5.579,2.859,7.271,2.323,10.763-2.452c2.604-3.56,3.422-7.594,3.69-11.728
		c0.203-3.163-1.697-5.75-4.392-7.21c-2.267-1.229-4.871-1.94-7.14,0.576c-0.765,0.848-2.035,1.249-3.08,1.838
		C134.257,26.53,132.31,29.578,132.509,33.366z M251.953,21.322c-1.18,0.733-2.108,1.183-2.828,1.859
		c-0.167,0.156,0.245,1.217,0.635,1.628c2.063,2.183,1.977,5.902,5.191,7.239c1.838,5.282,5.234,9.768,7.595,14.784
		c0.372,0.792,1.132,1.399,1.714,2.094c0.472-0.848,1.266-1.67,1.332-2.547c0.079-1.074-0.295-2.262-0.749-3.276
		c-0.993-2.208-2.062-4.399-3.281-6.488c-2.608-4.467-5.321-8.875-8.02-13.289C253.129,22.654,252.558,22.079,251.953,21.322z
		 M270.658,8.887c6.524-1.861,13.102-3.707,19.648-5.658c0.472-0.141,0.718-1.042,1.066-1.59c-0.607-0.211-1.26-0.689-1.814-0.594
		c-5.596,0.947-11.197,1.896-16.745,3.079c-1.209,0.257-2.256,1.4-3.301,2.229c-0.34,0.269-0.73,1.033-0.596,1.233
		C269.235,8.055,269.854,8.321,270.658,8.887z"/>
	<path fill-rule="evenodd" clip-rule="evenodd" d="M0,46.091c0.267-2.916,0.07-5.967,0.883-8.722
		c3.281-11.116,2.856-23.03,7.19-34.92c5.569,10.155,8.211,20.196,10.914,30.65c2.628-4.903,5.003-9.968,7.977-14.652
		c1.72-2.712,4.353-4.867,6.722-7.115c0.254-0.243,2.086,0.424,2.188,0.889c0.756,3.408,1.581,6.855,1.773,10.325
		c0.423,7.67,0.491,15.362,0.683,23.045c0.018,0.681-0.07,1.382-0.235,2.045c-0.062,0.242-0.531,0.595-0.729,0.546
		c-0.437-0.106-0.999-0.346-1.176-0.7c-0.208-0.419-0.038-1.019-0.084-1.537c-0.413-4.702-0.883-9.4-1.244-14.108
		c-0.356-4.671-0.581-9.353-0.935-14.025c-0.043-0.584-0.523-1.132-0.803-1.699c-0.589,0.3-1.388,0.453-1.73,0.931
		c-1.3,1.815-2.484,3.717-3.648,5.624c-2.623,4.292-5.145,8.646-7.85,12.884c-0.798,1.247-2.047,2.306-2.91-0.173
		c-0.572-1.641-1.812-3.229-1.832-4.854c-0.088-6.999-4.381-12.733-5.545-19.383c-0.131-0.751-0.861-1.4-1.342-2.14
		C7.463,15.579,7.057,22,5.804,28.254c-1.211,6.048-3.291,11.92-4.988,17.871C0.543,46.114,0.271,46.102,0,46.091z"/>
	<path fill-rule="evenodd" clip-rule="evenodd" d="M163.91,0c2.449,0.448,3.686,1.854,3.774,3.962
		c0.372,8.858,0.615,17.726,0.903,26.461c2.18-0.427,4.809-1.227,7.479-1.408c5.232-0.355,8.481,3.018,8.303,8.218
		c-0.191,5.542-2.813,9.344-7.812,11.007c-2.987,0.993-5.594-0.395-7.645-2.264c-2.914-2.652-4.727-6.419-4.306-10.178
		C165.943,23.861,164.73,12.016,163.91,0z M175.264,32.328c-2.94-0.061-4.98,1.157-6.691,3.473
		c-1.773,2.398,0.314,3.984,1.057,5.655c1.279,2.886,3.605,3.41,6.495,2.048c3.436-1.623,6.022-5.891,4.879-8.252
		c-0.346-0.71-1.077-1.402-1.8-1.725C177.959,32.971,176.583,32.712,175.264,32.328z"/>
	<path fill-rule="evenodd" clip-rule="evenodd" d="M49.558,10.498c6.309-0.035,8.713,1.856,9.88,8.081
		c0.711,3.795,1.824,6.605,6.452,7.411c2.643,0.459,5.233,2.654,7.308,4.634c3.127,2.984,2.773,8.411,0.178,11.912
		c-2.682,3.616-6.22,4.458-10.388,4.444c-2.899-0.008-5.818,0.326-8.7,0.704c-2.55,0.335-5.051,1.119-7.604,1.312
		c-0.632,0.047-1.471-1.377-1.988-2.259c-0.089-0.153,0.9-1.289,1.506-1.417c0.986-0.209,2.241-0.286,3.075,0.158
		c1.821,0.969,3.165,0.173,4.862-0.356c2.429-0.756,5.098-0.727,7.663-1.064c2.229-0.292,4.539-0.356,6.66-1.015
		c2.431-0.756,4.394-4.241,4.26-6.685c-0.155-2.771-1.987-4.832-5.202-5.589c-3.51-0.826-7.026-1.677-10.586-2.194
		c-2.249-0.328-2.327-1.298-1.157-2.648c1.366-1.576,3.241-2.825,1.771-5.295c-1.462-2.455-3.228-4.406-6.37-4.646
		c-1.9-0.144-3.851-0.401-5.634-1.025c-0.875-0.304-1.997-1.595-1.946-2.372c0.046-0.741,1.373-1.708,2.315-2.005
		C47.028,10.232,48.334,10.5,49.558,10.498z"/>
	<path fill-rule="evenodd" clip-rule="evenodd" d="M94.354,38.165c-2.663,2.941-5.013,5.62-7.461,8.207
		c-1.268,1.334-2.736,1.244-4.239,0.208c-2.76-1.901-4.768-4.396-4.991-7.763c-0.216-3.257-0.135-6.578,0.254-9.816
		c0.448-3.734,2.952-5.794,6.64-6.167c2.547-0.259,5.216-0.65,7.67-0.166c3.305,0.655,4.834,3.562,4.945,6.646
		c0.208,5.693,1.651,10.998,3.767,16.213c0.313,0.771-0.172,1.867-0.288,2.813c-0.895-0.542-2.207-0.871-2.607-1.662
		C96.638,43.91,95.545,40.982,94.354,38.165z M93.924,27.495c-3.33,0-6.318,0.054-9.305-0.018c-1.832-0.046-3.813-0.117-4.022,2.202
		c-0.268,2.931-0.511,6.004,0.118,8.817c0.311,1.396,2.436,2.792,4.034,3.384c1.834,0.681,3.196-0.787,4.137-2.432
		c0.934-1.635,2.002-3.193,2.962-4.812C93.273,32.225,94.188,29.683,93.924,27.495z"/>
	<path fill-rule="evenodd" clip-rule="evenodd" d="M124.687,30.335c-0.037-4.953-5.634-8.142-9.938-5.697
		c-1.076,0.614-2.206,2.446-3.404,0.729c-0.367-0.526,0.738-2.43,1.555-3.37c3.695-4.242,8.097-4.273,11.869-0.358
		c3.141,3.255,4.935,7.062,3.057,11.341c-1.754,3.996-3.632,8.468-9.492,8.001c-0.445-0.034-1.433,1.35-1.438,2.079
		c-0.022,3.958,0.229,7.918,0.275,11.879c0.012,0.891-0.41,1.789-0.63,2.685c-0.64-0.862-1.668-1.65-1.853-2.601
		c-0.725-3.745-0.979-7.589-1.81-11.305c-0.671-2.995-1.853-5.886-2.935-8.776c-0.708-1.889-0.103-2.966,1.661-3.694
		c1.697-0.701,2.886-0.138,3.077,1.567c0.329,2.945,1.629,3.934,4.56,3.242C123.424,35.064,124.713,33.849,124.687,30.335z"/>
	<path fill-rule="evenodd" clip-rule="evenodd" d="M289.254,25.698c-1.081,3.768-2.045,7.482-3.225,11.125
		c-1.154,3.564-5.14,5.267-8.505,3.598c-1.353-0.669-2.901-1.656-3.542-2.914c-1.863-3.661-3.339-7.523-4.898-11.336
		c-0.234-0.574-0.342-1.423-0.084-1.93c0.432-0.849,1.202-1.524,1.832-2.274c0.713,0.641,1.747,1.148,2.084,1.947
		c1.139,2.706,1.999,5.525,3.032,8.273c0.424,1.129,0.931,2.245,1.549,3.278c1.542,2.581,4.222,2.693,5.506,0.046
		c1.05-2.167,1.354-4.68,2.255-6.933c1.022-2.553,2.048-5.188,3.605-7.415c1.667-2.378,3.447-1.875,4.422,0.828
		c1.015,2.808,0.298,6.437,3.786,8.09c-0.311,2.761,0.395,5.32,1.328,7.888c0.142,0.386-0.923,1.54-1.624,1.788
		c-0.474,0.17-1.337-0.563-1.938-1.013c-0.402-0.3-0.762-0.765-0.948-1.232C292.312,33.563,290.778,29.598,289.254,25.698z"/>
	<path fill-rule="evenodd" clip-rule="evenodd" d="M230.531,36.433c-0.375-1.925-0.948-4.604-1.4-7.3
		c-0.195-1.169-0.235-2.389-0.152-3.571c0.028-0.389,0.621-0.891,1.054-1.033c0.226-0.074,0.809,0.459,0.99,0.835
		c0.663,1.365,1.517,2.728,1.769,4.183c0.768,4.443,0.697,4.167,4.995,4.544c4.522,0.396,8.845,1.696,11.803,5.646
		c2.528,3.376,2.038,8.029-1.247,10.693c-1.603,1.301-3.426,1.841-5.332,0.745c-3.168-1.823-6.375-3.607-9.378-5.676
		C230.827,43.563,229.693,40.706,230.531,36.433z M237.055,37.856c-0.741,0.478-1.758,0.784-2.056,1.426
		c-0.264,0.562,0.024,1.772,0.51,2.226c2.507,2.349,5.082,4.637,7.784,6.757c1.354,1.062,2.581,0.369,3.458-1.027
		c1.479-2.354,1.414-4.51-0.952-5.856C243.14,39.87,240.091,39.041,237.055,37.856z"/>
	<path fill-rule="evenodd" clip-rule="evenodd" d="M132.509,33.366c-0.199-3.788,1.748-6.835,5.401-8.9
		c1.045-0.589,2.315-0.99,3.08-1.838c2.269-2.516,4.873-1.805,7.14-0.576c2.694,1.46,4.595,4.047,4.392,7.21
		c-0.269,4.134-1.086,8.168-3.69,11.728c-3.492,4.775-5.184,5.311-10.763,2.452C133.91,41.312,132.287,38.523,132.509,33.366z
		 M149.708,30.917c-0.022-0.521-0.03-1.044-0.072-1.564c-0.414-5.136-3.352-6.54-7.729-3.716c-1.162,0.747-2.414,1.362-3.547,2.15
		c-2.526,1.761-2.065,10.727,0.692,12.034c1.031,0.49,2.381,0.588,3.546,0.465C146.821,39.846,149.815,35.807,149.708,30.917z"/>
	<path fill-rule="evenodd" clip-rule="evenodd" d="M214.781,36.527c-0.566,3.254-2.342,4.735-5.942,4.726
		c-2.446-0.007-4.905-0.101-7.331-0.379c-2.116-0.245-2.455,0.713-2.045,2.418c0.62,2.581,2.163,5.207-0.439,7.597
		c-0.705-2.58-1.688-5.121-2.061-7.747c-0.778-5.476-1.235-10.998-1.821-16.5c-0.093-0.868-0.369-1.783-0.193-2.596
		c0.15-0.691,0.831-1.269,1.278-1.896c0.687,0.584,1.885,1.102,1.977,1.769c0.452,3.252,0.672,6.542,0.849,9.826
		c0.198,3.707,0.656,4.056,4.421,3.701c3.791-0.358,7.604-0.508,11.405-0.75L214.781,36.527z"/>
	<path fill-rule="evenodd" clip-rule="evenodd" d="M251.953,21.322c0.604,0.756,1.176,1.332,1.589,2.005
		c2.698,4.414,5.411,8.822,8.02,13.289c1.22,2.089,2.288,4.279,3.281,6.488c0.454,1.015,0.828,2.202,0.749,3.276
		c-0.066,0.877-0.86,1.699-1.332,2.547c-0.582-0.695-1.342-1.302-1.714-2.094c-2.36-5.017-5.757-9.502-7.595-14.784
		c-3.215-1.337-3.129-5.057-5.191-7.239c-0.39-0.412-0.802-1.472-0.635-1.628C249.845,22.505,250.773,22.056,251.953,21.322z"/>
	<path fill-rule="evenodd" clip-rule="evenodd" d="M214.878,36.696c0.187-1.484,0.518-2.969,0.519-4.454
		c0.002-1.913-0.4-3.833-0.327-5.736c0.022-0.582,0.987-1.23,1.657-1.604c0.162-0.092,1.206,0.735,1.263,1.209
		c0.841,7.07,1.616,14.152,2.291,21.243c0.059,0.614-0.696,1.304-1.072,1.96c-0.522-0.592-1.308-1.106-1.516-1.795
		c-0.55-1.827-0.782-3.747-1.263-5.597c-0.473-1.818-1.093-3.598-1.648-5.395L214.878,36.696z"/>
	<path fill-rule="evenodd" clip-rule="evenodd" d="M270.658,8.887c-0.805-0.566-1.423-0.833-1.741-1.301
		c-0.135-0.2,0.256-0.964,0.596-1.233c1.045-0.828,2.092-1.971,3.301-2.229c5.548-1.183,11.149-2.132,16.745-3.079
		c0.555-0.095,1.207,0.382,1.814,0.594c-0.349,0.548-0.595,1.449-1.066,1.59C283.76,5.181,277.183,7.026,270.658,8.887z"/>
	<path fill-rule="evenodd" clip-rule="evenodd" fill="none" d="M175.264,32.328c1.319,0.384,2.695,0.643,3.939,1.199
		c0.723,0.323,1.454,1.015,1.8,1.725c1.144,2.362-1.443,6.63-4.879,8.252c-2.89,1.362-5.216,0.838-6.495-2.048
		c-0.742-1.671-2.83-3.257-1.057-5.655C170.283,33.485,172.323,32.267,175.264,32.328z"/>
	<path fill-rule="evenodd" clip-rule="evenodd" fill="none" d="M93.924,27.495c0.264,2.188-0.65,4.73-2.076,7.141
		c-0.96,1.619-2.028,3.177-2.962,4.812c-0.94,1.645-2.303,3.113-4.137,2.432c-1.599-0.592-3.724-1.988-4.034-3.384
		c-0.629-2.813-0.386-5.886-0.118-8.817c0.21-2.319,2.19-2.249,4.022-2.202C87.605,27.548,90.594,27.495,93.924,27.495z"/>
	<path fill-rule="evenodd" clip-rule="evenodd" fill="none" d="M237.055,37.856c3.036,1.185,6.085,2.014,8.744,3.526
		c2.366,1.346,2.431,3.502,0.952,5.856c-0.877,1.396-2.104,2.089-3.458,1.027c-2.702-2.12-5.277-4.408-7.784-6.757
		c-0.485-0.453-0.773-1.664-0.51-2.226C235.297,38.64,236.313,38.333,237.055,37.856z"/>
	<path fill-rule="evenodd" clip-rule="evenodd" fill="none" d="M149.705,30.917c0.11,4.89-2.884,8.929-7.107,9.369
		c-1.165,0.123-2.515,0.024-3.546-0.465c-2.758-1.307-3.219-10.272-0.692-12.034c1.133-0.788,2.385-1.403,3.547-2.15
		c4.378-2.824,7.315-1.42,7.729,3.716C149.678,29.873,149.686,30.396,149.705,30.917z"/>
</g>
</svg>
